<svg
    viewBox="0 0 151 54"
    fill="none"
    xmlns="http://www.w3.org/2000/svg"
>
    <rect width="151" height="54" rx="4" fill="#36393F" />
    <path
        d="M46.6963 18.8906L43.9277 26.6104H43.0049L45.7783 18.8906H46.6963ZM50.4756 24.5693C50.4756 24.4521 50.4463 24.3464 50.3877 24.252C50.3291 24.1543 50.2168 24.0664 50.0508 23.9883C49.888 23.9102 49.6471 23.8385 49.3281 23.7734C49.0482 23.7116 48.791 23.6383 48.5566 23.5537C48.3255 23.4658 48.127 23.36 47.9609 23.2363C47.7949 23.1126 47.6663 22.9661 47.5752 22.7969C47.484 22.6276 47.4385 22.4323 47.4385 22.2109C47.4385 21.9961 47.4857 21.7926 47.5801 21.6006C47.6745 21.4085 47.8096 21.2393 47.9854 21.0928C48.1611 20.9463 48.3743 20.8307 48.625 20.7461C48.8789 20.6615 49.1621 20.6191 49.4746 20.6191C49.9173 20.6191 50.2965 20.694 50.6123 20.8438C50.9313 20.9902 51.1755 21.1904 51.3447 21.4443C51.514 21.695 51.5986 21.9782 51.5986 22.2939H50.4219C50.4219 22.154 50.3861 22.0238 50.3145 21.9033C50.2461 21.7796 50.1419 21.6803 50.002 21.6055C49.862 21.5273 49.6862 21.4883 49.4746 21.4883C49.2728 21.4883 49.1051 21.5208 48.9717 21.5859C48.8415 21.6478 48.7438 21.7292 48.6787 21.8301C48.6169 21.931 48.5859 22.0417 48.5859 22.1621C48.5859 22.25 48.6022 22.3298 48.6348 22.4014C48.6706 22.4697 48.7292 22.5332 48.8105 22.5918C48.8919 22.6471 49.0026 22.6992 49.1426 22.748C49.2858 22.7969 49.4648 22.8441 49.6797 22.8896C50.0833 22.9743 50.43 23.0833 50.7197 23.2168C51.0127 23.347 51.2373 23.5163 51.3936 23.7246C51.5498 23.9297 51.6279 24.1901 51.6279 24.5059C51.6279 24.7402 51.5775 24.9551 51.4766 25.1504C51.3789 25.3424 51.2357 25.5101 51.0469 25.6533C50.8581 25.7933 50.6318 25.9023 50.3682 25.9805C50.1077 26.0586 49.8148 26.0977 49.4893 26.0977C49.0107 26.0977 48.6055 26.013 48.2734 25.8438C47.9414 25.6712 47.6891 25.4515 47.5166 25.1846C47.3473 24.9144 47.2627 24.6344 47.2627 24.3447H48.4004C48.4134 24.5628 48.4736 24.737 48.5811 24.8672C48.6917 24.9941 48.8285 25.0869 48.9912 25.1455C49.1572 25.2008 49.3281 25.2285 49.5039 25.2285C49.7155 25.2285 49.8929 25.2008 50.0361 25.1455C50.1794 25.0869 50.2884 25.0088 50.3633 24.9111C50.4382 24.8102 50.4756 24.6963 50.4756 24.5693ZM55.8369 24.7549V20.7168H57.0186V26H55.9053L55.8369 24.7549ZM56.0029 23.6562L56.3984 23.6465C56.3984 24.0013 56.3594 24.3285 56.2812 24.6279C56.2031 24.9242 56.0827 25.1829 55.9199 25.4043C55.7572 25.6224 55.5488 25.7933 55.2949 25.917C55.041 26.0374 54.7367 26.0977 54.3818 26.0977C54.1247 26.0977 53.8887 26.0602 53.6738 25.9854C53.459 25.9105 53.2734 25.7949 53.1172 25.6387C52.9642 25.4824 52.8454 25.279 52.7607 25.0283C52.6761 24.7777 52.6338 24.4782 52.6338 24.1299V20.7168H53.8105V24.1396C53.8105 24.3317 53.8333 24.4928 53.8789 24.623C53.9245 24.75 53.9863 24.8525 54.0645 24.9307C54.1426 25.0088 54.2337 25.0641 54.3379 25.0967C54.4421 25.1292 54.5527 25.1455 54.6699 25.1455C55.0052 25.1455 55.2689 25.0804 55.4609 24.9502C55.6562 24.8167 55.7946 24.6377 55.876 24.4131C55.9606 24.1885 56.0029 23.9362 56.0029 23.6562ZM61.6084 20.7168H62.6777V25.8535C62.6777 26.3288 62.5768 26.7324 62.375 27.0645C62.1732 27.3965 61.8916 27.6488 61.5303 27.8213C61.1689 27.9971 60.7507 28.085 60.2754 28.085C60.0736 28.085 59.849 28.0557 59.6016 27.9971C59.3574 27.9385 59.1198 27.8441 58.8887 27.7139C58.6608 27.5869 58.4704 27.4193 58.3174 27.2109L58.8691 26.5176C59.0579 26.7422 59.2663 26.9066 59.4941 27.0107C59.722 27.1149 59.9613 27.167 60.2119 27.167C60.4821 27.167 60.7116 27.1165 60.9004 27.0156C61.0924 26.918 61.2406 26.7731 61.3447 26.5811C61.4489 26.389 61.501 26.1546 61.501 25.8779V21.9131L61.6084 20.7168ZM58.0195 23.417V23.3145C58.0195 22.9141 58.0684 22.5495 58.166 22.2207C58.2637 21.8887 58.4036 21.6038 58.5859 21.3662C58.7682 21.1253 58.9896 20.9414 59.25 20.8145C59.5104 20.6842 59.805 20.6191 60.1338 20.6191C60.4756 20.6191 60.7669 20.681 61.0078 20.8047C61.252 20.9284 61.4554 21.1058 61.6182 21.3369C61.7809 21.5648 61.9079 21.8382 61.999 22.1572C62.0934 22.473 62.1634 22.8245 62.209 23.2119V23.5391C62.1667 23.9167 62.0951 24.2617 61.9941 24.5742C61.8932 24.8867 61.7598 25.1569 61.5938 25.3848C61.4277 25.6126 61.2227 25.7884 60.9785 25.9121C60.7376 26.0358 60.4528 26.0977 60.124 26.0977C59.8018 26.0977 59.5104 26.0309 59.25 25.8975C58.9928 25.764 58.7715 25.5768 58.5859 25.3359C58.4036 25.0951 58.2637 24.8118 58.166 24.4863C58.0684 24.1576 58.0195 23.8011 58.0195 23.417ZM59.1963 23.3145V23.417C59.1963 23.6579 59.2191 23.8825 59.2646 24.0908C59.3135 24.2992 59.3867 24.4831 59.4844 24.6426C59.5853 24.7988 59.7122 24.9225 59.8652 25.0137C60.0215 25.1016 60.2054 25.1455 60.417 25.1455C60.6937 25.1455 60.9199 25.0869 61.0957 24.9697C61.2747 24.8525 61.4115 24.6947 61.5059 24.4961C61.6035 24.2943 61.6719 24.0697 61.7109 23.8223V22.9385C61.6914 22.7464 61.6507 22.5674 61.5889 22.4014C61.5303 22.2354 61.4505 22.0905 61.3496 21.9668C61.2487 21.8398 61.1217 21.7422 60.9688 21.6738C60.8158 21.6022 60.6351 21.5664 60.4268 21.5664C60.2152 21.5664 60.0312 21.612 59.875 21.7031C59.7188 21.7943 59.5902 21.9196 59.4893 22.0791C59.3916 22.2386 59.3184 22.4242 59.2695 22.6357C59.2207 22.8473 59.1963 23.0736 59.1963 23.3145ZM67.2822 20.7168H68.3516V25.8535C68.3516 26.3288 68.2507 26.7324 68.0488 27.0645C67.847 27.3965 67.5654 27.6488 67.2041 27.8213C66.8428 27.9971 66.4245 28.085 65.9492 28.085C65.7474 28.085 65.5228 28.0557 65.2754 27.9971C65.0312 27.9385 64.7936 27.8441 64.5625 27.7139C64.3346 27.5869 64.1442 27.4193 63.9912 27.2109L64.543 26.5176C64.7318 26.7422 64.9401 26.9066 65.168 27.0107C65.3958 27.1149 65.6351 27.167 65.8857 27.167C66.1559 27.167 66.3854 27.1165 66.5742 27.0156C66.7663 26.918 66.9144 26.7731 67.0186 26.5811C67.1227 26.389 67.1748 26.1546 67.1748 25.8779V21.9131L67.2822 20.7168ZM63.6934 23.417V23.3145C63.6934 22.9141 63.7422 22.5495 63.8398 22.2207C63.9375 21.8887 64.0775 21.6038 64.2598 21.3662C64.4421 21.1253 64.6634 20.9414 64.9238 20.8145C65.1842 20.6842 65.4788 20.6191 65.8076 20.6191C66.1494 20.6191 66.4408 20.681 66.6816 20.8047C66.9258 20.9284 67.1292 21.1058 67.292 21.3369C67.4548 21.5648 67.5817 21.8382 67.6729 22.1572C67.7673 22.473 67.8372 22.8245 67.8828 23.2119V23.5391C67.8405 23.9167 67.7689 24.2617 67.668 24.5742C67.5671 24.8867 67.4336 25.1569 67.2676 25.3848C67.1016 25.6126 66.8965 25.7884 66.6523 25.9121C66.4115 26.0358 66.1266 26.0977 65.7979 26.0977C65.4756 26.0977 65.1842 26.0309 64.9238 25.8975C64.6667 25.764 64.4453 25.5768 64.2598 25.3359C64.0775 25.0951 63.9375 24.8118 63.8398 24.4863C63.7422 24.1576 63.6934 23.8011 63.6934 23.417ZM64.8701 23.3145V23.417C64.8701 23.6579 64.8929 23.8825 64.9385 24.0908C64.9873 24.2992 65.0605 24.4831 65.1582 24.6426C65.2591 24.7988 65.3861 24.9225 65.5391 25.0137C65.6953 25.1016 65.8792 25.1455 66.0908 25.1455C66.3675 25.1455 66.5938 25.0869 66.7695 24.9697C66.9486 24.8525 67.0853 24.6947 67.1797 24.4961C67.2773 24.2943 67.3457 24.0697 67.3848 23.8223V22.9385C67.3652 22.7464 67.3245 22.5674 67.2627 22.4014C67.2041 22.2354 67.1243 22.0905 67.0234 21.9668C66.9225 21.8398 66.7956 21.7422 66.6426 21.6738C66.4896 21.6022 66.3089 21.5664 66.1006 21.5664C65.889 21.5664 65.7051 21.612 65.5488 21.7031C65.3926 21.7943 65.264 21.9196 65.1631 22.0791C65.0654 22.2386 64.9922 22.4242 64.9434 22.6357C64.8945 22.8473 64.8701 23.0736 64.8701 23.3145ZM71.9014 26.0977C71.5107 26.0977 71.1576 26.0342 70.8418 25.9072C70.5293 25.777 70.2624 25.5964 70.041 25.3652C69.8229 25.1341 69.6553 24.8623 69.5381 24.5498C69.4209 24.2373 69.3623 23.9004 69.3623 23.5391V23.3438C69.3623 22.9303 69.4225 22.556 69.543 22.2207C69.6634 21.8854 69.8311 21.599 70.0459 21.3613C70.2607 21.1204 70.5146 20.9365 70.8076 20.8096C71.1006 20.6826 71.418 20.6191 71.7598 20.6191C72.1374 20.6191 72.4678 20.6826 72.751 20.8096C73.0342 20.9365 73.2686 21.1156 73.4541 21.3467C73.6429 21.5745 73.7829 21.8464 73.874 22.1621C73.9684 22.4779 74.0156 22.8262 74.0156 23.207V23.71H69.9336V22.8652H72.8535V22.7725C72.847 22.5609 72.8047 22.3623 72.7266 22.1768C72.6517 21.9912 72.5361 21.8415 72.3799 21.7275C72.2236 21.6136 72.0153 21.5566 71.7549 21.5566C71.5596 21.5566 71.3854 21.599 71.2324 21.6836C71.0827 21.765 70.9574 21.8838 70.8564 22.04C70.7555 22.1963 70.6774 22.3851 70.6221 22.6064C70.57 22.8245 70.5439 23.0703 70.5439 23.3438V23.5391C70.5439 23.7702 70.5749 23.985 70.6367 24.1836C70.7018 24.3789 70.7962 24.5498 70.9199 24.6963C71.0436 24.8428 71.1934 24.9583 71.3691 25.043C71.5449 25.1243 71.7451 25.165 71.9697 25.165C72.2529 25.165 72.5052 25.1081 72.7266 24.9941C72.9479 24.8802 73.14 24.7191 73.3027 24.5107L73.9229 25.1113C73.8089 25.2773 73.6608 25.4368 73.4785 25.5898C73.2962 25.7396 73.0732 25.8617 72.8096 25.9561C72.5492 26.0505 72.2464 26.0977 71.9014 26.0977ZM77.8975 24.5693C77.8975 24.4521 77.8682 24.3464 77.8096 24.252C77.751 24.1543 77.6387 24.0664 77.4727 23.9883C77.3099 23.9102 77.069 23.8385 76.75 23.7734C76.4701 23.7116 76.2129 23.6383 75.9785 23.5537C75.7474 23.4658 75.5488 23.36 75.3828 23.2363C75.2168 23.1126 75.0882 22.9661 74.9971 22.7969C74.9059 22.6276 74.8604 22.4323 74.8604 22.2109C74.8604 21.9961 74.9076 21.7926 75.002 21.6006C75.0964 21.4085 75.2314 21.2393 75.4072 21.0928C75.583 20.9463 75.7962 20.8307 76.0469 20.7461C76.3008 20.6615 76.584 20.6191 76.8965 20.6191C77.3392 20.6191 77.7184 20.694 78.0342 20.8438C78.3532 20.9902 78.5973 21.1904 78.7666 21.4443C78.9359 21.695 79.0205 21.9782 79.0205 22.2939H77.8438C77.8438 22.154 77.8079 22.0238 77.7363 21.9033C77.668 21.7796 77.5638 21.6803 77.4238 21.6055C77.2839 21.5273 77.1081 21.4883 76.8965 21.4883C76.6947 21.4883 76.527 21.5208 76.3936 21.5859C76.2633 21.6478 76.1657 21.7292 76.1006 21.8301C76.0387 21.931 76.0078 22.0417 76.0078 22.1621C76.0078 22.25 76.0241 22.3298 76.0566 22.4014C76.0924 22.4697 76.151 22.5332 76.2324 22.5918C76.3138 22.6471 76.4245 22.6992 76.5645 22.748C76.7077 22.7969 76.8867 22.8441 77.1016 22.8896C77.5052 22.9743 77.8519 23.0833 78.1416 23.2168C78.4346 23.347 78.6592 23.5163 78.8154 23.7246C78.9717 23.9297 79.0498 24.1901 79.0498 24.5059C79.0498 24.7402 78.9993 24.9551 78.8984 25.1504C78.8008 25.3424 78.6576 25.5101 78.4688 25.6533C78.2799 25.7933 78.0537 25.9023 77.79 25.9805C77.5296 26.0586 77.2367 26.0977 76.9111 26.0977C76.4326 26.0977 76.0273 26.013 75.6953 25.8438C75.3633 25.6712 75.111 25.4515 74.9385 25.1846C74.7692 24.9144 74.6846 24.6344 74.6846 24.3447H75.8223C75.8353 24.5628 75.8955 24.737 76.0029 24.8672C76.1136 24.9941 76.2503 25.0869 76.4131 25.1455C76.5791 25.2008 76.75 25.2285 76.9258 25.2285C77.1374 25.2285 77.3148 25.2008 77.458 25.1455C77.6012 25.0869 77.7103 25.0088 77.7852 24.9111C77.86 24.8102 77.8975 24.6963 77.8975 24.5693ZM82.502 20.7168V21.5762H79.5234V20.7168H82.502ZM80.3828 19.4229H81.5596V24.54C81.5596 24.7028 81.5824 24.8281 81.6279 24.916C81.6768 25.0007 81.7435 25.0576 81.8281 25.0869C81.9128 25.1162 82.012 25.1309 82.126 25.1309C82.2074 25.1309 82.2855 25.126 82.3604 25.1162C82.4352 25.1064 82.4954 25.0967 82.541 25.0869L82.5459 25.9854C82.4482 26.0146 82.3343 26.0407 82.2041 26.0635C82.0771 26.0863 81.9307 26.0977 81.7646 26.0977C81.4945 26.0977 81.2552 26.0505 81.0469 25.9561C80.8385 25.8584 80.6758 25.7005 80.5586 25.4824C80.4414 25.2643 80.3828 24.9746 80.3828 24.6133V19.4229Z"
        fill="white"
    />
    <path
        d="M43.6738 31.7344H44.2217L45.6191 35.2119L47.0137 31.7344H47.5645L45.8301 36H45.4023L43.6738 31.7344ZM43.4951 31.7344H43.9785L44.0576 34.3359V36H43.4951V31.7344ZM47.2568 31.7344H47.7402V36H47.1777V34.3359L47.2568 31.7344ZM50.5205 35.458V33.8262C50.5205 33.7012 50.4951 33.5928 50.4443 33.501C50.3955 33.4072 50.3213 33.335 50.2217 33.2842C50.1221 33.2334 49.999 33.208 49.8525 33.208C49.7158 33.208 49.5957 33.2314 49.4922 33.2783C49.3906 33.3252 49.3105 33.3867 49.252 33.4629C49.1953 33.5391 49.167 33.6211 49.167 33.709H48.625C48.625 33.5957 48.6543 33.4834 48.7129 33.3721C48.7715 33.2607 48.8555 33.1602 48.9648 33.0703C49.0762 32.9785 49.209 32.9062 49.3633 32.8535C49.5195 32.7988 49.6934 32.7715 49.8848 32.7715C50.1152 32.7715 50.3184 32.8105 50.4941 32.8887C50.6719 32.9668 50.8105 33.085 50.9102 33.2432C51.0117 33.3994 51.0625 33.5957 51.0625 33.832V35.3086C51.0625 35.4141 51.0713 35.5264 51.0889 35.6455C51.1084 35.7646 51.1367 35.8672 51.1738 35.9531V36H50.6084C50.5811 35.9375 50.5596 35.8545 50.5439 35.751C50.5283 35.6455 50.5205 35.5479 50.5205 35.458ZM50.6143 34.0781L50.6201 34.459H50.0723C49.918 34.459 49.7803 34.4717 49.6592 34.4971C49.5381 34.5205 49.4365 34.5566 49.3545 34.6055C49.2725 34.6543 49.21 34.7158 49.167 34.79C49.124 34.8623 49.1025 34.9473 49.1025 35.0449C49.1025 35.1445 49.125 35.2354 49.1699 35.3174C49.2148 35.3994 49.2822 35.4648 49.3721 35.5137C49.4639 35.5605 49.5762 35.584 49.709 35.584C49.875 35.584 50.0215 35.5488 50.1484 35.4785C50.2754 35.4082 50.376 35.3223 50.4502 35.2207C50.5264 35.1191 50.5674 35.0205 50.5732 34.9248L50.8047 35.1855C50.791 35.2676 50.7539 35.3584 50.6934 35.458C50.6328 35.5576 50.5518 35.6533 50.4502 35.7451C50.3506 35.835 50.2314 35.9102 50.0928 35.9707C49.9561 36.0293 49.8018 36.0586 49.6299 36.0586C49.415 36.0586 49.2266 36.0166 49.0645 35.9326C48.9043 35.8486 48.7793 35.7363 48.6895 35.5957C48.6016 35.4531 48.5576 35.2939 48.5576 35.1182C48.5576 34.9482 48.5908 34.7988 48.6572 34.6699C48.7236 34.5391 48.8193 34.4307 48.9443 34.3447C49.0693 34.2568 49.2197 34.1904 49.3955 34.1455C49.5713 34.1006 49.7676 34.0781 49.9844 34.0781H50.6143ZM52.46 31.5V36H51.915V31.5H52.46ZM54.3965 32.8301L53.0137 34.3096L52.2402 35.1123L52.1963 34.5352L52.75 33.873L53.7344 32.8301H54.3965ZM53.9014 36L52.7705 34.4883L53.0518 34.0049L54.54 36H53.9014ZM56.2129 36.0586C55.9922 36.0586 55.792 36.0215 55.6123 35.9473C55.4346 35.8711 55.2812 35.7646 55.1523 35.6279C55.0254 35.4912 54.9277 35.3291 54.8594 35.1416C54.791 34.9541 54.7568 34.749 54.7568 34.5264V34.4033C54.7568 34.1455 54.7949 33.916 54.8711 33.7148C54.9473 33.5117 55.0508 33.3398 55.1816 33.1992C55.3125 33.0586 55.4609 32.9521 55.627 32.8799C55.793 32.8076 55.9648 32.7715 56.1426 32.7715C56.3691 32.7715 56.5645 32.8105 56.7285 32.8887C56.8945 32.9668 57.0303 33.0762 57.1357 33.2168C57.2412 33.3555 57.3193 33.5195 57.3701 33.709C57.4209 33.8965 57.4463 34.1016 57.4463 34.3242V34.5674H55.0791V34.125H56.9043V34.084C56.8965 33.9434 56.8672 33.8066 56.8164 33.6738C56.7676 33.541 56.6895 33.4316 56.582 33.3457C56.4746 33.2598 56.3281 33.2168 56.1426 33.2168C56.0195 33.2168 55.9062 33.2432 55.8027 33.2959C55.6992 33.3467 55.6104 33.4229 55.5361 33.5244C55.4619 33.626 55.4043 33.75 55.3633 33.8965C55.3223 34.043 55.3018 34.2119 55.3018 34.4033V34.5264C55.3018 34.6768 55.3223 34.8184 55.3633 34.9512C55.4062 35.082 55.4678 35.1973 55.5479 35.2969C55.6299 35.3965 55.7285 35.4746 55.8438 35.5312C55.9609 35.5879 56.0938 35.6162 56.2422 35.6162C56.4336 35.6162 56.5957 35.5771 56.7285 35.499C56.8613 35.4209 56.9775 35.3164 57.0771 35.1855L57.4053 35.4463C57.3369 35.5498 57.25 35.6484 57.1445 35.7422C57.0391 35.8359 56.9092 35.9121 56.7549 35.9707C56.6025 36.0293 56.4219 36.0586 56.2129 36.0586ZM61.4365 35.458V33.8262C61.4365 33.7012 61.4111 33.5928 61.3604 33.501C61.3115 33.4072 61.2373 33.335 61.1377 33.2842C61.0381 33.2334 60.915 33.208 60.7686 33.208C60.6318 33.208 60.5117 33.2314 60.4082 33.2783C60.3066 33.3252 60.2266 33.3867 60.168 33.4629C60.1113 33.5391 60.083 33.6211 60.083 33.709H59.541C59.541 33.5957 59.5703 33.4834 59.6289 33.3721C59.6875 33.2607 59.7715 33.1602 59.8809 33.0703C59.9922 32.9785 60.125 32.9062 60.2793 32.8535C60.4355 32.7988 60.6094 32.7715 60.8008 32.7715C61.0312 32.7715 61.2344 32.8105 61.4102 32.8887C61.5879 32.9668 61.7266 33.085 61.8262 33.2432C61.9277 33.3994 61.9785 33.5957 61.9785 33.832V35.3086C61.9785 35.4141 61.9873 35.5264 62.0049 35.6455C62.0244 35.7646 62.0527 35.8672 62.0898 35.9531V36H61.5244C61.4971 35.9375 61.4756 35.8545 61.46 35.751C61.4443 35.6455 61.4365 35.5479 61.4365 35.458ZM61.5303 34.0781L61.5361 34.459H60.9883C60.834 34.459 60.6963 34.4717 60.5752 34.4971C60.4541 34.5205 60.3525 34.5566 60.2705 34.6055C60.1885 34.6543 60.126 34.7158 60.083 34.79C60.04 34.8623 60.0186 34.9473 60.0186 35.0449C60.0186 35.1445 60.041 35.2354 60.0859 35.3174C60.1309 35.3994 60.1982 35.4648 60.2881 35.5137C60.3799 35.5605 60.4922 35.584 60.625 35.584C60.791 35.584 60.9375 35.5488 61.0645 35.4785C61.1914 35.4082 61.292 35.3223 61.3662 35.2207C61.4424 35.1191 61.4834 35.0205 61.4893 34.9248L61.7207 35.1855C61.707 35.2676 61.6699 35.3584 61.6094 35.458C61.5488 35.5576 61.4678 35.6533 61.3662 35.7451C61.2666 35.835 61.1475 35.9102 61.0088 35.9707C60.8721 36.0293 60.7178 36.0586 60.5459 36.0586C60.3311 36.0586 60.1426 36.0166 59.9805 35.9326C59.8203 35.8486 59.6953 35.7363 59.6055 35.5957C59.5176 35.4531 59.4736 35.2939 59.4736 35.1182C59.4736 34.9482 59.5068 34.7988 59.5732 34.6699C59.6396 34.5391 59.7354 34.4307 59.8604 34.3447C59.9854 34.2568 60.1357 34.1904 60.3115 34.1455C60.4873 34.1006 60.6836 34.0781 60.9004 34.0781H61.5303ZM66.165 35.1592C66.165 35.0811 66.1475 35.0088 66.1123 34.9424C66.0791 34.874 66.0098 34.8125 65.9043 34.7578C65.8008 34.7012 65.6445 34.6523 65.4355 34.6113C65.2598 34.5742 65.1006 34.5303 64.958 34.4795C64.8174 34.4287 64.6973 34.3672 64.5977 34.2949C64.5 34.2227 64.4248 34.1377 64.3721 34.04C64.3193 33.9424 64.293 33.8281 64.293 33.6973C64.293 33.5723 64.3203 33.4541 64.375 33.3428C64.4316 33.2314 64.5107 33.1328 64.6123 33.0469C64.7158 32.9609 64.8398 32.8936 64.9844 32.8447C65.1289 32.7959 65.29 32.7715 65.4678 32.7715C65.7217 32.7715 65.9385 32.8164 66.1182 32.9062C66.2979 32.9961 66.4355 33.1162 66.5312 33.2666C66.627 33.415 66.6748 33.5801 66.6748 33.7617H66.1328C66.1328 33.6738 66.1064 33.5889 66.0537 33.5068C66.0029 33.4229 65.9277 33.3535 65.8281 33.2988C65.7305 33.2441 65.6104 33.2168 65.4678 33.2168C65.3174 33.2168 65.1953 33.2402 65.1016 33.2871C65.0098 33.332 64.9424 33.3896 64.8994 33.46C64.8584 33.5303 64.8379 33.6045 64.8379 33.6826C64.8379 33.7412 64.8477 33.7939 64.8672 33.8408C64.8887 33.8857 64.9258 33.9277 64.9785 33.9668C65.0312 34.0039 65.1055 34.0391 65.2012 34.0723C65.2969 34.1055 65.4189 34.1387 65.5674 34.1719C65.8271 34.2305 66.041 34.3008 66.209 34.3828C66.377 34.4648 66.502 34.5654 66.584 34.6846C66.666 34.8037 66.707 34.9482 66.707 35.1182C66.707 35.2568 66.6777 35.3838 66.6191 35.499C66.5625 35.6143 66.4795 35.7139 66.3701 35.7979C66.2627 35.8799 66.1338 35.9443 65.9834 35.9912C65.835 36.0361 65.668 36.0586 65.4824 36.0586C65.2031 36.0586 64.9668 36.0088 64.7734 35.9092C64.5801 35.8096 64.4336 35.6807 64.334 35.5225C64.2344 35.3643 64.1846 35.1973 64.1846 35.0215H64.7295C64.7373 35.1699 64.7803 35.2881 64.8584 35.376C64.9365 35.4619 65.0322 35.5234 65.1455 35.5605C65.2588 35.5957 65.3711 35.6133 65.4824 35.6133C65.6309 35.6133 65.7549 35.5938 65.8545 35.5547C65.9561 35.5156 66.0332 35.4619 66.0859 35.3936C66.1387 35.3252 66.165 35.2471 66.165 35.1592ZM68.7344 36.0586C68.5137 36.0586 68.3135 36.0215 68.1338 35.9473C67.9561 35.8711 67.8027 35.7646 67.6738 35.6279C67.5469 35.4912 67.4492 35.3291 67.3809 35.1416C67.3125 34.9541 67.2783 34.749 67.2783 34.5264V34.4033C67.2783 34.1455 67.3164 33.916 67.3926 33.7148C67.4688 33.5117 67.5723 33.3398 67.7031 33.1992C67.834 33.0586 67.9824 32.9521 68.1484 32.8799C68.3145 32.8076 68.4863 32.7715 68.6641 32.7715C68.8906 32.7715 69.0859 32.8105 69.25 32.8887C69.416 32.9668 69.5518 33.0762 69.6572 33.2168C69.7627 33.3555 69.8408 33.5195 69.8916 33.709C69.9424 33.8965 69.9678 34.1016 69.9678 34.3242V34.5674H67.6006V34.125H69.4258V34.084C69.418 33.9434 69.3887 33.8066 69.3379 33.6738C69.2891 33.541 69.2109 33.4316 69.1035 33.3457C68.9961 33.2598 68.8496 33.2168 68.6641 33.2168C68.541 33.2168 68.4277 33.2432 68.3242 33.2959C68.2207 33.3467 68.1318 33.4229 68.0576 33.5244C67.9834 33.626 67.9258 33.75 67.8848 33.8965C67.8438 34.043 67.8232 34.2119 67.8232 34.4033V34.5264C67.8232 34.6768 67.8438 34.8184 67.8848 34.9512C67.9277 35.082 67.9893 35.1973 68.0693 35.2969C68.1514 35.3965 68.25 35.4746 68.3652 35.5312C68.4824 35.5879 68.6152 35.6162 68.7637 35.6162C68.9551 35.6162 69.1172 35.5771 69.25 35.499C69.3828 35.4209 69.499 35.3164 69.5986 35.1855L69.9268 35.4463C69.8584 35.5498 69.7715 35.6484 69.666 35.7422C69.5605 35.8359 69.4307 35.9121 69.2764 35.9707C69.124 36.0293 68.9434 36.0586 68.7344 36.0586ZM71.1426 33.3281V36H70.6006V32.8301H71.1279L71.1426 33.3281ZM72.1328 32.8125L72.1299 33.3164C72.085 33.3066 72.042 33.3008 72.001 33.2988C71.9619 33.2949 71.917 33.293 71.8662 33.293C71.7412 33.293 71.6309 33.3125 71.5352 33.3516C71.4395 33.3906 71.3584 33.4453 71.292 33.5156C71.2256 33.5859 71.1729 33.6699 71.1338 33.7676C71.0967 33.8633 71.0723 33.9688 71.0605 34.084L70.9082 34.1719C70.9082 33.9805 70.9268 33.8008 70.9639 33.6328C71.0029 33.4648 71.0625 33.3164 71.1426 33.1875C71.2227 33.0566 71.3242 32.9551 71.4473 32.8828C71.5723 32.8086 71.7207 32.7715 71.8926 32.7715C71.9316 32.7715 71.9766 32.7764 72.0273 32.7861C72.0781 32.7939 72.1133 32.8027 72.1328 32.8125ZM73.6504 35.5107L74.5176 32.8301H75.0713L73.9316 36H73.5684L73.6504 35.5107ZM72.9268 32.8301L73.8203 35.5254L73.8818 36H73.5186L72.3701 32.8301H72.9268ZM76.8672 36.0586C76.6465 36.0586 76.4463 36.0215 76.2666 35.9473C76.0889 35.8711 75.9355 35.7646 75.8066 35.6279C75.6797 35.4912 75.582 35.3291 75.5137 35.1416C75.4453 34.9541 75.4111 34.749 75.4111 34.5264V34.4033C75.4111 34.1455 75.4492 33.916 75.5254 33.7148C75.6016 33.5117 75.7051 33.3398 75.8359 33.1992C75.9668 33.0586 76.1152 32.9521 76.2812 32.8799C76.4473 32.8076 76.6191 32.7715 76.7969 32.7715C77.0234 32.7715 77.2188 32.8105 77.3828 32.8887C77.5488 32.9668 77.6846 33.0762 77.79 33.2168C77.8955 33.3555 77.9736 33.5195 78.0244 33.709C78.0752 33.8965 78.1006 34.1016 78.1006 34.3242V34.5674H75.7334V34.125H77.5586V34.084C77.5508 33.9434 77.5215 33.8066 77.4707 33.6738C77.4219 33.541 77.3438 33.4316 77.2363 33.3457C77.1289 33.2598 76.9824 33.2168 76.7969 33.2168C76.6738 33.2168 76.5605 33.2432 76.457 33.2959C76.3535 33.3467 76.2646 33.4229 76.1904 33.5244C76.1162 33.626 76.0586 33.75 76.0176 33.8965C75.9766 34.043 75.9561 34.2119 75.9561 34.4033V34.5264C75.9561 34.6768 75.9766 34.8184 76.0176 34.9512C76.0605 35.082 76.1221 35.1973 76.2021 35.2969C76.2842 35.3965 76.3828 35.4746 76.498 35.5312C76.6152 35.5879 76.748 35.6162 76.8965 35.6162C77.0879 35.6162 77.25 35.5771 77.3828 35.499C77.5156 35.4209 77.6318 35.3164 77.7314 35.1855L78.0596 35.4463C77.9912 35.5498 77.9043 35.6484 77.7988 35.7422C77.6934 35.8359 77.5635 35.9121 77.4092 35.9707C77.2568 36.0293 77.0762 36.0586 76.8672 36.0586ZM79.2754 33.3281V36H78.7334V32.8301H79.2607L79.2754 33.3281ZM80.2656 32.8125L80.2627 33.3164C80.2178 33.3066 80.1748 33.3008 80.1338 33.2988C80.0947 33.2949 80.0498 33.293 79.999 33.293C79.874 33.293 79.7637 33.3125 79.668 33.3516C79.5723 33.3906 79.4912 33.4453 79.4248 33.5156C79.3584 33.5859 79.3057 33.6699 79.2666 33.7676C79.2295 33.8633 79.2051 33.9688 79.1934 34.084L79.041 34.1719C79.041 33.9805 79.0596 33.8008 79.0967 33.6328C79.1357 33.4648 79.1953 33.3164 79.2754 33.1875C79.3555 33.0566 79.457 32.9551 79.5801 32.8828C79.7051 32.8086 79.8535 32.7715 80.0254 32.7715C80.0645 32.7715 80.1094 32.7764 80.1602 32.7861C80.2109 32.7939 80.2461 32.8027 80.2656 32.8125ZM84.1006 35.1592C84.1006 35.0811 84.083 35.0088 84.0479 34.9424C84.0146 34.874 83.9453 34.8125 83.8398 34.7578C83.7363 34.7012 83.5801 34.6523 83.3711 34.6113C83.1953 34.5742 83.0361 34.5303 82.8936 34.4795C82.7529 34.4287 82.6328 34.3672 82.5332 34.2949C82.4355 34.2227 82.3604 34.1377 82.3076 34.04C82.2549 33.9424 82.2285 33.8281 82.2285 33.6973C82.2285 33.5723 82.2559 33.4541 82.3105 33.3428C82.3672 33.2314 82.4463 33.1328 82.5479 33.0469C82.6514 32.9609 82.7754 32.8936 82.9199 32.8447C83.0645 32.7959 83.2256 32.7715 83.4033 32.7715C83.6572 32.7715 83.874 32.8164 84.0537 32.9062C84.2334 32.9961 84.3711 33.1162 84.4668 33.2666C84.5625 33.415 84.6104 33.5801 84.6104 33.7617H84.0684C84.0684 33.6738 84.042 33.5889 83.9893 33.5068C83.9385 33.4229 83.8633 33.3535 83.7637 33.2988C83.666 33.2441 83.5459 33.2168 83.4033 33.2168C83.2529 33.2168 83.1309 33.2402 83.0371 33.2871C82.9453 33.332 82.8779 33.3896 82.835 33.46C82.7939 33.5303 82.7734 33.6045 82.7734 33.6826C82.7734 33.7412 82.7832 33.7939 82.8027 33.8408C82.8242 33.8857 82.8613 33.9277 82.9141 33.9668C82.9668 34.0039 83.041 34.0391 83.1367 34.0723C83.2324 34.1055 83.3545 34.1387 83.5029 34.1719C83.7627 34.2305 83.9766 34.3008 84.1445 34.3828C84.3125 34.4648 84.4375 34.5654 84.5195 34.6846C84.6016 34.8037 84.6426 34.9482 84.6426 35.1182C84.6426 35.2568 84.6133 35.3838 84.5547 35.499C84.498 35.6143 84.415 35.7139 84.3057 35.7979C84.1982 35.8799 84.0693 35.9443 83.9189 35.9912C83.7705 36.0361 83.6035 36.0586 83.418 36.0586C83.1387 36.0586 82.9023 36.0088 82.709 35.9092C82.5156 35.8096 82.3691 35.6807 82.2695 35.5225C82.1699 35.3643 82.1201 35.1973 82.1201 35.0215H82.665C82.6729 35.1699 82.7158 35.2881 82.7939 35.376C82.8721 35.4619 82.9678 35.5234 83.0811 35.5605C83.1943 35.5957 83.3066 35.6133 83.418 35.6133C83.5664 35.6133 83.6904 35.5938 83.79 35.5547C83.8916 35.5156 83.9688 35.4619 84.0215 35.3936C84.0742 35.3252 84.1006 35.2471 84.1006 35.1592ZM87.2939 35.2676V32.8301H87.8389V36H87.3203L87.2939 35.2676ZM87.3965 34.5996L87.6221 34.5938C87.6221 34.8047 87.5996 35 87.5547 35.1797C87.5117 35.3574 87.4414 35.5117 87.3438 35.6426C87.2461 35.7734 87.1182 35.876 86.96 35.9502C86.8018 36.0225 86.6094 36.0586 86.3828 36.0586C86.2285 36.0586 86.0869 36.0361 85.958 35.9912C85.8311 35.9463 85.7217 35.877 85.6299 35.7832C85.5381 35.6895 85.4668 35.5674 85.416 35.417C85.3672 35.2666 85.3428 35.0859 85.3428 34.875V32.8301H85.8848V34.8809C85.8848 35.0234 85.9004 35.1416 85.9316 35.2354C85.9648 35.3271 86.0088 35.4004 86.0635 35.4551C86.1201 35.5078 86.1826 35.5449 86.251 35.5664C86.3213 35.5879 86.3936 35.5986 86.4678 35.5986C86.6982 35.5986 86.8809 35.5547 87.0156 35.4668C87.1504 35.377 87.2471 35.2568 87.3057 35.1064C87.3662 34.9541 87.3965 34.7852 87.3965 34.5996ZM90.7188 32.8301H91.2109V35.9326C91.2109 36.2119 91.1543 36.4502 91.041 36.6475C90.9277 36.8447 90.7695 36.9941 90.5664 37.0957C90.3652 37.1992 90.1328 37.251 89.8691 37.251C89.7598 37.251 89.6309 37.2334 89.4824 37.1982C89.3359 37.165 89.1914 37.1074 89.0488 37.0254C88.9082 36.9453 88.79 36.8369 88.6943 36.7002L88.9785 36.3779C89.1113 36.5381 89.25 36.6494 89.3945 36.7119C89.541 36.7744 89.6855 36.8057 89.8281 36.8057C90 36.8057 90.1484 36.7734 90.2734 36.709C90.3984 36.6445 90.4951 36.5488 90.5635 36.4219C90.6338 36.2969 90.6689 36.1426 90.6689 35.959V33.5273L90.7188 32.8301ZM88.5361 34.4502V34.3887C88.5361 34.1465 88.5645 33.9268 88.6211 33.7295C88.6797 33.5303 88.7627 33.3594 88.8701 33.2168C88.9795 33.0742 89.1113 32.9648 89.2656 32.8887C89.4199 32.8105 89.5938 32.7715 89.7871 32.7715C89.9863 32.7715 90.1602 32.8066 90.3086 32.877C90.459 32.9453 90.5859 33.0459 90.6895 33.1787C90.7949 33.3096 90.8779 33.4678 90.9385 33.6533C90.999 33.8389 91.041 34.0488 91.0645 34.2832V34.5527C91.043 34.7852 91.001 34.9941 90.9385 35.1797C90.8779 35.3652 90.7949 35.5234 90.6895 35.6543C90.5859 35.7852 90.459 35.8857 90.3086 35.9561C90.1582 36.0244 89.9824 36.0586 89.7812 36.0586C89.5918 36.0586 89.4199 36.0186 89.2656 35.9385C89.1133 35.8584 88.9824 35.7461 88.873 35.6016C88.7637 35.457 88.6797 35.2871 88.6211 35.0918C88.5645 34.8945 88.5361 34.6807 88.5361 34.4502ZM89.0781 34.3887V34.4502C89.0781 34.6084 89.0938 34.7568 89.125 34.8955C89.1582 35.0342 89.208 35.1562 89.2744 35.2617C89.3428 35.3672 89.4297 35.4502 89.5352 35.5107C89.6406 35.5693 89.7666 35.5986 89.9131 35.5986C90.0928 35.5986 90.2412 35.5605 90.3584 35.4844C90.4756 35.4082 90.5684 35.3076 90.6367 35.1826C90.707 35.0576 90.7617 34.9219 90.8008 34.7754V34.0693C90.7793 33.9619 90.7461 33.8584 90.7012 33.7588C90.6582 33.6572 90.6016 33.5674 90.5312 33.4893C90.4629 33.4092 90.3779 33.3457 90.2764 33.2988C90.1748 33.252 90.0557 33.2285 89.9189 33.2285C89.7705 33.2285 89.6426 33.2598 89.5352 33.3223C89.4297 33.3828 89.3428 33.4668 89.2744 33.5742C89.208 33.6797 89.1582 33.8027 89.125 33.9434C89.0938 34.082 89.0781 34.2305 89.0781 34.3887ZM94.0879 32.8301H94.5801V35.9326C94.5801 36.2119 94.5234 36.4502 94.4102 36.6475C94.2969 36.8447 94.1387 36.9941 93.9355 37.0957C93.7344 37.1992 93.502 37.251 93.2383 37.251C93.1289 37.251 93 37.2334 92.8516 37.1982C92.7051 37.165 92.5605 37.1074 92.418 37.0254C92.2773 36.9453 92.1592 36.8369 92.0635 36.7002L92.3477 36.3779C92.4805 36.5381 92.6191 36.6494 92.7637 36.7119C92.9102 36.7744 93.0547 36.8057 93.1973 36.8057C93.3691 36.8057 93.5176 36.7734 93.6426 36.709C93.7676 36.6445 93.8643 36.5488 93.9326 36.4219C94.0029 36.2969 94.0381 36.1426 94.0381 35.959V33.5273L94.0879 32.8301ZM91.9053 34.4502V34.3887C91.9053 34.1465 91.9336 33.9268 91.9902 33.7295C92.0488 33.5303 92.1318 33.3594 92.2393 33.2168C92.3486 33.0742 92.4805 32.9648 92.6348 32.8887C92.7891 32.8105 92.9629 32.7715 93.1562 32.7715C93.3555 32.7715 93.5293 32.8066 93.6777 32.877C93.8281 32.9453 93.9551 33.0459 94.0586 33.1787C94.1641 33.3096 94.2471 33.4678 94.3076 33.6533C94.3682 33.8389 94.4102 34.0488 94.4336 34.2832V34.5527C94.4121 34.7852 94.3701 34.9941 94.3076 35.1797C94.2471 35.3652 94.1641 35.5234 94.0586 35.6543C93.9551 35.7852 93.8281 35.8857 93.6777 35.9561C93.5273 36.0244 93.3516 36.0586 93.1504 36.0586C92.9609 36.0586 92.7891 36.0186 92.6348 35.9385C92.4824 35.8584 92.3516 35.7461 92.2422 35.6016C92.1328 35.457 92.0488 35.2871 91.9902 35.0918C91.9336 34.8945 91.9053 34.6807 91.9053 34.4502ZM92.4473 34.3887V34.4502C92.4473 34.6084 92.4629 34.7568 92.4941 34.8955C92.5273 35.0342 92.5771 35.1562 92.6436 35.2617C92.7119 35.3672 92.7988 35.4502 92.9043 35.5107C93.0098 35.5693 93.1357 35.5986 93.2822 35.5986C93.4619 35.5986 93.6104 35.5605 93.7275 35.4844C93.8447 35.4082 93.9375 35.3076 94.0059 35.1826C94.0762 35.0576 94.1309 34.9219 94.1699 34.7754V34.0693C94.1484 33.9619 94.1152 33.8584 94.0703 33.7588C94.0273 33.6572 93.9707 33.5674 93.9004 33.4893C93.832 33.4092 93.7471 33.3457 93.6455 33.2988C93.5439 33.252 93.4248 33.2285 93.2881 33.2285C93.1396 33.2285 93.0117 33.2598 92.9043 33.3223C92.7988 33.3828 92.7119 33.4668 92.6436 33.5742C92.5771 33.6797 92.5273 33.8027 92.4941 33.9434C92.4629 34.082 92.4473 34.2305 92.4473 34.3887ZM96.7188 36.0586C96.498 36.0586 96.2979 36.0215 96.1182 35.9473C95.9404 35.8711 95.7871 35.7646 95.6582 35.6279C95.5312 35.4912 95.4336 35.3291 95.3652 35.1416C95.2969 34.9541 95.2627 34.749 95.2627 34.5264V34.4033C95.2627 34.1455 95.3008 33.916 95.377 33.7148C95.4531 33.5117 95.5566 33.3398 95.6875 33.1992C95.8184 33.0586 95.9668 32.9521 96.1328 32.8799C96.2988 32.8076 96.4707 32.7715 96.6484 32.7715C96.875 32.7715 97.0703 32.8105 97.2344 32.8887C97.4004 32.9668 97.5361 33.0762 97.6416 33.2168C97.7471 33.3555 97.8252 33.5195 97.876 33.709C97.9268 33.8965 97.9521 34.1016 97.9521 34.3242V34.5674H95.585V34.125H97.4102V34.084C97.4023 33.9434 97.373 33.8066 97.3223 33.6738C97.2734 33.541 97.1953 33.4316 97.0879 33.3457C96.9805 33.2598 96.834 33.2168 96.6484 33.2168C96.5254 33.2168 96.4121 33.2432 96.3086 33.2959C96.2051 33.3467 96.1162 33.4229 96.042 33.5244C95.9678 33.626 95.9102 33.75 95.8691 33.8965C95.8281 34.043 95.8076 34.2119 95.8076 34.4033V34.5264C95.8076 34.6768 95.8281 34.8184 95.8691 34.9512C95.9121 35.082 95.9736 35.1973 96.0537 35.2969C96.1357 35.3965 96.2344 35.4746 96.3496 35.5312C96.4668 35.5879 96.5996 35.6162 96.748 35.6162C96.9395 35.6162 97.1016 35.5771 97.2344 35.499C97.3672 35.4209 97.4834 35.3164 97.583 35.1855L97.9111 35.4463C97.8428 35.5498 97.7559 35.6484 97.6504 35.7422C97.5449 35.8359 97.415 35.9121 97.2607 35.9707C97.1084 36.0293 96.9277 36.0586 96.7188 36.0586ZM100.431 35.1592C100.431 35.0811 100.413 35.0088 100.378 34.9424C100.345 34.874 100.275 34.8125 100.17 34.7578C100.066 34.7012 99.9102 34.6523 99.7012 34.6113C99.5254 34.5742 99.3662 34.5303 99.2236 34.4795C99.083 34.4287 98.9629 34.3672 98.8633 34.2949C98.7656 34.2227 98.6904 34.1377 98.6377 34.04C98.585 33.9424 98.5586 33.8281 98.5586 33.6973C98.5586 33.5723 98.5859 33.4541 98.6406 33.3428C98.6973 33.2314 98.7764 33.1328 98.8779 33.0469C98.9814 32.9609 99.1055 32.8936 99.25 32.8447C99.3945 32.7959 99.5557 32.7715 99.7334 32.7715C99.9873 32.7715 100.204 32.8164 100.384 32.9062C100.563 32.9961 100.701 33.1162 100.797 33.2666C100.893 33.415 100.94 33.5801 100.94 33.7617H100.398C100.398 33.6738 100.372 33.5889 100.319 33.5068C100.269 33.4229 100.193 33.3535 100.094 33.2988C99.9961 33.2441 99.876 33.2168 99.7334 33.2168C99.583 33.2168 99.4609 33.2402 99.3672 33.2871C99.2754 33.332 99.208 33.3896 99.165 33.46C99.124 33.5303 99.1035 33.6045 99.1035 33.6826C99.1035 33.7412 99.1133 33.7939 99.1328 33.8408C99.1543 33.8857 99.1914 33.9277 99.2441 33.9668C99.2969 34.0039 99.3711 34.0391 99.4668 34.0723C99.5625 34.1055 99.6846 34.1387 99.833 34.1719C100.093 34.2305 100.307 34.3008 100.475 34.3828C100.643 34.4648 100.768 34.5654 100.85 34.6846C100.932 34.8037 100.973 34.9482 100.973 35.1182C100.973 35.2568 100.943 35.3838 100.885 35.499C100.828 35.6143 100.745 35.7139 100.636 35.7979C100.528 35.8799 100.399 35.9443 100.249 35.9912C100.101 36.0361 99.9336 36.0586 99.748 36.0586C99.4688 36.0586 99.2324 36.0088 99.0391 35.9092C98.8457 35.8096 98.6992 35.6807 98.5996 35.5225C98.5 35.3643 98.4502 35.1973 98.4502 35.0215H98.9951C99.0029 35.1699 99.0459 35.2881 99.124 35.376C99.2021 35.4619 99.2979 35.5234 99.4111 35.5605C99.5244 35.5957 99.6367 35.6133 99.748 35.6133C99.8965 35.6133 100.021 35.5938 100.12 35.5547C100.222 35.5156 100.299 35.4619 100.352 35.3936C100.404 35.3252 100.431 35.2471 100.431 35.1592ZM103.012 32.8301V33.2461H101.298V32.8301H103.012ZM101.878 32.0596H102.42V35.2148C102.42 35.3223 102.437 35.4033 102.47 35.458C102.503 35.5127 102.546 35.5488 102.599 35.5664C102.651 35.584 102.708 35.5928 102.769 35.5928C102.813 35.5928 102.86 35.5889 102.909 35.5811C102.96 35.5713 102.998 35.5635 103.023 35.5576L103.026 36C102.983 36.0137 102.927 36.0264 102.856 36.0381C102.788 36.0518 102.705 36.0586 102.607 36.0586C102.475 36.0586 102.353 36.0322 102.241 35.9795C102.13 35.9268 102.041 35.8389 101.975 35.7158C101.91 35.5908 101.878 35.4229 101.878 35.2119V32.0596ZM104.236 32.8301V36H103.691V32.8301H104.236ZM103.65 31.9893C103.65 31.9014 103.677 31.8271 103.729 31.7666C103.784 31.7061 103.864 31.6758 103.97 31.6758C104.073 31.6758 104.152 31.7061 104.207 31.7666C104.264 31.8271 104.292 31.9014 104.292 31.9893C104.292 32.0732 104.264 32.1455 104.207 32.2061C104.152 32.2646 104.073 32.2939 103.97 32.2939C103.864 32.2939 103.784 32.2646 103.729 32.2061C103.677 32.1455 103.65 32.0732 103.65 31.9893ZM104.963 34.4502V34.3828C104.963 34.1543 104.996 33.9424 105.062 33.7471C105.129 33.5498 105.225 33.3789 105.35 33.2344C105.475 33.0879 105.626 32.9746 105.804 32.8945C105.981 32.8125 106.181 32.7715 106.401 32.7715C106.624 32.7715 106.824 32.8125 107.002 32.8945C107.182 32.9746 107.334 33.0879 107.459 33.2344C107.586 33.3789 107.683 33.5498 107.749 33.7471C107.815 33.9424 107.849 34.1543 107.849 34.3828V34.4502C107.849 34.6787 107.815 34.8906 107.749 35.0859C107.683 35.2812 107.586 35.4521 107.459 35.5986C107.334 35.7432 107.183 35.8564 107.005 35.9385C106.829 36.0186 106.63 36.0586 106.407 36.0586C106.185 36.0586 105.984 36.0186 105.807 35.9385C105.629 35.8564 105.477 35.7432 105.35 35.5986C105.225 35.4521 105.129 35.2812 105.062 35.0859C104.996 34.8906 104.963 34.6787 104.963 34.4502ZM105.505 34.3828V34.4502C105.505 34.6084 105.523 34.7578 105.561 34.8984C105.598 35.0371 105.653 35.1602 105.728 35.2676C105.804 35.375 105.898 35.46 106.012 35.5225C106.125 35.583 106.257 35.6133 106.407 35.6133C106.556 35.6133 106.686 35.583 106.797 35.5225C106.91 35.46 107.004 35.375 107.078 35.2676C107.152 35.1602 107.208 35.0371 107.245 34.8984C107.284 34.7578 107.304 34.6084 107.304 34.4502V34.3828C107.304 34.2266 107.284 34.0791 107.245 33.9404C107.208 33.7998 107.151 33.6758 107.075 33.5684C107.001 33.459 106.907 33.373 106.794 33.3105C106.683 33.248 106.552 33.2168 106.401 33.2168C106.253 33.2168 106.122 33.248 106.009 33.3105C105.897 33.373 105.804 33.459 105.728 33.5684C105.653 33.6758 105.598 33.7998 105.561 33.9404C105.523 34.0791 105.505 34.2266 105.505 34.3828ZM109.07 33.5068V36H108.528V32.8301H109.041L109.07 33.5068ZM108.941 34.2949L108.716 34.2861C108.718 34.0693 108.75 33.8691 108.812 33.6855C108.875 33.5 108.963 33.3389 109.076 33.2021C109.189 33.0654 109.324 32.96 109.48 32.8857C109.639 32.8096 109.813 32.7715 110.005 32.7715C110.161 32.7715 110.302 32.793 110.427 32.8359C110.552 32.877 110.658 32.9434 110.746 33.0352C110.836 33.127 110.904 33.2461 110.951 33.3926C110.998 33.5371 111.021 33.7139 111.021 33.9229V36H110.477V33.917C110.477 33.751 110.452 33.6182 110.403 33.5186C110.354 33.417 110.283 33.3438 110.189 33.2988C110.096 33.252 109.98 33.2285 109.844 33.2285C109.709 33.2285 109.586 33.2568 109.475 33.3135C109.365 33.3701 109.271 33.4482 109.19 33.5479C109.112 33.6475 109.051 33.7617 109.006 33.8906C108.963 34.0176 108.941 34.1523 108.941 34.2949ZM112.489 31.7344L112.451 34.7959H111.962L111.921 31.7344H112.489ZM111.903 35.7275C111.903 35.6396 111.93 35.5654 111.982 35.5049C112.037 35.4443 112.117 35.4141 112.223 35.4141C112.326 35.4141 112.405 35.4443 112.46 35.5049C112.517 35.5654 112.545 35.6396 112.545 35.7275C112.545 35.8115 112.517 35.8838 112.46 35.9443C112.405 36.0049 112.326 36.0352 112.223 36.0352C112.117 36.0352 112.037 36.0049 111.982 35.9443C111.93 35.8838 111.903 35.8115 111.903 35.7275Z"
        fill="#B5BAC1"
    />
    <path
        d="M127.061 24.7344V29H126.495V24.7344H127.061ZM128.848 26.6533V27.1162H126.938V26.6533H128.848ZM129.138 24.7344V25.1973H126.938V24.7344H129.138ZM129.521 27.4502V27.3828C129.521 27.1543 129.555 26.9424 129.621 26.7471C129.688 26.5498 129.783 26.3789 129.908 26.2344C130.033 26.0879 130.185 25.9746 130.362 25.8945C130.54 25.8125 130.739 25.7715 130.96 25.7715C131.183 25.7715 131.383 25.8125 131.561 25.8945C131.74 25.9746 131.893 26.0879 132.018 26.2344C132.145 26.3789 132.241 26.5498 132.308 26.7471C132.374 26.9424 132.407 27.1543 132.407 27.3828V27.4502C132.407 27.6787 132.374 27.8906 132.308 28.0859C132.241 28.2812 132.145 28.4521 132.018 28.5986C131.893 28.7432 131.741 28.8564 131.563 28.9385C131.388 29.0186 131.188 29.0586 130.966 29.0586C130.743 29.0586 130.543 29.0186 130.365 28.9385C130.188 28.8564 130.035 28.7432 129.908 28.5986C129.783 28.4521 129.688 28.2812 129.621 28.0859C129.555 27.8906 129.521 27.6787 129.521 27.4502ZM130.063 27.3828V27.4502C130.063 27.6084 130.082 27.7578 130.119 27.8984C130.156 28.0371 130.212 28.1602 130.286 28.2676C130.362 28.375 130.457 28.46 130.57 28.5225C130.684 28.583 130.815 28.6133 130.966 28.6133C131.114 28.6133 131.244 28.583 131.355 28.5225C131.469 28.46 131.562 28.375 131.637 28.2676C131.711 28.1602 131.767 28.0371 131.804 27.8984C131.843 27.7578 131.862 27.6084 131.862 27.4502V27.3828C131.862 27.2266 131.843 27.0791 131.804 26.9404C131.767 26.7998 131.71 26.6758 131.634 26.5684C131.56 26.459 131.466 26.373 131.353 26.3105C131.241 26.248 131.11 26.2168 130.96 26.2168C130.812 26.2168 130.681 26.248 130.567 26.3105C130.456 26.373 130.362 26.459 130.286 26.5684C130.212 26.6758 130.156 26.7998 130.119 26.9404C130.082 27.0791 130.063 27.2266 130.063 27.3828ZM133.629 26.3281V29H133.087V25.8301H133.614L133.629 26.3281ZM134.619 25.8125L134.616 26.3164C134.571 26.3066 134.528 26.3008 134.487 26.2988C134.448 26.2949 134.403 26.293 134.353 26.293C134.228 26.293 134.117 26.3125 134.021 26.3516C133.926 26.3906 133.845 26.4453 133.778 26.5156C133.712 26.5859 133.659 26.6699 133.62 26.7676C133.583 26.8633 133.559 26.9688 133.547 27.084L133.395 27.1719C133.395 26.9805 133.413 26.8008 133.45 26.6328C133.489 26.4648 133.549 26.3164 133.629 26.1875C133.709 26.0566 133.811 25.9551 133.934 25.8828C134.059 25.8086 134.207 25.7715 134.379 25.7715C134.418 25.7715 134.463 25.7764 134.514 25.7861C134.564 25.7939 134.6 25.8027 134.619 25.8125ZM135.659 26.46V29H135.114V25.8301H135.63L135.659 26.46ZM135.548 27.2949L135.296 27.2861C135.298 27.0693 135.326 26.8691 135.381 26.6855C135.436 26.5 135.517 26.3389 135.624 26.2021C135.731 26.0654 135.865 25.96 136.025 25.8857C136.186 25.8096 136.371 25.7715 136.582 25.7715C136.73 25.7715 136.867 25.793 136.992 25.8359C137.117 25.877 137.226 25.9424 137.317 26.0322C137.409 26.1221 137.48 26.2373 137.531 26.3779C137.582 26.5186 137.607 26.6885 137.607 26.8877V29H137.065V26.9141C137.065 26.748 137.037 26.6152 136.98 26.5156C136.926 26.416 136.848 26.3438 136.746 26.2988C136.645 26.252 136.525 26.2285 136.389 26.2285C136.229 26.2285 136.095 26.2568 135.987 26.3135C135.88 26.3701 135.794 26.4482 135.729 26.5479C135.665 26.6475 135.618 26.7617 135.589 26.8906C135.562 27.0176 135.548 27.1523 135.548 27.2949ZM137.602 26.9961L137.238 27.1074C137.24 26.9336 137.269 26.7666 137.323 26.6064C137.38 26.4463 137.461 26.3037 137.566 26.1787C137.674 26.0537 137.806 25.9551 137.962 25.8828C138.118 25.8086 138.297 25.7715 138.498 25.7715C138.668 25.7715 138.818 25.7939 138.949 25.8389C139.082 25.8838 139.193 25.9531 139.283 26.0469C139.375 26.1387 139.444 26.2568 139.491 26.4014C139.538 26.5459 139.562 26.7178 139.562 26.917V29H139.017V26.9111C139.017 26.7334 138.988 26.5957 138.932 26.498C138.877 26.3984 138.799 26.3291 138.697 26.29C138.598 26.249 138.479 26.2285 138.34 26.2285C138.221 26.2285 138.115 26.249 138.023 26.29C137.932 26.3311 137.854 26.3877 137.792 26.46C137.729 26.5303 137.682 26.6113 137.648 26.7031C137.617 26.7949 137.602 26.8926 137.602 26.9961ZM142.228 28.1592C142.228 28.0811 142.21 28.0088 142.175 27.9424C142.142 27.874 142.072 27.8125 141.967 27.7578C141.863 27.7012 141.707 27.6523 141.498 27.6113C141.322 27.5742 141.163 27.5303 141.021 27.4795C140.88 27.4287 140.76 27.3672 140.66 27.2949C140.562 27.2227 140.487 27.1377 140.435 27.04C140.382 26.9424 140.355 26.8281 140.355 26.6973C140.355 26.5723 140.383 26.4541 140.438 26.3428C140.494 26.2314 140.573 26.1328 140.675 26.0469C140.778 25.9609 140.902 25.8936 141.047 25.8447C141.191 25.7959 141.353 25.7715 141.53 25.7715C141.784 25.7715 142.001 25.8164 142.181 25.9062C142.36 25.9961 142.498 26.1162 142.594 26.2666C142.689 26.415 142.737 26.5801 142.737 26.7617H142.195C142.195 26.6738 142.169 26.5889 142.116 26.5068C142.065 26.4229 141.99 26.3535 141.891 26.2988C141.793 26.2441 141.673 26.2168 141.53 26.2168C141.38 26.2168 141.258 26.2402 141.164 26.2871C141.072 26.332 141.005 26.3896 140.962 26.46C140.921 26.5303 140.9 26.6045 140.9 26.6826C140.9 26.7412 140.91 26.7939 140.93 26.8408C140.951 26.8857 140.988 26.9277 141.041 26.9668C141.094 27.0039 141.168 27.0391 141.264 27.0723C141.359 27.1055 141.481 27.1387 141.63 27.1719C141.89 27.2305 142.104 27.3008 142.271 27.3828C142.439 27.4648 142.564 27.5654 142.646 27.6846C142.729 27.8037 142.77 27.9482 142.77 28.1182C142.77 28.2568 142.74 28.3838 142.682 28.499C142.625 28.6143 142.542 28.7139 142.433 28.7979C142.325 28.8799 142.196 28.9443 142.046 28.9912C141.897 29.0361 141.73 29.0586 141.545 29.0586C141.266 29.0586 141.029 29.0088 140.836 28.9092C140.643 28.8096 140.496 28.6807 140.396 28.5225C140.297 28.3643 140.247 28.1973 140.247 28.0215H140.792C140.8 28.1699 140.843 28.2881 140.921 28.376C140.999 28.4619 141.095 28.5234 141.208 28.5605C141.321 28.5957 141.434 28.6133 141.545 28.6133C141.693 28.6133 141.817 28.5938 141.917 28.5547C142.019 28.5156 142.096 28.4619 142.148 28.3936C142.201 28.3252 142.228 28.2471 142.228 28.1592Z"
        fill="#B5BAC1"
    />
    <rect
        x="8"
        y="18"
        width="22"
        height="22"
        rx="11"
        fill="#616AF2"
    />
    <circle
        cx="14.1117"
        cy="25.9856"
        r="1.05369"
        fill="white"
    />
    <circle
        cx="14.1117"
        cy="32.3077"
        r="1.05369"
        fill="white"
    />
    <circle
        cx="14.1117"
        cy="29.1467"
        r="1.05369"
        fill="white"
    />
    <rect
        x="16.219"
        y="25.1953"
        width="8.16612"
        height="1.58054"
        rx="0.79027"
        fill="white"
    />
    <rect
        x="16.219"
        y="28.3564"
        width="7.63927"
        height="1.58054"
        rx="0.79027"
        fill="white"
    />
    <rect
        x="16.219"
        y="31.5175"
        width="8.42954"
        height="1.58054"
        rx="0.79027"
        fill="white"
    />
</svg>