<svg
  viewBox="0 0 192 68"
  fill="none"
  xmlns="http://www.w3.org/2000/svg"
>
  <rect width="192" height="68" rx="4" fill="#36393F" />
  <rect
    x="8"
    y="6"
    width="27.1169"
    height="27.1169"
    rx="13.5585"
    fill="#616AF2"
  />
  <circle
    cx="15.5332"
    cy="15.8429"
    r="1.29877"
    fill="white"
  />
  <circle
    cx="15.5332"
    cy="23.6355"
    r="1.29877"
    fill="white"
  />
  <circle
    cx="15.5332"
    cy="19.7393"
    r="1.29877"
    fill="white"
  />
  <rect
    x="18.1307"
    y="14.8688"
    width="10.0655"
    height="1.94815"
    rx="0.974076"
    fill="white"
  />
  <rect
    x="18.1307"
    y="18.7651"
    width="9.41607"
    height="1.94815"
    rx="0.974076"
    fill="white"
  />
  <rect
    x="18.1307"
    y="22.6615"
    width="10.3901"
    height="1.94815"
    rx="0.974076"
    fill="white"
  />
  <path
    d="M45.6006 9.82752V16.9369H44.6582V9.82752H45.6006ZM48.5791 13.0258V13.7973H45.3955V13.0258H48.5791ZM49.0625 9.82752V10.599H45.3955V9.82752H49.0625ZM49.7021 14.3539V14.2416C49.7021 13.8607 49.7575 13.5075 49.8682 13.182C49.9788 12.8532 50.1383 12.5684 50.3467 12.3275C50.555 12.0834 50.8073 11.8946 51.1035 11.7611C51.3997 11.6244 51.7318 11.556 52.0996 11.556C52.4707 11.556 52.8044 11.6244 53.1006 11.7611C53.4001 11.8946 53.654 12.0834 53.8623 12.3275C54.0739 12.5684 54.235 12.8532 54.3457 13.182C54.4564 13.5075 54.5117 13.8607 54.5117 14.2416V14.3539C54.5117 14.7348 54.4564 15.0879 54.3457 15.4135C54.235 15.739 54.0739 16.0238 53.8623 16.268C53.654 16.5088 53.4017 16.6976 53.1055 16.8344C52.8125 16.9678 52.4805 17.0346 52.1094 17.0346C51.7383 17.0346 51.4046 16.9678 51.1084 16.8344C50.8122 16.6976 50.5583 16.5088 50.3467 16.268C50.1383 16.0238 49.9788 15.739 49.8682 15.4135C49.7575 15.0879 49.7021 14.7348 49.7021 14.3539ZM50.6055 14.2416V14.3539C50.6055 14.6176 50.6364 14.8666 50.6982 15.101C50.7601 15.3321 50.8529 15.5372 50.9766 15.7162C51.1035 15.8952 51.2614 16.0368 51.4502 16.141C51.639 16.2419 51.8587 16.2924 52.1094 16.2924C52.3568 16.2924 52.5732 16.2419 52.7588 16.141C52.9476 16.0368 53.1038 15.8952 53.2275 15.7162C53.3512 15.5372 53.444 15.3321 53.5059 15.101C53.571 14.8666 53.6035 14.6176 53.6035 14.3539V14.2416C53.6035 13.9812 53.571 13.7354 53.5059 13.5043C53.444 13.2699 53.3496 13.0632 53.2227 12.8842C53.099 12.7019 52.9427 12.5586 52.7539 12.4545C52.5684 12.3503 52.3503 12.2982 52.0996 12.2982C51.8522 12.2982 51.6341 12.3503 51.4453 12.4545C51.2598 12.5586 51.1035 12.7019 50.9766 12.8842C50.8529 13.0632 50.7601 13.2699 50.6982 13.5043C50.6364 13.7354 50.6055 13.9812 50.6055 14.2416ZM56.5479 12.4838V16.9369H55.6445V11.6537H56.5234L56.5479 12.4838ZM58.1982 11.6244L58.1934 12.4642C58.1185 12.448 58.0469 12.4382 57.9785 12.4349C57.9134 12.4284 57.8385 12.4252 57.7539 12.4252C57.5456 12.4252 57.3617 12.4577 57.2021 12.5228C57.0426 12.5879 56.9076 12.6791 56.7969 12.7963C56.6862 12.9135 56.5983 13.0534 56.5332 13.2162C56.4714 13.3757 56.4307 13.5515 56.4111 13.7435L56.1572 13.89C56.1572 13.571 56.1882 13.2715 56.25 12.9916C56.3151 12.7116 56.4144 12.4642 56.5479 12.2494C56.6813 12.0313 56.8506 11.862 57.0557 11.7416C57.264 11.6179 57.5114 11.556 57.7979 11.556C57.863 11.556 57.9378 11.5642 58.0225 11.5805C58.1071 11.5935 58.1657 11.6081 58.1982 11.6244ZM59.9316 12.7035V16.9369H59.0234V11.6537H59.8828L59.9316 12.7035ZM59.7461 14.0951L59.3262 14.0805C59.3294 13.7191 59.3766 13.3855 59.4678 13.0795C59.5589 12.7702 59.694 12.5017 59.873 12.2738C60.0521 12.0459 60.2751 11.8702 60.542 11.7465C60.8089 11.6195 61.1182 11.556 61.4697 11.556C61.7171 11.556 61.945 11.5918 62.1533 11.6635C62.3617 11.7318 62.5423 11.8409 62.6953 11.9906C62.8483 12.1403 62.9671 12.3324 63.0518 12.5668C63.1364 12.8012 63.1787 13.0844 63.1787 13.4164V16.9369H62.2754V13.4603C62.2754 13.1836 62.2282 12.9623 62.1338 12.7963C62.0426 12.6303 61.9124 12.5098 61.7432 12.4349C61.5739 12.3568 61.3753 12.3178 61.1475 12.3178C60.8805 12.3178 60.6576 12.365 60.4785 12.4594C60.2995 12.5538 60.1562 12.684 60.0488 12.85C59.9414 13.016 59.8633 13.2064 59.8145 13.4213C59.7689 13.6329 59.7461 13.8575 59.7461 14.0951ZM63.1689 13.5971L62.5635 13.7826C62.5667 13.4929 62.6139 13.2146 62.7051 12.9476C62.7995 12.6807 62.9346 12.4431 63.1104 12.2348C63.2894 12.0264 63.5091 11.862 63.7695 11.7416C64.0299 11.6179 64.3278 11.556 64.6631 11.556C64.9463 11.556 65.1969 11.5935 65.415 11.6683C65.6364 11.7432 65.8219 11.8588 65.9717 12.015C66.1247 12.168 66.2402 12.365 66.3184 12.6058C66.3965 12.8467 66.4355 13.1332 66.4355 13.4652V16.9369H65.5273V13.4555C65.5273 13.1592 65.4801 12.9297 65.3857 12.767C65.2946 12.601 65.1644 12.4854 64.9951 12.4203C64.8291 12.3519 64.6305 12.3178 64.3994 12.3178C64.2008 12.3178 64.0251 12.3519 63.8721 12.4203C63.7191 12.4887 63.5905 12.5831 63.4863 12.7035C63.3822 12.8207 63.3024 12.9558 63.2471 13.1088C63.195 13.2618 63.1689 13.4245 63.1689 13.5971ZM70.8789 15.5355C70.8789 15.4053 70.8496 15.2849 70.791 15.1742C70.7357 15.0603 70.6201 14.9577 70.4443 14.8666C70.2718 14.7722 70.0114 14.6908 69.6631 14.6224C69.3701 14.5606 69.1048 14.4874 68.8672 14.4027C68.6328 14.3181 68.4326 14.2155 68.2666 14.0951C68.1038 13.9747 67.9785 13.8331 67.8906 13.6703C67.8027 13.5075 67.7588 13.3171 67.7588 13.099C67.7588 12.8907 67.8044 12.6937 67.8955 12.5082C67.9899 12.3226 68.1217 12.1583 68.291 12.015C68.4635 11.8718 68.6702 11.7595 68.9111 11.6781C69.152 11.5967 69.4206 11.556 69.7168 11.556C70.14 11.556 70.5013 11.6309 70.8008 11.7806C71.1003 11.9304 71.3298 12.1306 71.4893 12.3812C71.6488 12.6286 71.7285 12.9037 71.7285 13.2064H70.8252C70.8252 13.0599 70.7812 12.9183 70.6934 12.7816C70.6087 12.6417 70.4834 12.5261 70.3174 12.4349C70.1546 12.3438 69.9544 12.2982 69.7168 12.2982C69.4661 12.2982 69.2627 12.3373 69.1064 12.4154C68.9535 12.4903 68.8411 12.5863 68.7695 12.7035C68.7012 12.8207 68.667 12.9444 68.667 13.0746C68.667 13.1723 68.6833 13.2601 68.7158 13.3383C68.7516 13.4131 68.8135 13.4831 68.9014 13.5482C68.9893 13.6101 69.113 13.6687 69.2725 13.724C69.432 13.7793 69.6354 13.8347 69.8828 13.89C70.3158 13.9877 70.6722 14.1049 70.9521 14.2416C71.2321 14.3783 71.4404 14.5459 71.5771 14.7445C71.7139 14.9431 71.7822 15.184 71.7822 15.4672C71.7822 15.6983 71.7334 15.9099 71.6357 16.1019C71.5413 16.294 71.403 16.46 71.2207 16.6C71.0417 16.7367 70.8268 16.8441 70.5762 16.9223C70.3288 16.9971 70.0505 17.0346 69.7412 17.0346C69.2757 17.0346 68.8818 16.9515 68.5596 16.7855C68.2373 16.6195 67.9932 16.4047 67.8271 16.141C67.6611 15.8773 67.5781 15.599 67.5781 15.306H68.4863C68.4993 15.5534 68.571 15.7504 68.7012 15.8969C68.8314 16.0401 68.9909 16.1426 69.1797 16.2045C69.3685 16.2631 69.5557 16.2924 69.7412 16.2924C69.9886 16.2924 70.1953 16.2598 70.3613 16.1947C70.5306 16.1296 70.6592 16.0401 70.7471 15.9262C70.835 15.8122 70.8789 15.682 70.8789 15.5355Z"
    fill="#5296D5"
  />
  <rect
    x="77.2449"
    y="8.39844"
    width="19"
    height="10"
    rx="2"
    fill="#5865F2"
  />
  <path
    d="M82.3399 11.3893L80.8531 15.7028H79.9542L81.8272 10.7262H82.4014L82.3399 11.3893ZM83.584 15.7028L82.0938 11.3893L82.0289 10.7262H82.6065L84.4864 15.7028H83.584ZM83.5123 13.8571V14.5373H80.8052V13.8571H83.5123ZM86.9337 13.8468H85.6382V13.1667H86.9337C87.1592 13.1667 87.3415 13.1302 87.4805 13.0573C87.6195 12.9844 87.7209 12.8841 87.7847 12.7565C87.8508 12.6266 87.8839 12.4785 87.8839 12.3122C87.8839 12.1549 87.8508 12.008 87.7847 11.8712C87.7209 11.7322 87.6195 11.6206 87.4805 11.5363C87.3415 11.452 87.1592 11.4098 86.9337 11.4098H85.9014V15.7028H85.0435V10.7262H86.9337C87.3187 10.7262 87.6457 10.7946 87.9146 10.9313C88.1858 11.0657 88.392 11.2526 88.5333 11.4918C88.6745 11.7288 88.7452 12 88.7452 12.3053C88.7452 12.6266 88.6745 12.9023 88.5333 13.1325C88.392 13.3626 88.1858 13.5392 87.9146 13.6623C87.6457 13.7853 87.3187 13.8468 86.9337 13.8468ZM91.4044 13.8468H90.1089V13.1667H91.4044C91.6299 13.1667 91.8122 13.1302 91.9512 13.0573C92.0902 12.9844 92.1916 12.8841 92.2554 12.7565C92.3215 12.6266 92.3546 12.4785 92.3546 12.3122C92.3546 12.1549 92.3215 12.008 92.2554 11.8712C92.1916 11.7322 92.0902 11.6206 91.9512 11.5363C91.8122 11.452 91.6299 11.4098 91.4044 11.4098H90.3721V15.7028H89.5142V10.7262H91.4044C91.7894 10.7262 92.1164 10.7946 92.3853 10.9313C92.6565 11.0657 92.8627 11.2526 93.004 11.4918C93.1452 11.7288 93.2159 12 93.2159 12.3053C93.2159 12.6266 93.1452 12.9023 93.004 13.1325C92.8627 13.3626 92.6565 13.5392 92.3853 13.6623C92.1164 13.7853 91.7894 13.8468 91.4044 13.8468Z"
    fill="white"
  />
  <path
    d="M105.757 10.1866V15.9054H105.034V11.089L103.577 11.6202V10.9679L105.644 10.1866H105.757ZM111.468 14.3663C111.468 14.7127 111.387 15.0069 111.226 15.2491C111.067 15.4887 110.851 15.671 110.577 15.796C110.306 15.921 110 15.9835 109.659 15.9835C109.318 15.9835 109.011 15.921 108.737 15.796C108.464 15.671 108.248 15.4887 108.089 15.2491C107.93 15.0069 107.851 14.7127 107.851 14.3663C107.851 14.1397 107.894 13.9327 107.98 13.7452C108.068 13.5551 108.192 13.3897 108.351 13.2491C108.512 13.1085 108.702 13.0004 108.921 12.9249C109.142 12.8468 109.386 12.8077 109.651 12.8077C110 12.8077 110.312 12.8754 110.585 13.0108C110.858 13.1437 111.073 13.3272 111.23 13.5616C111.388 13.796 111.468 14.0642 111.468 14.3663ZM110.741 14.3507C110.741 14.1397 110.696 13.9536 110.605 13.7921C110.513 13.628 110.386 13.5004 110.222 13.4093C110.058 13.3181 109.868 13.2726 109.651 13.2726C109.43 13.2726 109.239 13.3181 109.077 13.4093C108.918 13.5004 108.795 13.628 108.706 13.7921C108.618 13.9536 108.573 14.1397 108.573 14.3507C108.573 14.5694 108.616 14.7569 108.702 14.9132C108.791 15.0668 108.916 15.1853 109.077 15.2687C109.241 15.3494 109.435 15.3897 109.659 15.3897C109.883 15.3897 110.076 15.3494 110.237 15.2687C110.399 15.1853 110.523 15.0668 110.608 14.9132C110.697 14.7569 110.741 14.5694 110.741 14.3507ZM111.335 11.6983C111.335 11.9744 111.262 12.2231 111.116 12.4444C110.97 12.6658 110.771 12.8403 110.519 12.9679C110.266 13.0955 109.98 13.1593 109.659 13.1593C109.334 13.1593 109.043 13.0955 108.788 12.9679C108.536 12.8403 108.338 12.6658 108.194 12.4444C108.051 12.2231 107.98 11.9744 107.98 11.6983C107.98 11.3676 108.051 11.0864 108.194 10.8546C108.34 10.6228 108.539 10.4457 108.792 10.3233C109.045 10.2009 109.332 10.1397 109.655 10.1397C109.981 10.1397 110.27 10.2009 110.523 10.3233C110.775 10.4457 110.973 10.6228 111.116 10.8546C111.262 11.0864 111.335 11.3676 111.335 11.6983ZM110.612 11.7101C110.612 11.52 110.572 11.352 110.491 11.2062C110.411 11.0603 110.299 10.9457 110.155 10.8624C110.012 10.7765 109.845 10.7335 109.655 10.7335C109.465 10.7335 109.299 10.7739 109.155 10.8546C109.015 10.9327 108.904 11.0447 108.823 11.1905C108.745 11.3364 108.706 11.5095 108.706 11.7101C108.706 11.9054 108.745 12.0759 108.823 12.2218C108.904 12.3676 109.016 12.4809 109.159 12.5616C109.302 12.6424 109.469 12.6827 109.659 12.6827C109.849 12.6827 110.015 12.6424 110.155 12.5616C110.299 12.4809 110.411 12.3676 110.491 12.2218C110.572 12.0759 110.612 11.9054 110.612 11.7101ZM114.976 10.2179L112.605 16.3937H111.983L114.358 10.2179H114.976ZM119.257 12.6085V13.4757C119.257 13.9418 119.215 14.3351 119.132 14.6554C119.049 14.9757 118.929 15.2335 118.773 15.4288C118.616 15.6241 118.427 15.7661 118.206 15.8546C117.987 15.9405 117.74 15.9835 117.464 15.9835C117.245 15.9835 117.043 15.9562 116.858 15.9015C116.674 15.8468 116.507 15.7595 116.358 15.6397C116.213 15.5174 116.088 15.3585 115.983 15.1632C115.879 14.9679 115.8 14.7309 115.745 14.4522C115.69 14.1736 115.663 13.8481 115.663 13.4757V12.6085C115.663 12.1424 115.705 11.7517 115.788 11.4366C115.874 11.1215 115.995 10.8689 116.151 10.6788C116.308 10.4861 116.495 10.3481 116.714 10.2647C116.935 10.1814 117.183 10.1397 117.456 10.1397C117.677 10.1397 117.881 10.1671 118.065 10.2218C118.253 10.2739 118.42 10.3585 118.565 10.4757C118.711 10.5903 118.835 10.7439 118.937 10.9366C119.041 11.1267 119.12 11.3598 119.175 11.6358C119.23 11.9119 119.257 12.2361 119.257 12.6085ZM118.53 13.5929V12.4874C118.53 12.2322 118.515 12.0082 118.483 11.8155C118.455 11.6202 118.412 11.4536 118.355 11.3155C118.297 11.1775 118.224 11.0655 118.136 10.9796C118.05 10.8937 117.95 10.8312 117.835 10.7921C117.723 10.7504 117.597 10.7296 117.456 10.7296C117.284 10.7296 117.132 10.7621 116.999 10.8272C116.866 10.8897 116.754 10.99 116.663 11.128C116.575 11.2661 116.507 11.447 116.46 11.671C116.413 11.895 116.39 12.1671 116.39 12.4874V13.5929C116.39 13.8481 116.404 14.0733 116.433 14.2687C116.464 14.464 116.51 14.6332 116.569 14.7765C116.629 14.9171 116.702 15.033 116.788 15.1241C116.874 15.2153 116.973 15.283 117.085 15.3272C117.2 15.3689 117.326 15.3897 117.464 15.3897C117.641 15.3897 117.796 15.3559 117.929 15.2882C118.062 15.2205 118.172 15.115 118.261 14.9718C118.352 14.8259 118.42 14.6397 118.464 14.4132C118.508 14.184 118.53 13.9106 118.53 13.5929ZM123.913 15.3116V15.9054H120.19V15.3858L122.054 13.3116C122.283 13.0564 122.46 12.8403 122.585 12.6632C122.713 12.4835 122.801 12.3233 122.851 12.1827C122.903 12.0395 122.929 11.8937 122.929 11.7452C122.929 11.5577 122.89 11.3884 122.812 11.2374C122.736 11.0838 122.624 10.9614 122.476 10.8702C122.327 10.7791 122.148 10.7335 121.937 10.7335C121.684 10.7335 121.473 10.783 121.304 10.8819C121.137 10.9783 121.012 11.1137 120.929 11.2882C120.845 11.4627 120.804 11.6632 120.804 11.8897H120.081C120.081 11.5694 120.151 11.2765 120.292 11.0108C120.433 10.7452 120.641 10.5343 120.917 10.378C121.193 10.2192 121.533 10.1397 121.937 10.1397C122.296 10.1397 122.603 10.2036 122.858 10.3312C123.114 10.4562 123.309 10.6332 123.444 10.8624C123.582 11.089 123.651 11.3546 123.651 11.6593C123.651 11.8259 123.623 11.9952 123.565 12.1671C123.511 12.3364 123.434 12.5056 123.335 12.6749C123.239 12.8442 123.125 13.0108 122.995 13.1749C122.868 13.339 122.731 13.5004 122.585 13.6593L121.062 15.3116H123.913ZM127.28 10.2179L124.909 16.3937H124.288L126.663 10.2179H127.28ZM131.718 15.3116V15.9054H127.995V15.3858L129.858 13.3116C130.088 13.0564 130.265 12.8403 130.39 12.6632C130.517 12.4835 130.606 12.3233 130.655 12.1827C130.707 12.0395 130.733 11.8937 130.733 11.7452C130.733 11.5577 130.694 11.3884 130.616 11.2374C130.541 11.0838 130.429 10.9614 130.28 10.8702C130.132 10.7791 129.952 10.7335 129.741 10.7335C129.489 10.7335 129.278 10.783 129.108 10.8819C128.942 10.9783 128.817 11.1137 128.733 11.2882C128.65 11.4627 128.608 11.6632 128.608 11.8897H127.886C127.886 11.5694 127.956 11.2765 128.097 11.0108C128.237 10.7452 128.446 10.5343 128.722 10.378C128.998 10.2192 129.338 10.1397 129.741 10.1397C130.101 10.1397 130.408 10.2036 130.663 10.3312C130.918 10.4562 131.114 10.6332 131.249 10.8624C131.387 11.089 131.456 11.3546 131.456 11.6593C131.456 11.8259 131.427 11.9952 131.37 12.1671C131.315 12.3364 131.239 12.5056 131.14 12.6749C131.043 12.8442 130.93 13.0108 130.8 13.1749C130.672 13.339 130.536 13.5004 130.39 13.6593L128.866 15.3116H131.718ZM136.062 12.6085V13.4757C136.062 13.9418 136.02 14.3351 135.937 14.6554C135.853 14.9757 135.733 15.2335 135.577 15.4288C135.421 15.6241 135.232 15.7661 135.011 15.8546C134.792 15.9405 134.545 15.9835 134.269 15.9835C134.05 15.9835 133.848 15.9562 133.663 15.9015C133.478 15.8468 133.312 15.7595 133.163 15.6397C133.017 15.5174 132.892 15.3585 132.788 15.1632C132.684 14.9679 132.605 14.7309 132.55 14.4522C132.495 14.1736 132.468 13.8481 132.468 13.4757V12.6085C132.468 12.1424 132.51 11.7517 132.593 11.4366C132.679 11.1215 132.8 10.8689 132.956 10.6788C133.112 10.4861 133.3 10.3481 133.519 10.2647C133.74 10.1814 133.987 10.1397 134.261 10.1397C134.482 10.1397 134.685 10.1671 134.87 10.2218C135.058 10.2739 135.224 10.3585 135.37 10.4757C135.516 10.5903 135.64 10.7439 135.741 10.9366C135.845 11.1267 135.925 11.3598 135.98 11.6358C136.034 11.9119 136.062 12.2361 136.062 12.6085ZM135.335 13.5929V12.4874C135.335 12.2322 135.319 12.0082 135.288 11.8155C135.26 11.6202 135.217 11.4536 135.159 11.3155C135.102 11.1775 135.029 11.0655 134.94 10.9796C134.855 10.8937 134.754 10.8312 134.64 10.7921C134.528 10.7504 134.401 10.7296 134.261 10.7296C134.089 10.7296 133.937 10.7621 133.804 10.8272C133.671 10.8897 133.559 10.99 133.468 11.128C133.379 11.2661 133.312 11.447 133.265 11.671C133.218 11.895 133.194 12.1671 133.194 12.4874V13.5929C133.194 13.8481 133.209 14.0733 133.237 14.2687C133.269 14.464 133.314 14.6332 133.374 14.7765C133.434 14.9171 133.507 15.033 133.593 15.1241C133.679 15.2153 133.778 15.283 133.89 15.3272C134.004 15.3689 134.131 15.3897 134.269 15.3897C134.446 15.3897 134.601 15.3559 134.733 15.2882C134.866 15.2205 134.977 15.115 135.065 14.9718C135.157 14.8259 135.224 14.6397 135.269 14.4132C135.313 14.184 135.335 13.9106 135.335 13.5929ZM140.718 15.3116V15.9054H136.995V15.3858L138.858 13.3116C139.088 13.0564 139.265 12.8403 139.39 12.6632C139.517 12.4835 139.606 12.3233 139.655 12.1827C139.707 12.0395 139.733 11.8937 139.733 11.7452C139.733 11.5577 139.694 11.3884 139.616 11.2374C139.541 11.0838 139.429 10.9614 139.28 10.8702C139.132 10.7791 138.952 10.7335 138.741 10.7335C138.489 10.7335 138.278 10.783 138.108 10.8819C137.942 10.9783 137.817 11.1137 137.733 11.2882C137.65 11.4627 137.608 11.6632 137.608 11.8897H136.886C136.886 11.5694 136.956 11.2765 137.097 11.0108C137.237 10.7452 137.446 10.5343 137.722 10.378C137.998 10.2192 138.338 10.1397 138.741 10.1397C139.101 10.1397 139.408 10.2036 139.663 10.3312C139.918 10.4562 140.114 10.6332 140.249 10.8624C140.387 11.089 140.456 11.3546 140.456 11.6593C140.456 11.8259 140.427 11.9952 140.37 12.1671C140.315 12.3364 140.239 12.5056 140.14 12.6749C140.043 12.8442 139.93 13.0108 139.8 13.1749C139.672 13.339 139.536 13.5004 139.39 13.6593L137.866 15.3116H140.718ZM145.218 15.3116V15.9054H141.495V15.3858L143.358 13.3116C143.588 13.0564 143.765 12.8403 143.89 12.6632C144.017 12.4835 144.106 12.3233 144.155 12.1827C144.207 12.0395 144.233 11.8937 144.233 11.7452C144.233 11.5577 144.194 11.3884 144.116 11.2374C144.041 11.0838 143.929 10.9614 143.78 10.8702C143.632 10.7791 143.452 10.7335 143.241 10.7335C142.989 10.7335 142.778 10.783 142.608 10.8819C142.442 10.9783 142.317 11.1137 142.233 11.2882C142.15 11.4627 142.108 11.6632 142.108 11.8897H141.386C141.386 11.5694 141.456 11.2765 141.597 11.0108C141.737 10.7452 141.946 10.5343 142.222 10.378C142.498 10.2192 142.838 10.1397 143.241 10.1397C143.601 10.1397 143.908 10.2036 144.163 10.3312C144.418 10.4562 144.614 10.6332 144.749 10.8624C144.887 11.089 144.956 11.3546 144.956 11.6593C144.956 11.8259 144.927 11.9952 144.87 12.1671C144.815 12.3364 144.739 12.5056 144.64 12.6749C144.543 12.8442 144.43 13.0108 144.3 13.1749C144.172 13.339 144.036 13.5004 143.89 13.6593L142.366 15.3116H145.218Z"
    fill="#DBDEE1"
    fill-opacity="0.5"
  />
  <rect
    x="114.349"
    y="35.6061"
    width="69.0407"
    height="23.6441"
    rx="2"
    fill="#5865F2"
  />
  <path
    d="M126.545 47.4765V47.8671C126.545 48.4042 126.475 48.886 126.335 49.3124C126.195 49.7388 125.995 50.1018 125.735 50.4013C125.478 50.7008 125.168 50.9303 124.807 51.0898C124.446 51.246 124.045 51.3241 123.606 51.3241C123.17 51.3241 122.771 51.246 122.41 51.0898C122.051 50.9303 121.741 50.7008 121.477 50.4013C121.213 50.1018 121.008 49.7388 120.862 49.3124C120.718 48.886 120.647 48.4042 120.647 47.8671V47.4765C120.647 46.9394 120.718 46.4592 120.862 46.036C121.005 45.6096 121.207 45.2467 121.467 44.9472C121.731 44.6444 122.042 44.415 122.4 44.2587C122.761 44.0992 123.16 44.0194 123.596 44.0194C124.035 44.0194 124.436 44.0992 124.797 44.2587C125.159 44.415 125.469 44.6444 125.73 44.9472C125.99 45.2467 126.19 45.6096 126.33 46.036C126.474 46.4592 126.545 46.9394 126.545 47.4765ZM125.32 47.8671V47.4667C125.32 47.0696 125.281 46.7196 125.202 46.4169C125.128 46.1109 125.015 45.8554 124.866 45.6503C124.719 45.442 124.538 45.2857 124.324 45.1816C124.109 45.0741 123.866 45.0204 123.596 45.0204C123.326 45.0204 123.085 45.0741 122.873 45.1816C122.662 45.2857 122.481 45.442 122.331 45.6503C122.185 45.8554 122.073 46.1109 121.994 46.4169C121.916 46.7196 121.877 47.0696 121.877 47.4667V47.8671C121.877 48.2642 121.916 48.6158 121.994 48.9218C122.073 49.2278 122.187 49.4866 122.336 49.6982C122.489 49.9065 122.672 50.0644 122.883 50.1718C123.095 50.276 123.336 50.328 123.606 50.328C123.879 50.328 124.122 50.276 124.333 50.1718C124.545 50.0644 124.724 49.9065 124.87 49.6982C125.017 49.4866 125.128 49.2278 125.202 48.9218C125.281 48.6158 125.32 48.2642 125.32 47.8671ZM128.835 46.9589V53.2577H127.659V45.9433H128.743L128.835 46.9589ZM132.278 48.536V48.6386C132.278 49.0227 132.232 49.3791 132.141 49.7079C132.053 50.0334 131.921 50.3183 131.745 50.5624C131.573 50.8033 131.36 50.9905 131.106 51.1239C130.852 51.2574 130.559 51.3241 130.227 51.3241C129.898 51.3241 129.61 51.2639 129.363 51.1435C129.118 51.0198 128.912 50.8456 128.743 50.621C128.573 50.3964 128.437 50.1327 128.332 49.83C128.231 49.524 128.16 49.1887 128.118 48.8241V48.4286C128.16 48.0413 128.231 47.6897 128.332 47.3739C128.437 47.0582 128.573 46.7864 128.743 46.5585C128.912 46.3306 129.118 46.1549 129.363 46.0312C129.607 45.9075 129.892 45.8456 130.217 45.8456C130.549 45.8456 130.844 45.9107 131.101 46.0409C131.358 46.1679 131.575 46.3502 131.75 46.5878C131.926 46.8222 132.058 47.1054 132.146 47.4374C132.234 47.7662 132.278 48.1324 132.278 48.536ZM131.101 48.6386V48.536C131.101 48.2919 131.078 48.0657 131.033 47.8573C130.987 47.6458 130.915 47.4602 130.818 47.3007C130.72 47.1412 130.595 47.0175 130.442 46.9296C130.292 46.8385 130.111 46.7929 129.9 46.7929C129.691 46.7929 129.512 46.8287 129.363 46.9003C129.213 46.9687 129.088 47.0647 128.987 47.1884C128.886 47.3121 128.808 47.4569 128.752 47.623C128.697 47.7857 128.658 47.9631 128.635 48.1552V49.1025C128.674 49.3368 128.741 49.5517 128.835 49.747C128.93 49.9423 129.063 50.0985 129.236 50.2157C129.411 50.3297 129.636 50.3866 129.91 50.3866C130.121 50.3866 130.302 50.3411 130.451 50.2499C130.601 50.1588 130.723 50.0334 130.818 49.8739C130.915 49.7112 130.987 49.524 131.033 49.3124C131.078 49.1008 131.101 48.8762 131.101 48.6386ZM135.608 51.3241C135.217 51.3241 134.864 51.2607 134.548 51.1337C134.236 51.0035 133.969 50.8228 133.747 50.5917C133.529 50.3606 133.362 50.0888 133.244 49.7763C133.127 49.4638 133.069 49.1269 133.069 48.7655V48.5702C133.069 48.1568 133.129 47.7825 133.249 47.4472C133.37 47.1119 133.537 46.8254 133.752 46.5878C133.967 46.3469 134.221 46.163 134.514 46.036C134.807 45.9091 135.124 45.8456 135.466 45.8456C135.844 45.8456 136.174 45.9091 136.457 46.036C136.741 46.163 136.975 46.342 137.16 46.5732C137.349 46.801 137.489 47.0728 137.58 47.3886C137.675 47.7043 137.722 48.0527 137.722 48.4335V48.9364H133.64V48.0917H136.56V47.9989C136.553 47.7874 136.511 47.5888 136.433 47.4032C136.358 47.2177 136.243 47.068 136.086 46.954C135.93 46.8401 135.722 46.7831 135.461 46.7831C135.266 46.7831 135.092 46.8254 134.939 46.9101C134.789 46.9915 134.664 47.1103 134.563 47.2665C134.462 47.4228 134.384 47.6116 134.328 47.8329C134.276 48.051 134.25 48.2968 134.25 48.5702V48.7655C134.25 48.9967 134.281 49.2115 134.343 49.4101C134.408 49.6054 134.503 49.7763 134.626 49.9228C134.75 50.0693 134.9 50.1848 135.076 50.2694C135.251 50.3508 135.451 50.3915 135.676 50.3915C135.959 50.3915 136.212 50.3346 136.433 50.2206C136.654 50.1067 136.846 49.9456 137.009 49.7372L137.629 50.3378C137.515 50.5038 137.367 50.6633 137.185 50.8163C137.003 50.9661 136.78 51.0881 136.516 51.1825C136.256 51.2769 135.953 51.3241 135.608 51.3241ZM139.807 47.0712V51.2265H138.63V45.9433H139.739L139.807 47.0712ZM139.597 48.3896L139.216 48.3847C139.219 48.0103 139.271 47.6669 139.372 47.3544C139.477 47.0419 139.62 46.7734 139.802 46.5487C139.988 46.3241 140.209 46.1516 140.466 46.0312C140.723 45.9075 141.01 45.8456 141.326 45.8456C141.579 45.8456 141.809 45.8814 142.014 45.953C142.222 46.0214 142.4 46.1337 142.546 46.29C142.696 46.4462 142.81 46.6497 142.888 46.9003C142.966 47.1477 143.005 47.4521 143.005 47.8134V51.2265H141.824V47.8085C141.824 47.5546 141.786 47.3544 141.711 47.2079C141.64 47.0582 141.534 46.9524 141.394 46.8905C141.257 46.8254 141.086 46.7929 140.881 46.7929C140.679 46.7929 140.499 46.8352 140.339 46.9198C140.18 47.0045 140.045 47.12 139.934 47.2665C139.826 47.413 139.743 47.5823 139.685 47.7743C139.626 47.9664 139.597 48.1715 139.597 48.3896ZM148.039 44.1171V51.2265H146.814V44.1171H148.039ZM150.94 47.2275V48.1991H147.727V47.2275H150.94ZM151.345 44.1171V45.0937H147.727V44.1171H151.345ZM151.872 48.6435V48.5312C151.872 48.1503 151.928 47.7971 152.038 47.4716C152.149 47.1428 152.309 46.858 152.517 46.6171C152.729 46.373 152.986 46.1842 153.288 46.0507C153.594 45.914 153.939 45.8456 154.324 45.8456C154.711 45.8456 155.056 45.914 155.359 46.0507C155.665 46.1842 155.924 46.373 156.135 46.6171C156.347 46.858 156.508 47.1428 156.618 47.4716C156.729 47.7971 156.785 48.1503 156.785 48.5312V48.6435C156.785 49.0243 156.729 49.3775 156.618 49.703C156.508 50.0286 156.347 50.3134 156.135 50.5575C155.924 50.7984 155.666 50.9872 155.364 51.1239C155.061 51.2574 154.717 51.3241 154.333 51.3241C153.946 51.3241 153.599 51.2574 153.293 51.1239C152.991 50.9872 152.733 50.7984 152.522 50.5575C152.31 50.3134 152.149 50.0286 152.038 49.703C151.928 49.3775 151.872 49.0243 151.872 48.6435ZM153.049 48.5312V48.6435C153.049 48.8811 153.074 49.1057 153.122 49.3173C153.171 49.5289 153.248 49.7144 153.352 49.8739C153.456 50.0334 153.59 50.1588 153.752 50.2499C153.915 50.3411 154.109 50.3866 154.333 50.3866C154.551 50.3866 154.74 50.3411 154.9 50.2499C155.062 50.1588 155.196 50.0334 155.3 49.8739C155.404 49.7144 155.481 49.5289 155.53 49.3173C155.582 49.1057 155.608 48.8811 155.608 48.6435V48.5312C155.608 48.2968 155.582 48.0754 155.53 47.8671C155.481 47.6555 155.403 47.4683 155.295 47.3056C155.191 47.1428 155.058 47.0159 154.895 46.9247C154.735 46.8303 154.545 46.7831 154.324 46.7831C154.102 46.7831 153.91 46.8303 153.747 46.9247C153.588 47.0159 153.456 47.1428 153.352 47.3056C153.248 47.4683 153.171 47.6555 153.122 47.8671C153.074 48.0754 153.049 48.2968 153.049 48.5312ZM158.952 46.9491V51.2265H157.776V45.9433H158.899L158.952 46.9491ZM160.569 45.9091L160.559 47.0028C160.487 46.9898 160.409 46.9801 160.325 46.9735C160.243 46.967 160.162 46.9638 160.08 46.9638C159.879 46.9638 159.701 46.9931 159.548 47.0517C159.395 47.107 159.267 47.1884 159.162 47.2958C159.062 47.4 158.983 47.5269 158.928 47.6767C158.873 47.8264 158.84 47.9941 158.83 48.1796L158.562 48.1991C158.562 47.8671 158.594 47.5595 158.66 47.2763C158.725 46.9931 158.822 46.7441 158.952 46.5292C159.086 46.3144 159.252 46.1467 159.451 46.0263C159.652 45.9058 159.885 45.8456 160.149 45.8456C160.22 45.8456 160.297 45.8521 160.378 45.8652C160.463 45.8782 160.526 45.8928 160.569 45.9091ZM162.483 47.0175V51.2265H161.306V45.9433H162.414L162.483 47.0175ZM162.292 48.3896L161.892 48.3847C161.892 48.0201 161.937 47.6832 162.029 47.3739C162.12 47.0647 162.253 46.7961 162.429 46.5683C162.605 46.3372 162.823 46.1597 163.083 46.036C163.347 45.9091 163.651 45.8456 163.996 45.8456C164.237 45.8456 164.457 45.8814 164.656 45.953C164.857 46.0214 165.032 46.1305 165.178 46.2802C165.328 46.4299 165.442 46.622 165.52 46.8564C165.601 47.0907 165.642 47.3739 165.642 47.706V51.2265H164.465V47.8085C164.465 47.5513 164.426 47.3495 164.348 47.203C164.273 47.0566 164.164 46.9524 164.021 46.8905C163.881 46.8254 163.713 46.7929 163.518 46.7929C163.297 46.7929 163.108 46.8352 162.951 46.9198C162.799 47.0045 162.673 47.12 162.576 47.2665C162.478 47.413 162.406 47.5823 162.361 47.7743C162.315 47.9664 162.292 48.1715 162.292 48.3896ZM165.569 48.0771L165.017 48.1991C165.017 47.8801 165.061 47.579 165.149 47.2958C165.24 47.0094 165.372 46.7587 165.544 46.5439C165.72 46.3258 165.937 46.1549 166.194 46.0312C166.451 45.9075 166.745 45.8456 167.077 45.8456C167.348 45.8456 167.589 45.8831 167.8 45.9579C168.015 46.0295 168.197 46.1435 168.347 46.2997C168.497 46.456 168.611 46.6594 168.689 46.9101C168.767 47.1575 168.806 47.4569 168.806 47.8085V51.2265H167.624V47.8036C167.624 47.5367 167.585 47.33 167.507 47.1835C167.432 47.037 167.325 46.9361 167.185 46.8808C167.045 46.8222 166.877 46.7929 166.682 46.7929C166.5 46.7929 166.339 46.8271 166.199 46.8954C166.062 46.9605 165.946 47.0533 165.852 47.1737C165.757 47.2909 165.686 47.426 165.637 47.579C165.591 47.732 165.569 47.898 165.569 48.0771ZM177.204 50.289V51.2265H172.439V50.4208L174.753 47.8964C175.007 47.6099 175.207 47.3625 175.354 47.1542C175.5 46.9459 175.603 46.7587 175.661 46.5927C175.723 46.4234 175.754 46.259 175.754 46.0995C175.754 45.8749 175.712 45.678 175.627 45.5087C175.546 45.3362 175.425 45.2011 175.266 45.1034C175.106 45.0025 174.913 44.9521 174.685 44.9521C174.421 44.9521 174.2 45.009 174.021 45.123C173.842 45.2369 173.707 45.3948 173.616 45.5966C173.524 45.7952 173.479 46.023 173.479 46.2802H172.302C172.302 45.8668 172.396 45.4892 172.585 45.1474C172.774 44.8023 173.048 44.5289 173.406 44.3271C173.764 44.122 174.195 44.0194 174.7 44.0194C175.175 44.0194 175.578 44.0992 175.91 44.2587C176.243 44.4182 176.495 44.6444 176.667 44.9374C176.843 45.2304 176.931 45.5771 176.931 45.9775C176.931 46.1988 176.895 46.4185 176.824 46.6366C176.752 46.8547 176.649 47.0728 176.516 47.2909C176.386 47.5058 176.231 47.7222 176.052 47.9403C175.873 48.1552 175.676 48.3733 175.461 48.5946L173.923 50.289H177.204Z"
    fill="white"
  />
  <rect
    x="42.4712"
    y="35.6061"
    width="66.8654"
    height="23.6441"
    rx="2"
    fill="#5865F2"
  />
  <path
    d="M53.914 47.4765V47.8671C53.914 48.4042 53.844 48.886 53.704 49.3124C53.564 49.7388 53.3638 50.1018 53.1034 50.4013C52.8463 50.7008 52.537 50.9303 52.1757 51.0898C51.8144 51.246 51.414 51.3241 50.9745 51.3241C50.5383 51.3241 50.1395 51.246 49.7782 51.0898C49.4201 50.9303 49.1093 50.7008 48.8456 50.4013C48.5819 50.1018 48.3769 49.7388 48.2304 49.3124C48.0871 48.886 48.0155 48.4042 48.0155 47.8671V47.4765C48.0155 46.9394 48.0871 46.4592 48.2304 46.036C48.3736 45.6096 48.5754 45.2467 48.8358 44.9472C49.0995 44.6444 49.4104 44.415 49.7685 44.2587C50.1298 44.0992 50.5285 44.0194 50.9647 44.0194C51.4042 44.0194 51.8046 44.0992 52.1659 44.2587C52.5272 44.415 52.8381 44.6444 53.0985 44.9472C53.3589 45.2467 53.5591 45.6096 53.6991 46.036C53.8423 46.4592 53.914 46.9394 53.914 47.4765ZM52.6884 47.8671V47.4667C52.6884 47.0696 52.6493 46.7196 52.5712 46.4169C52.4963 46.1109 52.384 45.8554 52.2343 45.6503C52.0878 45.442 51.9071 45.2857 51.6923 45.1816C51.4774 45.0741 51.2349 45.0204 50.9647 45.0204C50.6946 45.0204 50.4537 45.0741 50.2421 45.1816C50.0305 45.2857 49.8498 45.442 49.7001 45.6503C49.5536 45.8554 49.4413 46.1109 49.3632 46.4169C49.2851 46.7196 49.246 47.0696 49.246 47.4667V47.8671C49.246 48.2642 49.2851 48.6158 49.3632 48.9218C49.4413 49.2278 49.5552 49.4866 49.705 49.6982C49.858 49.9065 50.0403 50.0644 50.2519 50.1718C50.4634 50.276 50.7043 50.328 50.9745 50.328C51.2479 50.328 51.4905 50.276 51.702 50.1718C51.9136 50.0644 52.0927 49.9065 52.2392 49.6982C52.3856 49.4866 52.4963 49.2278 52.5712 48.9218C52.6493 48.6158 52.6884 48.2642 52.6884 47.8671ZM56.204 46.9589V53.2577H55.0272V45.9433H56.1112L56.204 46.9589ZM59.6464 48.536V48.6386C59.6464 49.0227 59.6008 49.3791 59.5097 49.7079C59.4218 50.0334 59.2899 50.3183 59.1142 50.5624C58.9416 50.8033 58.7284 50.9905 58.4745 51.1239C58.2206 51.2574 57.9276 51.3241 57.5956 51.3241C57.2668 51.3241 56.9787 51.2639 56.7313 51.1435C56.4872 51.0198 56.2805 50.8456 56.1112 50.621C55.942 50.3964 55.8052 50.1327 55.7011 49.83C55.6002 49.524 55.5285 49.1887 55.4862 48.8241V48.4286C55.5285 48.0413 55.6002 47.6897 55.7011 47.3739C55.8052 47.0582 55.942 46.7864 56.1112 46.5585C56.2805 46.3306 56.4872 46.1549 56.7313 46.0312C56.9755 45.9075 57.2603 45.8456 57.5858 45.8456C57.9179 45.8456 58.2125 45.9107 58.4696 46.0409C58.7268 46.1679 58.9433 46.3502 59.119 46.5878C59.2948 46.8222 59.4267 47.1054 59.5145 47.4374C59.6024 47.7662 59.6464 48.1324 59.6464 48.536ZM58.4696 48.6386V48.536C58.4696 48.2919 58.4468 48.0657 58.4013 47.8573C58.3557 47.6458 58.2841 47.4602 58.1864 47.3007C58.0888 47.1412 57.9634 47.0175 57.8104 46.9296C57.6607 46.8385 57.48 46.7929 57.2685 46.7929C57.0601 46.7929 56.8811 46.8287 56.7313 46.9003C56.5816 46.9687 56.4563 47.0647 56.3554 47.1884C56.2545 47.3121 56.1763 47.4569 56.121 47.623C56.0657 47.7857 56.0266 47.9631 56.0038 48.1552V49.1025C56.0429 49.3368 56.1096 49.5517 56.204 49.747C56.2984 49.9423 56.4319 50.0985 56.6044 50.2157C56.7802 50.3297 57.0048 50.3866 57.2782 50.3866C57.4898 50.3866 57.6705 50.3411 57.8202 50.2499C57.9699 50.1588 58.092 50.0334 58.1864 49.8739C58.2841 49.7112 58.3557 49.524 58.4013 49.3124C58.4468 49.1008 58.4696 48.8762 58.4696 48.6386ZM62.9765 51.3241C62.5858 51.3241 62.2326 51.2607 61.9169 51.1337C61.6044 51.0035 61.3375 50.8228 61.1161 50.5917C60.898 50.3606 60.7304 50.0888 60.6132 49.7763C60.496 49.4638 60.4374 49.1269 60.4374 48.7655V48.5702C60.4374 48.1568 60.4976 47.7825 60.6181 47.4472C60.7385 47.1119 60.9061 46.8254 61.121 46.5878C61.3358 46.3469 61.5897 46.163 61.8827 46.036C62.1757 45.9091 62.4931 45.8456 62.8349 45.8456C63.2125 45.8456 63.5429 45.9091 63.8261 46.036C64.1093 46.163 64.3436 46.342 64.5292 46.5732C64.718 46.801 64.858 47.0728 64.9491 47.3886C65.0435 47.7043 65.0907 48.0527 65.0907 48.4335V48.9364H61.0087V48.0917H63.9286V47.9989C63.9221 47.7874 63.8798 47.5888 63.8017 47.4032C63.7268 47.2177 63.6112 47.068 63.455 46.954C63.2987 46.8401 63.0904 46.7831 62.83 46.7831C62.6347 46.7831 62.4605 46.8254 62.3075 46.9101C62.1578 46.9915 62.0324 47.1103 61.9315 47.2665C61.8306 47.4228 61.7525 47.6116 61.6972 47.8329C61.6451 48.051 61.619 48.2968 61.619 48.5702V48.7655C61.619 48.9967 61.65 49.2115 61.7118 49.4101C61.7769 49.6054 61.8713 49.7763 61.995 49.9228C62.1187 50.0693 62.2685 50.1848 62.4442 50.2694C62.62 50.3508 62.8202 50.3915 63.0448 50.3915C63.328 50.3915 63.5803 50.3346 63.8017 50.2206C64.023 50.1067 64.2151 49.9456 64.3778 49.7372L64.9979 50.3378C64.884 50.5038 64.7359 50.6633 64.5536 50.8163C64.3713 50.9661 64.1483 51.0881 63.8847 51.1825C63.6242 51.2769 63.3215 51.3241 62.9765 51.3241ZM67.1757 47.0712V51.2265H65.9989V45.9433H67.1073L67.1757 47.0712ZM66.9657 48.3896L66.5849 48.3847C66.5881 48.0103 66.6402 47.6669 66.7411 47.3544C66.8453 47.0419 66.9885 46.7734 67.1708 46.5487C67.3563 46.3241 67.5777 46.1516 67.8349 46.0312C68.092 45.9075 68.3785 45.8456 68.6942 45.8456C68.9481 45.8456 69.1776 45.8814 69.3827 45.953C69.591 46.0214 69.7685 46.1337 69.9149 46.29C70.0647 46.4462 70.1786 46.6497 70.2567 46.9003C70.3349 47.1477 70.3739 47.4521 70.3739 47.8134V51.2265H69.1923V47.8085C69.1923 47.5546 69.1548 47.3544 69.08 47.2079C69.0084 47.0582 68.9026 46.9524 68.7626 46.8905C68.6259 46.8254 68.455 46.7929 68.2499 46.7929C68.0481 46.7929 67.8674 46.8352 67.7079 46.9198C67.5484 47.0045 67.4133 47.12 67.3026 47.2665C67.1952 47.413 67.1122 47.5823 67.0536 47.7743C66.995 47.9664 66.9657 48.1715 66.9657 48.3896ZM75.4081 44.1171V51.2265H74.1825V44.1171H75.4081ZM78.3085 47.2275V48.1991H75.0956V47.2275H78.3085ZM78.7138 44.1171V45.0937H75.0956V44.1171H78.7138ZM79.2411 48.6435V48.5312C79.2411 48.1503 79.2964 47.7971 79.4071 47.4716C79.5178 47.1428 79.6773 46.858 79.8856 46.6171C80.0972 46.373 80.3544 46.1842 80.6571 46.0507C80.9631 45.914 81.3082 45.8456 81.6923 45.8456C82.0796 45.8456 82.4247 45.914 82.7274 46.0507C83.0334 46.1842 83.2922 46.373 83.5038 46.6171C83.7154 46.858 83.8765 47.1428 83.9872 47.4716C84.0979 47.7971 84.1532 48.1503 84.1532 48.5312V48.6435C84.1532 49.0243 84.0979 49.3775 83.9872 49.703C83.8765 50.0286 83.7154 50.3134 83.5038 50.5575C83.2922 50.7984 83.0351 50.9872 82.7323 51.1239C82.4296 51.2574 82.0862 51.3241 81.702 51.3241C81.3147 51.3241 80.968 51.2574 80.662 51.1239C80.3593 50.9872 80.1021 50.7984 79.8905 50.5575C79.6789 50.3134 79.5178 50.0286 79.4071 49.703C79.2964 49.3775 79.2411 49.0243 79.2411 48.6435ZM80.4179 48.5312V48.6435C80.4179 48.8811 80.4423 49.1057 80.4911 49.3173C80.5399 49.5289 80.6164 49.7144 80.7206 49.8739C80.8248 50.0334 80.9582 50.1588 81.121 50.2499C81.2838 50.3411 81.4774 50.3866 81.702 50.3866C81.9201 50.3866 82.1089 50.3411 82.2685 50.2499C82.4312 50.1588 82.5647 50.0334 82.6688 49.8739C82.773 49.7144 82.8495 49.5289 82.8983 49.3173C82.9504 49.1057 82.9765 48.8811 82.9765 48.6435V48.5312C82.9765 48.2968 82.9504 48.0754 82.8983 47.8671C82.8495 47.6555 82.7714 47.4683 82.664 47.3056C82.5598 47.1428 82.4263 47.0159 82.2636 46.9247C82.1041 46.8303 81.9136 46.7831 81.6923 46.7831C81.4709 46.7831 81.2789 46.8303 81.1161 46.9247C80.9566 47.0159 80.8248 47.1428 80.7206 47.3056C80.6164 47.4683 80.5399 47.6555 80.4911 47.8671C80.4423 48.0754 80.4179 48.2968 80.4179 48.5312ZM86.3212 46.9491V51.2265H85.1444V45.9433H86.2675L86.3212 46.9491ZM87.9374 45.9091L87.9276 47.0028C87.856 46.9898 87.7779 46.9801 87.6933 46.9735C87.6119 46.967 87.5305 46.9638 87.4491 46.9638C87.2473 46.9638 87.0699 46.9931 86.9169 47.0517C86.7639 47.107 86.6353 47.1884 86.5311 47.2958C86.4302 47.4 86.3521 47.5269 86.2968 47.6767C86.2414 47.8264 86.2089 47.9941 86.1991 48.1796L85.9306 48.1991C85.9306 47.8671 85.9631 47.5595 86.0282 47.2763C86.0933 46.9931 86.191 46.7441 86.3212 46.5292C86.4546 46.3144 86.6207 46.1467 86.8192 46.0263C87.0211 45.9058 87.2538 45.8456 87.5175 45.8456C87.5891 45.8456 87.6656 45.8521 87.747 45.8652C87.8316 45.8782 87.8951 45.8928 87.9374 45.9091ZM89.8515 47.0175V51.2265H88.6747V45.9433H89.7831L89.8515 47.0175ZM89.661 48.3896L89.2606 48.3847C89.2606 48.0201 89.3062 47.6832 89.3974 47.3739C89.4885 47.0647 89.622 46.7961 89.7977 46.5683C89.9735 46.3372 90.1916 46.1597 90.452 46.036C90.7157 45.9091 91.0201 45.8456 91.3651 45.8456C91.606 45.8456 91.8257 45.8814 92.0243 45.953C92.2261 46.0214 92.4003 46.1305 92.5468 46.2802C92.6965 46.4299 92.8104 46.622 92.8886 46.8564C92.9699 47.0907 93.0106 47.3739 93.0106 47.706V51.2265H91.8339V47.8085C91.8339 47.5513 91.7948 47.3495 91.7167 47.203C91.6418 47.0566 91.5328 46.9524 91.3895 46.8905C91.2496 46.8254 91.0819 46.7929 90.8866 46.7929C90.6653 46.7929 90.4765 46.8352 90.3202 46.9198C90.1672 47.0045 90.0419 47.12 89.9442 47.2665C89.8466 47.413 89.775 47.5823 89.7294 47.7743C89.6838 47.9664 89.661 48.1715 89.661 48.3896ZM92.9374 48.0771L92.3856 48.1991C92.3856 47.8801 92.4296 47.579 92.5175 47.2958C92.6086 47.0094 92.7405 46.7587 92.913 46.5439C93.0888 46.3258 93.3052 46.1549 93.5624 46.0312C93.8196 45.9075 94.1142 45.8456 94.4462 45.8456C94.7164 45.8456 94.9573 45.8831 95.1688 45.9579C95.3837 46.0295 95.566 46.1435 95.7157 46.2997C95.8655 46.456 95.9794 46.6594 96.0575 46.9101C96.1356 47.1575 96.1747 47.4569 96.1747 47.8085V51.2265H94.9931V47.8036C94.9931 47.5367 94.954 47.33 94.8759 47.1835C94.801 47.037 94.6936 46.9361 94.5536 46.8808C94.4136 46.8222 94.246 46.7929 94.0507 46.7929C93.8684 46.7929 93.7073 46.8271 93.5673 46.8954C93.4306 46.9605 93.315 47.0533 93.2206 47.1737C93.1262 47.2909 93.0546 47.426 93.0058 47.579C92.9602 47.732 92.9374 47.898 92.9374 48.0771ZM103.02 44.0927V51.2265H101.844V45.4892L100.1 46.08V45.1083L102.879 44.0927H103.02Z"
    fill="white"
  />
  <path
    d="M47.0879 27.1503H45.1885V26.3837H47.0879C47.4558 26.3837 47.7536 26.3251 47.9815 26.2079C48.2093 26.0907 48.3754 25.9279 48.4795 25.7196C48.5869 25.5113 48.6407 25.2736 48.6407 25.0067C48.6407 24.7626 48.5869 24.5331 48.4795 24.3182C48.3754 24.1034 48.2093 23.9309 47.9815 23.8006C47.7536 23.6672 47.4558 23.6005 47.0879 23.6005H45.4082V29.9383H44.4659V22.829H47.0879C47.625 22.829 48.0791 22.9217 48.4502 23.1073C48.8213 23.2928 49.1029 23.55 49.295 23.8788C49.487 24.2043 49.583 24.577 49.583 24.9969C49.583 25.4527 49.487 25.8417 49.295 26.1639C49.1029 26.4862 48.8213 26.732 48.4502 26.9012C48.0791 27.0673 47.625 27.1503 47.0879 27.1503ZM51.6192 22.4383V29.9383H50.711V22.4383H51.6192ZM55.2617 30.036C54.8939 30.036 54.5603 29.9742 54.2608 29.8505C53.9645 29.7235 53.709 29.5461 53.4942 29.3182C53.2826 29.0904 53.1198 28.8202 53.0059 28.5077C52.892 28.1952 52.835 27.8534 52.835 27.4823V27.2772C52.835 26.8475 52.8985 26.465 53.0254 26.1298C53.1524 25.7912 53.3249 25.5048 53.543 25.2704C53.7611 25.036 54.0085 24.8586 54.2852 24.7381C54.5619 24.6177 54.8483 24.5575 55.1446 24.5575C55.5222 24.5575 55.8477 24.6226 56.1211 24.7528C56.3978 24.883 56.6241 25.0653 56.7998 25.2997C56.9756 25.5308 57.1058 25.8042 57.1905 26.12C57.2751 26.4325 57.3174 26.7743 57.3174 27.1454V27.5506H53.3721V26.8133H56.4141V26.745C56.4011 26.5106 56.3522 26.2827 56.2676 26.0614C56.1862 25.84 56.056 25.6577 55.877 25.5145C55.6979 25.3713 55.4538 25.2997 55.1446 25.2997C54.9395 25.2997 54.7507 25.3436 54.5782 25.4315C54.4056 25.5161 54.2575 25.6431 54.1338 25.8124C54.0101 25.9816 53.9141 26.1883 53.8457 26.4325C53.7774 26.6766 53.7432 26.9582 53.7432 27.2772V27.4823C53.7432 27.7329 53.7774 27.9689 53.8457 28.1903C53.9173 28.4084 54.0199 28.6005 54.1534 28.7665C54.2901 28.9325 54.4545 29.0627 54.6465 29.1571C54.8418 29.2515 55.0632 29.2987 55.3106 29.2987C55.6296 29.2987 55.8998 29.2336 56.1211 29.1034C56.3425 28.9732 56.5362 28.799 56.7022 28.5809L57.2491 29.0155C57.1351 29.188 56.9903 29.3524 56.8145 29.5087C56.6387 29.6649 56.4222 29.7919 56.1651 29.8895C55.9112 29.9872 55.6101 30.036 55.2617 30.036ZM61.4873 29.035V26.3153C61.4873 26.107 61.445 25.9263 61.3604 25.7733C61.279 25.6171 61.1553 25.4966 60.9893 25.412C60.8233 25.3273 60.6182 25.285 60.3741 25.285C60.1462 25.285 59.946 25.3241 59.7735 25.4022C59.6042 25.4803 59.4707 25.5829 59.3731 25.7098C59.2787 25.8368 59.2315 25.9735 59.2315 26.12H58.3282C58.3282 25.9312 58.377 25.744 58.4746 25.5585C58.5723 25.3729 58.7123 25.2053 58.8946 25.0555C59.0801 24.9025 59.3015 24.7821 59.5586 24.6942C59.819 24.6031 60.1088 24.5575 60.4278 24.5575C60.8119 24.5575 61.1504 24.6226 61.4434 24.7528C61.7396 24.883 61.9707 25.0799 62.1367 25.3436C62.306 25.604 62.3907 25.9312 62.3907 26.3251V28.786C62.3907 28.9618 62.4053 29.149 62.4346 29.3475C62.4672 29.5461 62.5144 29.717 62.5762 29.8602V29.9383H61.6338C61.5882 29.8342 61.5524 29.6958 61.5264 29.5233C61.5004 29.3475 61.4873 29.1848 61.4873 29.035ZM61.6436 26.7352L61.6534 27.37H60.7403C60.4831 27.37 60.2536 27.3911 60.0518 27.4335C59.85 27.4725 59.6807 27.5327 59.544 27.6141C59.4073 27.6955 59.3031 27.798 59.2315 27.9217C59.1599 28.0422 59.1241 28.1838 59.1241 28.3465C59.1241 28.5126 59.1615 28.6639 59.2364 28.8006C59.3112 28.9374 59.4235 29.0464 59.5733 29.1278C59.7263 29.2059 59.9134 29.245 60.1348 29.245C60.4115 29.245 60.6556 29.1864 60.8672 29.0692C61.0788 28.952 61.2464 28.8088 61.3701 28.6395C61.4971 28.4702 61.5655 28.3059 61.5752 28.1464L61.961 28.5809C61.9382 28.7176 61.8763 28.869 61.7754 29.035C61.6745 29.201 61.5394 29.3605 61.3701 29.5135C61.2041 29.6633 61.0056 29.7886 60.7744 29.8895C60.5466 29.9872 60.2894 30.036 60.003 30.036C59.6449 30.036 59.3308 29.966 59.0606 29.826C58.7937 29.6861 58.5853 29.4989 58.4356 29.2645C58.2891 29.0269 58.2159 28.7616 58.2159 28.4686C58.2159 28.1854 58.2712 27.9364 58.3819 27.7215C58.4925 27.5034 58.652 27.3228 58.8604 27.1796C59.0687 27.0331 59.3194 26.9224 59.6123 26.8475C59.9053 26.7727 60.2325 26.7352 60.5938 26.7352H61.6436ZM66.8877 28.537C66.8877 28.4068 66.8584 28.2863 66.7998 28.1756C66.7445 28.0617 66.6289 27.9592 66.4532 27.868C66.2806 27.7736 66.0202 27.6923 65.6719 27.6239C65.3789 27.562 65.1136 27.4888 64.876 27.4042C64.6416 27.3195 64.4414 27.217 64.2754 27.0965C64.1127 26.9761 63.9873 26.8345 63.8994 26.6717C63.8116 26.509 63.7676 26.3186 63.7676 26.1005C63.7676 25.8921 63.8132 25.6952 63.9043 25.5096C63.9987 25.3241 64.1306 25.1597 64.2998 25.0165C64.4724 24.8732 64.6791 24.7609 64.92 24.6796C65.1608 24.5982 65.4294 24.5575 65.7256 24.5575C66.1488 24.5575 66.5101 24.6324 66.8096 24.7821C67.1091 24.9318 67.3386 25.132 67.4981 25.3827C67.6576 25.6301 67.7373 25.9051 67.7373 26.2079H66.834C66.834 26.0614 66.7901 25.9198 66.7022 25.7831C66.6175 25.6431 66.4922 25.5275 66.3262 25.4364C66.1634 25.3452 65.9632 25.2997 65.7256 25.2997C65.475 25.2997 65.2715 25.3387 65.1153 25.4169C64.9623 25.4917 64.85 25.5878 64.7784 25.7049C64.71 25.8221 64.6758 25.9458 64.6758 26.076C64.6758 26.1737 64.6921 26.2616 64.7246 26.3397C64.7604 26.4146 64.8223 26.4846 64.9102 26.5497C64.9981 26.6115 65.1218 26.6701 65.2813 26.7255C65.4408 26.7808 65.6442 26.8361 65.8916 26.8915C66.3246 26.9891 66.681 27.1063 66.961 27.243C67.2409 27.3798 67.4492 27.5474 67.586 27.746C67.7227 27.9445 67.791 28.1854 67.791 28.4686C67.791 28.6997 67.7422 28.9113 67.6446 29.1034C67.5502 29.2954 67.4118 29.4615 67.2295 29.6014C67.0505 29.7381 66.8356 29.8456 66.585 29.9237C66.3376 29.9986 66.0593 30.036 65.75 30.036C65.2845 30.036 64.8907 29.953 64.5684 29.787C64.2461 29.621 64.002 29.4061 63.836 29.1424C63.67 28.8788 63.5869 28.6005 63.5869 28.3075H64.4951C64.5082 28.5549 64.5798 28.7518 64.71 28.8983C64.8402 29.0415 64.9997 29.1441 65.1885 29.2059C65.3773 29.2645 65.5645 29.2938 65.75 29.2938C65.9974 29.2938 66.2041 29.2613 66.3701 29.1962C66.5394 29.1311 66.668 29.0415 66.7559 28.9276C66.8438 28.8137 66.8877 28.6835 66.8877 28.537ZM71.17 30.036C70.8021 30.036 70.4685 29.9742 70.169 29.8505C69.8728 29.7235 69.6172 29.5461 69.4024 29.3182C69.1908 29.0904 69.028 28.8202 68.9141 28.5077C68.8002 28.1952 68.7432 27.8534 68.7432 27.4823V27.2772C68.7432 26.8475 68.8067 26.465 68.9336 26.1298C69.0606 25.7912 69.2331 25.5048 69.4512 25.2704C69.6693 25.036 69.9167 24.8586 70.1934 24.7381C70.4701 24.6177 70.7565 24.5575 71.0528 24.5575C71.4304 24.5575 71.7559 24.6226 72.0293 24.7528C72.306 24.883 72.5323 25.0653 72.708 25.2997C72.8838 25.5308 73.014 25.8042 73.0987 26.12C73.1833 26.4325 73.2256 26.7743 73.2256 27.1454V27.5506H69.2803V26.8133H72.3223V26.745C72.3093 26.5106 72.2604 26.2827 72.1758 26.0614C72.0944 25.84 71.9642 25.6577 71.7852 25.5145C71.6062 25.3713 71.362 25.2997 71.0528 25.2997C70.8477 25.2997 70.6589 25.3436 70.4864 25.4315C70.3138 25.5161 70.1657 25.6431 70.042 25.8124C69.9183 25.9816 69.8223 26.1883 69.7539 26.4325C69.6856 26.6766 69.6514 26.9582 69.6514 27.2772V27.4823C69.6514 27.7329 69.6856 27.9689 69.7539 28.1903C69.8256 28.4084 69.9281 28.6005 70.0616 28.7665C70.1983 28.9325 70.3627 29.0627 70.5547 29.1571C70.75 29.2515 70.9714 29.2987 71.2188 29.2987C71.5378 29.2987 71.808 29.2336 72.0293 29.1034C72.2507 28.9732 72.4444 28.799 72.6104 28.5809L73.1573 29.0155C73.0433 29.188 72.8985 29.3524 72.7227 29.5087C72.5469 29.6649 72.3304 29.7919 72.0733 29.8895C71.8194 29.9872 71.5183 30.036 71.17 30.036ZM77.9668 29.9383H77.0635V24.1962C77.0635 23.7958 77.1416 23.4572 77.2979 23.1805C77.4541 22.9038 77.6771 22.6939 77.9668 22.5506C78.2565 22.4074 78.6 22.3358 78.9971 22.3358C79.2315 22.3358 79.461 22.3651 79.6856 22.4237C79.9102 22.479 80.1413 22.549 80.3789 22.6337L80.2276 23.3954C80.0778 23.3368 79.9037 23.2814 79.7051 23.2294C79.5098 23.174 79.295 23.1464 79.0606 23.1464C78.6732 23.1464 78.3933 23.2342 78.2207 23.41C78.0515 23.5826 77.9668 23.8446 77.9668 24.1962V29.9383ZM79.0459 24.6551V25.3485H76.2285V24.6551H79.0459ZM80.8233 24.6551V29.9383H79.92V24.6551H80.8233ZM83.2891 22.4383V29.9383H82.3809V22.4383H83.2891ZM85.7207 22.4383V29.9383H84.8125V22.4383H85.7207ZM89.4121 27.3553V27.243C89.4121 26.8622 89.4675 26.509 89.5782 26.1835C89.6888 25.8547 89.8483 25.5699 90.0567 25.329C90.265 25.0848 90.5173 24.896 90.8135 24.7626C91.1097 24.6258 91.4418 24.5575 91.8096 24.5575C92.1807 24.5575 92.5144 24.6258 92.8106 24.7626C93.1101 24.896 93.364 25.0848 93.5723 25.329C93.7839 25.5699 93.945 25.8547 94.0557 26.1835C94.1664 26.509 94.2217 26.8622 94.2217 27.243V27.3553C94.2217 27.7362 94.1664 28.0894 94.0557 28.4149C93.945 28.7404 93.7839 29.0253 93.5723 29.2694C93.364 29.5103 93.1117 29.6991 92.8155 29.8358C92.5225 29.9693 92.1905 30.036 91.8194 30.036C91.4483 30.036 91.1146 29.9693 90.8184 29.8358C90.5222 29.6991 90.2683 29.5103 90.0567 29.2694C89.8483 29.0253 89.6888 28.7404 89.5782 28.4149C89.4675 28.0894 89.4121 27.7362 89.4121 27.3553ZM90.3155 27.243V27.3553C90.3155 27.619 90.3464 27.868 90.4082 28.1024C90.4701 28.3335 90.5629 28.5386 90.6866 28.7176C90.8135 28.8967 90.9714 29.0383 91.1602 29.1424C91.349 29.2434 91.5687 29.2938 91.8194 29.2938C92.0668 29.2938 92.2832 29.2434 92.4688 29.1424C92.6576 29.0383 92.8138 28.8967 92.9375 28.7176C93.0612 28.5386 93.154 28.3335 93.2159 28.1024C93.281 27.868 93.3135 27.619 93.3135 27.3553V27.243C93.3135 26.9826 93.281 26.7368 93.2159 26.5057C93.154 26.2714 93.0596 26.0646 92.9326 25.8856C92.8089 25.7033 92.6527 25.5601 92.4639 25.4559C92.2784 25.3518 92.0603 25.2997 91.8096 25.2997C91.5622 25.2997 91.3441 25.3518 91.1553 25.4559C90.9698 25.5601 90.8135 25.7033 90.6866 25.8856C90.5629 26.0646 90.4701 26.2714 90.4082 26.5057C90.3464 26.7368 90.3155 26.9826 90.3155 27.243ZM98.5869 28.7176V24.6551H99.4951V29.9383H98.6309L98.5869 28.7176ZM98.7578 27.6044L99.1338 27.5946C99.1338 27.9462 99.0964 28.2717 99.0215 28.5712C98.9499 28.8674 98.8327 29.1245 98.67 29.3426C98.5072 29.5607 98.294 29.7316 98.0303 29.8553C97.7666 29.9758 97.446 30.036 97.0684 30.036C96.8112 30.036 96.5752 29.9986 96.3604 29.9237C96.1488 29.8488 95.9665 29.7333 95.8135 29.577C95.6605 29.4208 95.5417 29.2173 95.4571 28.9667C95.3757 28.716 95.335 28.4149 95.335 28.0633V24.6551H96.2383V28.0731C96.2383 28.3107 96.2644 28.5077 96.3164 28.6639C96.3718 28.8169 96.445 28.939 96.5362 29.0301C96.6306 29.118 96.7347 29.1799 96.8487 29.2157C96.9659 29.2515 97.0863 29.2694 97.21 29.2694C97.5941 29.2694 97.8985 29.1962 98.1231 29.0497C98.3477 28.8999 98.5088 28.6997 98.6065 28.4491C98.7074 28.1952 98.7578 27.9136 98.7578 27.6044ZM103.084 24.6551V25.3485H100.228V24.6551H103.084ZM101.194 23.371H102.098V28.6298C102.098 28.8088 102.125 28.9439 102.181 29.035C102.236 29.1262 102.308 29.1864 102.396 29.2157C102.483 29.245 102.578 29.2596 102.679 29.2596C102.754 29.2596 102.832 29.2531 102.913 29.2401C102.998 29.2238 103.061 29.2108 103.104 29.201L103.108 29.9383C103.037 29.9611 102.942 29.9823 102.825 30.0018C102.711 30.0246 102.573 30.036 102.41 30.036C102.189 30.036 101.985 29.9921 101.8 29.9042C101.614 29.8163 101.466 29.6698 101.355 29.4647C101.248 29.2564 101.194 28.9764 101.194 28.6249V23.371ZM108.836 24.6551V25.3485H105.98V24.6551H108.836ZM106.946 23.371H107.85V28.6298C107.85 28.8088 107.877 28.9439 107.933 29.035C107.988 29.1262 108.06 29.1864 108.147 29.2157C108.235 29.245 108.33 29.2596 108.431 29.2596C108.506 29.2596 108.584 29.2531 108.665 29.2401C108.75 29.2238 108.813 29.2108 108.855 29.201L108.86 29.9383C108.789 29.9611 108.694 29.9823 108.577 30.0018C108.463 30.0246 108.325 30.036 108.162 30.036C107.941 30.036 107.737 29.9921 107.552 29.9042C107.366 29.8163 107.218 29.6698 107.107 29.4647C107 29.2564 106.946 28.9764 106.946 28.6249V23.371ZM110.799 22.4383V29.9383H109.896V22.4383H110.799ZM110.584 27.0965L110.208 27.0819C110.211 26.7206 110.265 26.3869 110.369 26.0809C110.473 25.7717 110.62 25.5031 110.809 25.2753C110.997 25.0474 111.222 24.8716 111.482 24.7479C111.746 24.621 112.037 24.5575 112.356 24.5575C112.617 24.5575 112.851 24.5933 113.06 24.6649C113.268 24.7333 113.445 24.8439 113.592 24.9969C113.742 25.1499 113.855 25.3485 113.934 25.5926C114.012 25.8335 114.051 26.1281 114.051 26.4764V29.9383H113.143V26.4667C113.143 26.19 113.102 25.9686 113.021 25.8026C112.939 25.6333 112.82 25.5113 112.664 25.4364C112.508 25.3583 112.316 25.3192 112.088 25.3192C111.863 25.3192 111.658 25.3664 111.473 25.4608C111.29 25.5552 111.133 25.6854 110.999 25.8514C110.869 26.0174 110.766 26.2079 110.691 26.4227C110.62 26.6343 110.584 26.8589 110.584 27.0965ZM117.596 30.036C117.228 30.036 116.894 29.9742 116.595 29.8505C116.299 29.7235 116.043 29.5461 115.828 29.3182C115.617 29.0904 115.454 28.8202 115.34 28.5077C115.226 28.1952 115.169 27.8534 115.169 27.4823V27.2772C115.169 26.8475 115.232 26.465 115.359 26.1298C115.486 25.7912 115.659 25.5048 115.877 25.2704C116.095 25.036 116.342 24.8586 116.619 24.7381C116.896 24.6177 117.182 24.5575 117.479 24.5575C117.856 24.5575 118.182 24.6226 118.455 24.7528C118.732 24.883 118.958 25.0653 119.134 25.2997C119.31 25.5308 119.44 25.8042 119.524 26.12C119.609 26.4325 119.651 26.7743 119.651 27.1454V27.5506H115.706V26.8133H118.748V26.745C118.735 26.5106 118.686 26.2827 118.602 26.0614C118.52 25.84 118.39 25.6577 118.211 25.5145C118.032 25.3713 117.788 25.2997 117.479 25.2997C117.273 25.2997 117.085 25.3436 116.912 25.4315C116.74 25.5161 116.592 25.6431 116.468 25.8124C116.344 25.9816 116.248 26.1883 116.18 26.4325C116.111 26.6766 116.077 26.9582 116.077 27.2772V27.4823C116.077 27.7329 116.111 27.9689 116.18 28.1903C116.251 28.4084 116.354 28.6005 116.487 28.7665C116.624 28.9325 116.788 29.0627 116.98 29.1571C117.176 29.2515 117.397 29.2987 117.645 29.2987C117.964 29.2987 118.234 29.2336 118.455 29.1034C118.676 28.9732 118.87 28.799 119.036 28.5809L119.583 29.0155C119.469 29.188 119.324 29.3524 119.148 29.5087C118.973 29.6649 118.756 29.7919 118.499 29.8895C118.245 29.9872 117.944 30.036 117.596 30.036ZM124.534 29.9383H123.631V24.0985C123.631 23.7176 123.699 23.397 123.836 23.1366C123.976 22.8729 124.176 22.6743 124.437 22.5409C124.697 22.4042 125.006 22.3358 125.364 22.3358C125.468 22.3358 125.573 22.3423 125.677 22.3553C125.784 22.3684 125.888 22.3879 125.989 22.4139L125.94 23.1512C125.872 23.135 125.794 23.1236 125.706 23.1171C125.621 23.1105 125.537 23.1073 125.452 23.1073C125.26 23.1073 125.094 23.1464 124.954 23.2245C124.817 23.2993 124.713 23.41 124.642 23.5565C124.57 23.703 124.534 23.8837 124.534 24.0985V29.9383ZM125.657 24.6551V25.3485H122.796V24.6551H125.657ZM126.424 27.3553V27.243C126.424 26.8622 126.479 26.509 126.59 26.1835C126.701 25.8547 126.86 25.5699 127.068 25.329C127.277 25.0848 127.529 24.896 127.825 24.7626C128.121 24.6258 128.453 24.5575 128.821 24.5575C129.192 24.5575 129.526 24.6258 129.822 24.7626C130.122 24.896 130.376 25.0848 130.584 25.329C130.796 25.5699 130.957 25.8547 131.067 26.1835C131.178 26.509 131.233 26.8622 131.233 27.243V27.3553C131.233 27.7362 131.178 28.0894 131.067 28.4149C130.957 28.7404 130.796 29.0253 130.584 29.2694C130.376 29.5103 130.123 29.6991 129.827 29.8358C129.534 29.9693 129.202 30.036 128.831 30.036C128.46 30.036 128.126 29.9693 127.83 29.8358C127.534 29.6991 127.28 29.5103 127.068 29.2694C126.86 29.0253 126.701 28.7404 126.59 28.4149C126.479 28.0894 126.424 27.7362 126.424 27.3553ZM127.327 27.243V27.3553C127.327 27.619 127.358 27.868 127.42 28.1024C127.482 28.3335 127.575 28.5386 127.698 28.7176C127.825 28.8967 127.983 29.0383 128.172 29.1424C128.361 29.2434 128.58 29.2938 128.831 29.2938C129.078 29.2938 129.295 29.2434 129.48 29.1424C129.669 29.0383 129.826 28.8967 129.949 28.7176C130.073 28.5386 130.166 28.3335 130.228 28.1024C130.293 27.868 130.325 27.619 130.325 27.3553V27.243C130.325 26.9826 130.293 26.7368 130.228 26.5057C130.166 26.2714 130.071 26.0646 129.944 25.8856C129.821 25.7033 129.664 25.5601 129.476 25.4559C129.29 25.3518 129.072 25.2997 128.821 25.2997C128.574 25.2997 128.356 25.3518 128.167 25.4559C127.981 25.5601 127.825 25.7033 127.698 25.8856C127.575 26.0646 127.482 26.2714 127.42 26.5057C127.358 26.7368 127.327 26.9826 127.327 27.243ZM133.27 25.4852V29.9383H132.366V24.6551H133.245L133.27 25.4852ZM134.92 24.6258L134.915 25.4657C134.84 25.4494 134.769 25.4396 134.7 25.4364C134.635 25.4299 134.56 25.4266 134.476 25.4266C134.267 25.4266 134.083 25.4592 133.924 25.5243C133.764 25.5894 133.629 25.6805 133.519 25.7977C133.408 25.9149 133.32 26.0549 133.255 26.2176C133.193 26.3771 133.152 26.5529 133.133 26.745L132.879 26.8915C132.879 26.5725 132.91 26.273 132.972 25.993C133.037 25.7131 133.136 25.4657 133.27 25.2508C133.403 25.0327 133.572 24.8635 133.777 24.743C133.986 24.6193 134.233 24.5575 134.52 24.5575C134.585 24.5575 134.66 24.5656 134.744 24.5819C134.829 24.5949 134.887 24.6096 134.92 24.6258ZM136.653 25.7049V29.9383H135.745V24.6551H136.605L136.653 25.7049ZM136.468 27.0965L136.048 27.0819C136.051 26.7206 136.098 26.3869 136.189 26.0809C136.281 25.7717 136.416 25.5031 136.595 25.2753C136.774 25.0474 136.997 24.8716 137.264 24.7479C137.531 24.621 137.84 24.5575 138.191 24.5575C138.439 24.5575 138.667 24.5933 138.875 24.6649C139.083 24.7333 139.264 24.8423 139.417 24.9921C139.57 25.1418 139.689 25.3339 139.773 25.5682C139.858 25.8026 139.9 26.0858 139.9 26.4178V29.9383H138.997V26.4618C138.997 26.1851 138.95 25.9637 138.855 25.7977C138.764 25.6317 138.634 25.5113 138.465 25.4364C138.296 25.3583 138.097 25.3192 137.869 25.3192C137.602 25.3192 137.379 25.3664 137.2 25.4608C137.021 25.5552 136.878 25.6854 136.771 25.8514C136.663 26.0174 136.585 26.2079 136.536 26.4227C136.491 26.6343 136.468 26.8589 136.468 27.0965ZM139.891 26.5985L139.285 26.784C139.288 26.4943 139.336 26.216 139.427 25.9491C139.521 25.6822 139.656 25.4445 139.832 25.2362C140.011 25.0279 140.231 24.8635 140.491 24.743C140.752 24.6193 141.05 24.5575 141.385 24.5575C141.668 24.5575 141.919 24.5949 142.137 24.6698C142.358 24.7447 142.544 24.8602 142.693 25.0165C142.846 25.1695 142.962 25.3664 143.04 25.6073C143.118 25.8482 143.157 26.1346 143.157 26.4667V29.9383H142.249V26.4569C142.249 26.1607 142.202 25.9312 142.107 25.7684C142.016 25.6024 141.886 25.4868 141.717 25.4217C141.551 25.3534 141.352 25.3192 141.121 25.3192C140.923 25.3192 140.747 25.3534 140.594 25.4217C140.441 25.4901 140.312 25.5845 140.208 25.7049C140.104 25.8221 140.024 25.9572 139.969 26.1102C139.917 26.2632 139.891 26.426 139.891 26.5985ZM147.601 28.537C147.601 28.4068 147.571 28.2863 147.513 28.1756C147.457 28.0617 147.342 27.9592 147.166 27.868C146.994 27.7736 146.733 27.6923 146.385 27.6239C146.092 27.562 145.827 27.4888 145.589 27.4042C145.355 27.3195 145.154 27.217 144.988 27.0965C144.826 26.9761 144.7 26.8345 144.612 26.6717C144.524 26.509 144.48 26.3186 144.48 26.1005C144.48 25.8921 144.526 25.6952 144.617 25.5096C144.712 25.3241 144.843 25.1597 145.013 25.0165C145.185 24.8732 145.392 24.7609 145.633 24.6796C145.874 24.5982 146.142 24.5575 146.439 24.5575C146.862 24.5575 147.223 24.6324 147.522 24.7821C147.822 24.9318 148.051 25.132 148.211 25.3827C148.37 25.6301 148.45 25.9051 148.45 26.2079H147.547C147.547 26.0614 147.503 25.9198 147.415 25.7831C147.33 25.6431 147.205 25.5275 147.039 25.4364C146.876 25.3452 146.676 25.2997 146.439 25.2997C146.188 25.2997 145.984 25.3387 145.828 25.4169C145.675 25.4917 145.563 25.5878 145.491 25.7049C145.423 25.8221 145.389 25.9458 145.389 26.076C145.389 26.1737 145.405 26.2616 145.438 26.3397C145.473 26.4146 145.535 26.4846 145.623 26.5497C145.711 26.6115 145.835 26.6701 145.994 26.7255C146.154 26.7808 146.357 26.8361 146.605 26.8915C147.037 26.9891 147.394 27.1063 147.674 27.243C147.954 27.3798 148.162 27.5474 148.299 27.746C148.436 27.9445 148.504 28.1854 148.504 28.4686C148.504 28.6997 148.455 28.9113 148.357 29.1034C148.263 29.2954 148.125 29.4615 147.942 29.6014C147.763 29.7381 147.549 29.8456 147.298 29.9237C147.05 29.9986 146.772 30.036 146.463 30.036C145.997 30.036 145.604 29.953 145.281 29.787C144.959 29.621 144.715 29.4061 144.549 29.1424C144.383 28.8788 144.3 28.6005 144.3 28.3075H145.208C145.221 28.5549 145.293 28.7518 145.423 28.8983C145.553 29.0415 145.713 29.1441 145.901 29.2059C146.09 29.2645 146.277 29.2938 146.463 29.2938C146.71 29.2938 146.917 29.2613 147.083 29.1962C147.252 29.1311 147.381 29.0415 147.469 28.9276C147.557 28.8137 147.601 28.6835 147.601 28.537ZM152.166 22.4383H153.074V28.913L152.996 29.9383H152.166V22.4383ZM156.644 27.2528V27.3553C156.644 27.7395 156.598 28.0959 156.507 28.4247C156.416 28.7502 156.282 29.0334 156.106 29.2743C155.931 29.5152 155.716 29.7023 155.462 29.8358C155.208 29.9693 154.917 30.036 154.588 30.036C154.253 30.036 153.958 29.979 153.704 29.8651C153.453 29.7479 153.242 29.5803 153.069 29.3622C152.897 29.1441 152.758 28.8804 152.654 28.5712C152.553 28.2619 152.483 27.9136 152.444 27.5262V27.077C152.483 26.6864 152.553 26.3365 152.654 26.0272C152.758 25.718 152.897 25.4543 153.069 25.2362C153.242 25.0148 153.453 24.8472 153.704 24.7333C153.955 24.6161 154.246 24.5575 154.578 24.5575C154.91 24.5575 155.205 24.6226 155.462 24.7528C155.719 24.8798 155.934 25.062 156.106 25.2997C156.282 25.5373 156.416 25.8221 156.507 26.1542C156.598 26.4829 156.644 26.8492 156.644 27.2528ZM155.735 27.3553V27.2528C155.735 26.9891 155.711 26.7417 155.662 26.5106C155.613 26.2762 155.535 26.0712 155.428 25.8954C155.32 25.7163 155.179 25.5764 155.003 25.4755C154.827 25.3713 154.611 25.3192 154.354 25.3192C154.126 25.3192 153.927 25.3583 153.758 25.4364C153.592 25.5145 153.45 25.6203 153.333 25.7538C153.216 25.884 153.12 26.0337 153.045 26.203C152.973 26.369 152.92 26.5415 152.884 26.7206V27.8973C152.936 28.1252 153.021 28.3449 153.138 28.5565C153.258 28.7648 153.418 28.9357 153.616 29.0692C153.818 29.2027 154.067 29.2694 154.363 29.2694C154.607 29.2694 154.816 29.2206 154.988 29.1229C155.164 29.022 155.306 28.8837 155.413 28.7079C155.524 28.5321 155.605 28.3286 155.657 28.0975C155.709 27.8664 155.735 27.619 155.735 27.3553ZM159.979 30.036C159.611 30.036 159.277 29.9742 158.978 29.8505C158.681 29.7235 158.426 29.5461 158.211 29.3182C157.999 29.0904 157.837 28.8202 157.723 28.5077C157.609 28.1952 157.552 27.8534 157.552 27.4823V27.2772C157.552 26.8475 157.615 26.465 157.742 26.1298C157.869 25.7912 158.042 25.5048 158.26 25.2704C158.478 25.036 158.725 24.8586 159.002 24.7381C159.279 24.6177 159.565 24.5575 159.861 24.5575C160.239 24.5575 160.564 24.6226 160.838 24.7528C161.115 24.883 161.341 25.0653 161.517 25.2997C161.692 25.5308 161.823 25.8042 161.907 26.12C161.992 26.4325 162.034 26.7743 162.034 27.1454V27.5506H158.089V26.8133H161.131V26.745C161.118 26.5106 161.069 26.2827 160.984 26.0614C160.903 25.84 160.773 25.6577 160.594 25.5145C160.415 25.3713 160.171 25.2997 159.861 25.2997C159.656 25.2997 159.467 25.3436 159.295 25.4315C159.122 25.5161 158.974 25.6431 158.851 25.8124C158.727 25.9816 158.631 26.1883 158.563 26.4325C158.494 26.6766 158.46 26.9582 158.46 27.2772V27.4823C158.46 27.7329 158.494 27.9689 158.563 28.1903C158.634 28.4084 158.737 28.6005 158.87 28.7665C159.007 28.9325 159.171 29.0627 159.363 29.1571C159.559 29.2515 159.78 29.2987 160.027 29.2987C160.346 29.2987 160.617 29.2336 160.838 29.1034C161.059 28.9732 161.253 28.799 161.419 28.5809L161.966 29.0155C161.852 29.188 161.707 29.3524 161.531 29.5087C161.355 29.6649 161.139 29.7919 160.882 29.8895C160.628 29.9872 160.327 30.036 159.979 30.036ZM164.07 22.4383V29.9383H163.162V22.4383H164.07ZM165.281 27.3553V27.243C165.281 26.8622 165.337 26.509 165.447 26.1835C165.558 25.8547 165.717 25.5699 165.926 25.329C166.134 25.0848 166.386 24.896 166.683 24.7626C166.979 24.6258 167.311 24.5575 167.679 24.5575C168.05 24.5575 168.383 24.6258 168.68 24.7626C168.979 24.896 169.233 25.0848 169.441 25.329C169.653 25.5699 169.814 25.8547 169.925 26.1835C170.036 26.509 170.091 26.8622 170.091 27.243V27.3553C170.091 27.7362 170.036 28.0894 169.925 28.4149C169.814 28.7404 169.653 29.0253 169.441 29.2694C169.233 29.5103 168.981 29.6991 168.685 29.8358C168.392 29.9693 168.06 30.036 167.689 30.036C167.317 30.036 166.984 29.9693 166.688 29.8358C166.391 29.6991 166.137 29.5103 165.926 29.2694C165.717 29.0253 165.558 28.7404 165.447 28.4149C165.337 28.0894 165.281 27.7362 165.281 27.3553ZM166.185 27.243V27.3553C166.185 27.619 166.216 27.868 166.277 28.1024C166.339 28.3335 166.432 28.5386 166.556 28.7176C166.683 28.8967 166.841 29.0383 167.029 29.1424C167.218 29.2434 167.438 29.2938 167.689 29.2938C167.936 29.2938 168.152 29.2434 168.338 29.1424C168.527 29.0383 168.683 28.8967 168.807 28.7176C168.93 28.5386 169.023 28.3335 169.085 28.1024C169.15 27.868 169.183 27.619 169.183 27.3553V27.243C169.183 26.9826 169.15 26.7368 169.085 26.5057C169.023 26.2714 168.929 26.0646 168.802 25.8856C168.678 25.7033 168.522 25.5601 168.333 25.4559C168.147 25.3518 167.929 25.2997 167.679 25.2997C167.431 25.2997 167.213 25.3518 167.024 25.4559C166.839 25.5601 166.683 25.7033 166.556 25.8856C166.432 26.0646 166.339 26.2714 166.277 26.5057C166.216 26.7368 166.185 26.9826 166.185 27.243ZM172.562 29.0008L173.919 24.6551H174.515L174.397 25.5194L173.016 29.9383H172.435L172.562 29.0008ZM171.648 24.6551L172.806 29.0497L172.889 29.9383H172.278L170.745 24.6551H171.648ZM175.814 29.0155L176.917 24.6551H177.815L176.282 29.9383H175.677L175.814 29.0155ZM174.647 24.6551L175.975 28.9276L176.126 29.9383H175.55L174.129 25.5096L174.012 24.6551H174.647ZM179.817 22.829L179.754 27.9315H178.939L178.87 22.829H179.817ZM178.841 29.4842C178.841 29.3378 178.885 29.2141 178.973 29.1131C179.064 29.0122 179.197 28.9618 179.373 28.9618C179.546 28.9618 179.677 29.0122 179.769 29.1131C179.863 29.2141 179.91 29.3378 179.91 29.4842C179.91 29.6242 179.863 29.7447 179.769 29.8456C179.677 29.9465 179.546 29.9969 179.373 29.9969C179.197 29.9969 179.064 29.9465 178.973 29.8456C178.885 29.7447 178.841 29.6242 178.841 29.4842Z"
    fill="#DBDEE1"
    fill-opacity="0.8"
  />
</svg>