<svg
    viewBox="0 0 150 53"
    fill="none"
    xmlns="http://www.w3.org/2000/svg"
>
    <rect width="150" height="53" rx="4" fill="#36393F" />
    <rect
        x="5"
        y="5"
        width="21.4507"
        height="21.4507"
        rx="10.7253"
        fill="#616AF2"
    />
    <circle
        cx="10.9591"
        cy="12.7862"
        r="1.02738"
        fill="white"
    />
    <circle
        cx="10.9591"
        cy="18.9505"
        r="1.02738"
        fill="white"
    />
    <circle
        cx="10.9591"
        cy="15.8684"
        r="1.02738"
        fill="white"
    />
    <rect
        x="13.0138"
        y="12.0156"
        width="7.96222"
        height="1.54108"
        rx="0.770538"
        fill="white"
    />
    <rect
        x="13.0138"
        y="15.0978"
        width="7.44853"
        height="1.54108"
        rx="0.770538"
        fill="white"
    />
    <rect
        x="13.0138"
        y="18.18"
        width="8.21907"
        height="1.54108"
        rx="0.770538"
        fill="white"
    />
    <path
        d="M34.7596 7.84467V13.5322H34.0057V7.84467H34.7596ZM37.1424 10.4033V11.0205H34.5955V10.4033H37.1424ZM37.5291 7.84467V8.46186H34.5955V7.84467H37.5291ZM38.0408 11.4658V11.3759C38.0408 11.0712 38.0851 10.7887 38.1736 10.5283C38.2622 10.2652 38.3898 10.0374 38.5564 9.84467C38.7231 9.64936 38.9249 9.49832 39.1619 9.39155C39.3989 9.28217 39.6645 9.22749 39.9588 9.22749C40.2557 9.22749 40.5226 9.28217 40.7596 9.39155C40.9992 9.49832 41.2023 9.64936 41.3689 9.84467C41.5382 10.0374 41.6671 10.2652 41.7557 10.5283C41.8442 10.7887 41.8885 11.0712 41.8885 11.3759V11.4658C41.8885 11.7705 41.8442 12.053 41.7557 12.3134C41.6671 12.5738 41.5382 12.8017 41.3689 12.997C41.2023 13.1897 41.0005 13.3408 40.7635 13.4501C40.5291 13.5569 40.2635 13.6103 39.9666 13.6103C39.6697 13.6103 39.4028 13.5569 39.1658 13.4501C38.9288 13.3408 38.7257 13.1897 38.5564 12.997C38.3898 12.8017 38.2622 12.5738 38.1736 12.3134C38.0851 12.053 38.0408 11.7705 38.0408 11.4658ZM38.7635 11.3759V11.4658C38.7635 11.6767 38.7882 11.8759 38.8377 12.0634C38.8872 12.2483 38.9614 12.4124 39.0603 12.5556C39.1619 12.6988 39.2882 12.8121 39.4393 12.8955C39.5903 12.9762 39.7661 13.0165 39.9666 13.0165C40.1645 13.0165 40.3377 12.9762 40.4861 12.8955C40.6372 12.8121 40.7622 12.6988 40.8611 12.5556C40.9601 12.4124 41.0343 12.2483 41.0838 12.0634C41.1359 11.8759 41.1619 11.6767 41.1619 11.4658V11.3759C41.1619 11.1676 41.1359 10.971 41.0838 10.7861C41.0343 10.5986 40.9588 10.4332 40.8572 10.29C40.7583 10.1442 40.6333 10.0296 40.4822 9.94624C40.3338 9.8629 40.1593 9.82124 39.9588 9.82124C39.7609 9.82124 39.5864 9.8629 39.4353 9.94624C39.2869 10.0296 39.1619 10.1442 39.0603 10.29C38.9614 10.4332 38.8872 10.5986 38.8377 10.7861C38.7882 10.971 38.7635 11.1676 38.7635 11.3759ZM43.5174 9.96967V13.5322H42.7947V9.30561H43.4978L43.5174 9.96967ZM44.8377 9.28217L44.8338 9.95405C44.7739 9.94103 44.7166 9.93321 44.6619 9.93061C44.6098 9.9254 44.5499 9.9228 44.4822 9.9228C44.3156 9.9228 44.1684 9.94884 44.0408 10.0009C43.9132 10.053 43.8051 10.1259 43.7166 10.2197C43.6281 10.3134 43.5577 10.4254 43.5057 10.5556C43.4562 10.6832 43.4236 10.8238 43.408 10.9775L43.2049 11.0947C43.2049 10.8395 43.2296 10.5999 43.2791 10.3759C43.3312 10.152 43.4106 9.95405 43.5174 9.78217C43.6242 9.60769 43.7596 9.47228 43.9236 9.37592C44.0903 9.27696 44.2882 9.22749 44.5174 9.22749C44.5695 9.22749 44.6294 9.234 44.6971 9.24702C44.7648 9.25743 44.8117 9.26915 44.8377 9.28217ZM46.2244 10.1455V13.5322H45.4978V9.30561H46.1853L46.2244 10.1455ZM46.076 11.2587L45.74 11.247C45.7426 10.958 45.7804 10.691 45.8533 10.4462C45.9262 10.1988 46.0343 9.984 46.1775 9.8017C46.3208 9.61941 46.4992 9.47879 46.7127 9.37983C46.9262 9.27827 47.1736 9.22749 47.4549 9.22749C47.6528 9.22749 47.8351 9.25613 48.0018 9.31342C48.1684 9.36811 48.313 9.45535 48.4353 9.57514C48.5577 9.69493 48.6528 9.84858 48.7205 10.0361C48.7882 10.2236 48.8221 10.4501 48.8221 10.7158V13.5322H48.0994V10.7509C48.0994 10.5296 48.0617 10.3525 47.9861 10.2197C47.9132 10.0869 47.809 9.99051 47.6736 9.93061C47.5382 9.86811 47.3794 9.83686 47.1971 9.83686C46.9835 9.83686 46.8051 9.87462 46.6619 9.95014C46.5187 10.0257 46.4041 10.1298 46.3182 10.2626C46.2322 10.3955 46.1697 10.5478 46.1307 10.7197C46.0942 10.8889 46.076 11.0686 46.076 11.2587ZM48.8143 10.8603L48.3299 11.0087C48.3325 10.777 48.3702 10.5543 48.4432 10.3408C48.5187 10.1272 48.6268 9.93712 48.7674 9.77045C48.9106 9.60379 49.0864 9.47228 49.2947 9.37592C49.5031 9.27696 49.7413 9.22749 50.0096 9.22749C50.2361 9.22749 50.4367 9.25743 50.6111 9.31733C50.7882 9.37723 50.9367 9.46967 51.0564 9.59467C51.1788 9.71707 51.2713 9.87462 51.3338 10.0673C51.3963 10.26 51.4275 10.4892 51.4275 10.7548V13.5322H50.701V10.747C50.701 10.51 50.6632 10.3264 50.5877 10.1962C50.5148 10.0634 50.4106 9.97098 50.2752 9.91889C50.1424 9.8642 49.9835 9.83686 49.7986 9.83686C49.6398 9.83686 49.4992 9.8642 49.3768 9.91889C49.2544 9.97358 49.1515 10.0491 49.0682 10.1455C48.9848 10.2392 48.921 10.3473 48.8768 10.4697C48.8351 10.5921 48.8143 10.7223 48.8143 10.8603ZM54.9822 12.4111C54.9822 12.3069 54.9588 12.2106 54.9119 12.122C54.8676 12.0309 54.7752 11.9488 54.6346 11.8759C54.4965 11.8004 54.2882 11.7353 54.0096 11.6806C53.7752 11.6311 53.563 11.5725 53.3728 11.5048C53.1853 11.4371 53.0252 11.3551 52.8924 11.2587C52.7622 11.1624 52.6619 11.0491 52.5916 10.9189C52.5213 10.7887 52.4861 10.6363 52.4861 10.4619C52.4861 10.2952 52.5226 10.1376 52.5955 9.9892C52.671 9.84077 52.7765 9.70926 52.9119 9.59467C53.0499 9.48009 53.2153 9.39025 53.408 9.32514C53.6007 9.26004 53.8156 9.22749 54.0525 9.22749C54.3911 9.22749 54.6801 9.28738 54.9197 9.40717C55.1593 9.52696 55.3429 9.68712 55.4705 9.88764C55.5981 10.0856 55.6619 10.3056 55.6619 10.5478H54.9393C54.9393 10.4306 54.9041 10.3173 54.8338 10.208C54.7661 10.096 54.6658 10.0035 54.533 9.93061C54.4028 9.85769 54.2426 9.82124 54.0525 9.82124C53.852 9.82124 53.6893 9.85249 53.5643 9.91499C53.4419 9.97488 53.352 10.0517 53.2947 10.1455C53.24 10.2392 53.2127 10.3382 53.2127 10.4423C53.2127 10.5205 53.2257 10.5908 53.2518 10.6533C53.2804 10.7132 53.3299 10.7692 53.4002 10.8212C53.4705 10.8707 53.5695 10.9176 53.6971 10.9619C53.8247 11.0061 53.9874 11.0504 54.1853 11.0947C54.5317 11.1728 54.8169 11.2665 55.0408 11.3759C55.2648 11.4853 55.4314 11.6194 55.5408 11.7783C55.6502 11.9371 55.7049 12.1298 55.7049 12.3564C55.7049 12.5413 55.6658 12.7106 55.5877 12.8642C55.5122 13.0179 55.4015 13.1507 55.2557 13.2626C55.1124 13.372 54.9406 13.458 54.74 13.5205C54.5421 13.5804 54.3195 13.6103 54.0721 13.6103C53.6997 13.6103 53.3846 13.5439 53.1268 13.4111C52.8689 13.2783 52.6736 13.1064 52.5408 12.8955C52.408 12.6845 52.3416 12.4619 52.3416 12.2275H53.0682C53.0786 12.4254 53.1359 12.583 53.24 12.7001C53.3442 12.8147 53.4718 12.8968 53.6228 12.9462C53.7739 12.9931 53.9236 13.0165 54.0721 13.0165C54.27 13.0165 54.4353 12.9905 54.5682 12.9384C54.7036 12.8863 54.8064 12.8147 54.8768 12.7236C54.9471 12.6324 54.9822 12.5283 54.9822 12.4111Z"
        fill="#5296D5"
    />
    <rect
        x="59.7758"
        y="6.89727"
        width="13.5"
        height="7.91045"
        rx="2"
        fill="#5865F2"
    />
    <path
        d="M63.4051 9.84801L62.3431 12.9291H61.701L63.0389 9.37438H63.4491L63.4051 9.84801ZM64.2938 12.9291L63.2294 9.84801L63.183 9.37438H63.5956L64.9383 12.9291H64.2938ZM64.2425 11.6107V12.0965H62.3089V11.6107H64.2425ZM66.6864 11.6034H65.7611V11.1175H66.6864C66.8475 11.1175 66.9777 11.0915 67.077 11.0394C67.1763 10.9873 67.2487 10.9157 67.2943 10.8246C67.3415 10.7318 67.3651 10.626 67.3651 10.5072C67.3651 10.3949 67.3415 10.2899 67.2943 10.1923C67.2487 10.093 67.1763 10.0132 67.077 9.953C66.9777 9.89277 66.8475 9.86266 66.6864 9.86266H65.9491V12.9291H65.3363V9.37438H66.6864C66.9615 9.37438 67.195 9.42321 67.3871 9.52087C67.5808 9.6169 67.7281 9.75036 67.829 9.92126C67.9299 10.0905 67.9803 10.2842 67.9803 10.5023C67.9803 10.7318 67.9299 10.9287 67.829 11.0931C67.7281 11.2575 67.5808 11.3837 67.3871 11.4715C67.195 11.5594 66.9615 11.6034 66.6864 11.6034ZM69.8797 11.6034H68.9545V11.1175H69.8797C70.0409 11.1175 70.1711 11.0915 70.2704 11.0394C70.3697 10.9873 70.4421 10.9157 70.4877 10.8246C70.5349 10.7318 70.5585 10.626 70.5585 10.5072C70.5585 10.3949 70.5349 10.2899 70.4877 10.1923C70.4421 10.093 70.3697 10.0132 70.2704 9.953C70.1711 9.89277 70.0409 9.86266 69.8797 9.86266H69.1424V12.9291H68.5296V9.37438H69.8797C70.1548 9.37438 70.3884 9.42321 70.5804 9.52087C70.7741 9.6169 70.9214 9.75036 71.0223 9.92126C71.1232 10.0905 71.1737 10.2842 71.1737 10.5023C71.1737 10.7318 71.1232 10.9287 71.0223 11.0931C70.9214 11.2575 70.7741 11.3837 70.5804 11.4715C70.3884 11.5594 70.1548 11.6034 69.8797 11.6034Z"
        fill="white"
    />
    <path
        d="M82.2132 9.00922V13.2983H81.6712V9.68598L80.5784 10.0844V9.59516L82.1282 9.00922H82.2132ZM86.4964 12.144C86.4964 12.4037 86.4358 12.6245 86.3147 12.8061C86.1956 12.9858 86.0335 13.1225 85.8284 13.2162C85.6253 13.31 85.3958 13.3569 85.1399 13.3569C84.8841 13.3569 84.6536 13.31 84.4485 13.2162C84.2435 13.1225 84.0813 12.9858 83.9622 12.8061C83.8431 12.6245 83.7835 12.4037 83.7835 12.144C83.7835 11.9741 83.8157 11.8188 83.8802 11.6782C83.9466 11.5356 84.0394 11.4116 84.1585 11.3061C84.2796 11.2006 84.4222 11.1196 84.5862 11.0629C84.7522 11.0043 84.9349 10.975 85.1341 10.975C85.3958 10.975 85.6292 11.0258 85.8343 11.1274C86.0394 11.227 86.2005 11.3647 86.3177 11.5405C86.4368 11.7162 86.4964 11.9174 86.4964 12.144ZM85.9515 12.1323C85.9515 11.9741 85.9173 11.8344 85.8489 11.7133C85.7806 11.5903 85.6849 11.4946 85.5618 11.4262C85.4388 11.3579 85.2962 11.3237 85.1341 11.3237C84.9681 11.3237 84.8245 11.3579 84.7034 11.4262C84.5843 11.4946 84.4915 11.5903 84.4251 11.7133C84.3587 11.8344 84.3255 11.9741 84.3255 12.1323C84.3255 12.2963 84.3577 12.437 84.4222 12.5541C84.4886 12.6694 84.5823 12.7582 84.7034 12.8207C84.8265 12.8813 84.972 12.9116 85.1399 12.9116C85.3079 12.9116 85.4524 12.8813 85.5735 12.8207C85.6946 12.7582 85.7874 12.6694 85.8519 12.5541C85.9183 12.437 85.9515 12.2963 85.9515 12.1323ZM86.3968 10.143C86.3968 10.35 86.3421 10.5366 86.2327 10.7026C86.1233 10.8686 85.9739 10.9995 85.7845 11.0952C85.595 11.1909 85.3802 11.2387 85.1399 11.2387C84.8958 11.2387 84.678 11.1909 84.4866 11.0952C84.2972 10.9995 84.1487 10.8686 84.0413 10.7026C83.9339 10.5366 83.8802 10.35 83.8802 10.143C83.8802 9.89496 83.9339 9.68402 84.0413 9.51019C84.1507 9.33637 84.3001 9.20355 84.4895 9.11176C84.679 9.01996 84.8948 8.97406 85.137 8.97406C85.3811 8.97406 85.5979 9.01996 85.7874 9.11176C85.9769 9.20355 86.1253 9.33637 86.2327 9.51019C86.3421 9.68402 86.3968 9.89496 86.3968 10.143ZM85.8548 10.1518C85.8548 10.0092 85.8245 9.88324 85.764 9.77387C85.7034 9.66449 85.6194 9.57855 85.512 9.51605C85.4046 9.4516 85.2796 9.41937 85.137 9.41937C84.9944 9.41937 84.8694 9.44965 84.762 9.51019C84.6565 9.56879 84.5735 9.65277 84.513 9.76215C84.4544 9.87152 84.4251 10.0014 84.4251 10.1518C84.4251 10.2983 84.4544 10.4262 84.513 10.5356C84.5735 10.645 84.6575 10.7299 84.7649 10.7905C84.8724 10.851 84.9974 10.8813 85.1399 10.8813C85.2825 10.8813 85.4065 10.851 85.512 10.7905C85.6194 10.7299 85.7034 10.645 85.764 10.5356C85.8245 10.4262 85.8548 10.2983 85.8548 10.1518ZM89.1272 9.03266L87.3489 13.6645H86.8831L88.6644 9.03266H89.1272ZM92.3382 10.8256V11.476C92.3382 11.8256 92.3069 12.1205 92.2444 12.3608C92.1819 12.601 92.0921 12.7944 91.9749 12.9409C91.8577 13.0873 91.7161 13.1938 91.5501 13.2602C91.386 13.3246 91.2005 13.3569 90.9935 13.3569C90.8294 13.3569 90.678 13.3364 90.5394 13.2954C90.4007 13.2543 90.2757 13.1889 90.1644 13.0991C90.055 13.0073 89.9612 12.8881 89.8831 12.7416C89.805 12.5952 89.7454 12.4174 89.7044 12.2084C89.6634 11.9995 89.6429 11.7553 89.6429 11.476V10.8256C89.6429 10.476 89.6741 10.183 89.7366 9.94672C89.8011 9.71039 89.8919 9.52094 90.0091 9.37836C90.1263 9.23383 90.2669 9.13031 90.431 9.06781C90.597 9.00531 90.7825 8.97406 90.9876 8.97406C91.1536 8.97406 91.306 8.99457 91.4446 9.03559C91.5853 9.07465 91.7103 9.13812 91.8196 9.22602C91.929 9.31195 92.0218 9.42719 92.0979 9.57172C92.1761 9.7143 92.2356 9.8891 92.2767 10.0961C92.3177 10.3032 92.3382 10.5463 92.3382 10.8256ZM91.7933 11.5639V10.7348C91.7933 10.5434 91.7815 10.3754 91.7581 10.2309C91.7366 10.0844 91.7044 9.95941 91.6614 9.8559C91.6185 9.75238 91.5638 9.6684 91.4974 9.60394C91.4329 9.53949 91.3577 9.49262 91.2718 9.46332C91.1878 9.43207 91.0931 9.41644 90.9876 9.41644C90.8587 9.41644 90.7444 9.44086 90.6448 9.48969C90.5452 9.53656 90.4612 9.61176 90.3929 9.71527C90.3265 9.81879 90.2757 9.95453 90.2405 10.1225C90.2054 10.2905 90.1878 10.4946 90.1878 10.7348V11.5639C90.1878 11.7553 90.1985 11.9243 90.22 12.0707C90.2435 12.2172 90.2776 12.3442 90.3226 12.4516C90.3675 12.5571 90.4222 12.644 90.4866 12.7123C90.5511 12.7807 90.6253 12.8315 90.7093 12.8647C90.7952 12.8959 90.8899 12.9116 90.9935 12.9116C91.1263 12.9116 91.2425 12.8862 91.3421 12.8354C91.4417 12.7846 91.5247 12.7055 91.5911 12.5981C91.6595 12.4887 91.7103 12.3491 91.7435 12.1791C91.7767 12.0073 91.7933 11.8022 91.7933 11.5639ZM95.8304 12.853V13.2983H93.0384V12.9086L94.4358 11.353C94.6077 11.1616 94.7405 10.9995 94.8343 10.8666C94.93 10.7319 94.9964 10.6118 95.0335 10.5063C95.0726 10.3989 95.0921 10.2895 95.0921 10.1782C95.0921 10.0375 95.0628 9.91059 95.0042 9.7973C94.9476 9.68207 94.8636 9.59027 94.7522 9.52191C94.6409 9.45355 94.5061 9.41937 94.3479 9.41937C94.1585 9.41937 94.0003 9.45648 93.8733 9.5307C93.7483 9.60297 93.6546 9.70453 93.5921 9.83539C93.5296 9.96625 93.4983 10.1166 93.4983 10.2866H92.9563C92.9563 10.0463 93.0091 9.8266 93.1145 9.62738C93.22 9.42816 93.3763 9.26996 93.5833 9.15277C93.7903 9.03363 94.0452 8.97406 94.3479 8.97406C94.6175 8.97406 94.8479 9.02191 95.0394 9.11762C95.2308 9.21137 95.3772 9.34418 95.4788 9.51605C95.5823 9.68598 95.6341 9.88519 95.6341 10.1137C95.6341 10.2387 95.6126 10.3657 95.5696 10.4946C95.5286 10.6215 95.471 10.7485 95.3968 10.8754C95.3245 11.0024 95.2395 11.1274 95.1419 11.2504C95.0462 11.3735 94.9436 11.4946 94.8343 11.6137L93.6917 12.853H95.8304ZM98.3558 9.03266L96.5774 13.6645H96.1116L97.8929 9.03266H98.3558ZM101.684 12.853V13.2983H98.8919V12.9086L100.289 11.353C100.461 11.1616 100.594 10.9995 100.688 10.8666C100.783 10.7319 100.85 10.6118 100.887 10.5063C100.926 10.3989 100.946 10.2895 100.946 10.1782C100.946 10.0375 100.916 9.91059 100.858 9.7973C100.801 9.68207 100.717 9.59027 100.606 9.52191C100.494 9.45355 100.36 9.41937 100.201 9.41937C100.012 9.41937 99.8538 9.45648 99.7269 9.5307C99.6019 9.60297 99.5081 9.70453 99.4456 9.83539C99.3831 9.96625 99.3519 10.1166 99.3519 10.2866H98.8099C98.8099 10.0463 98.8626 9.8266 98.9681 9.62738C99.0735 9.42816 99.2298 9.26996 99.4368 9.15277C99.6438 9.03363 99.8987 8.97406 100.201 8.97406C100.471 8.97406 100.701 9.02191 100.893 9.11762C101.084 9.21137 101.231 9.34418 101.332 9.51605C101.436 9.68598 101.488 9.88519 101.488 10.1137C101.488 10.2387 101.466 10.3657 101.423 10.4946C101.382 10.6215 101.325 10.7485 101.25 10.8754C101.178 11.0024 101.093 11.1274 100.995 11.2504C100.9 11.3735 100.797 11.4946 100.688 11.6137L99.5452 12.853H101.684ZM104.942 10.8256V11.476C104.942 11.8256 104.91 12.1205 104.848 12.3608C104.785 12.601 104.696 12.7944 104.578 12.9409C104.461 13.0873 104.32 13.1938 104.154 13.2602C103.99 13.3246 103.804 13.3569 103.597 13.3569C103.433 13.3569 103.282 13.3364 103.143 13.2954C103.004 13.2543 102.879 13.1889 102.768 13.0991C102.658 13.0073 102.565 12.8881 102.487 12.7416C102.408 12.5952 102.349 12.4174 102.308 12.2084C102.267 11.9995 102.246 11.7553 102.246 11.476V10.8256C102.246 10.476 102.278 10.183 102.34 9.94672C102.405 9.71039 102.495 9.52094 102.613 9.37836C102.73 9.23383 102.87 9.13031 103.034 9.06781C103.2 9.00531 103.386 8.97406 103.591 8.97406C103.757 8.97406 103.909 8.99457 104.048 9.03559C104.189 9.07465 104.314 9.13812 104.423 9.22602C104.533 9.31195 104.625 9.42719 104.701 9.57172C104.78 9.7143 104.839 9.8891 104.88 10.0961C104.921 10.3032 104.942 10.5463 104.942 10.8256ZM104.397 11.5639V10.7348C104.397 10.5434 104.385 10.3754 104.362 10.2309C104.34 10.0844 104.308 9.95941 104.265 9.8559C104.222 9.75238 104.167 9.6684 104.101 9.60394C104.036 9.53949 103.961 9.49262 103.875 9.46332C103.791 9.43207 103.697 9.41644 103.591 9.41644C103.462 9.41644 103.348 9.44086 103.248 9.48969C103.149 9.53656 103.065 9.61176 102.996 9.71527C102.93 9.81879 102.879 9.95453 102.844 10.1225C102.809 10.2905 102.791 10.4946 102.791 10.7348V11.5639C102.791 11.7553 102.802 11.9243 102.824 12.0707C102.847 12.2172 102.881 12.3442 102.926 12.4516C102.971 12.5571 103.026 12.644 103.09 12.7123C103.155 12.7807 103.229 12.8315 103.313 12.8647C103.399 12.8959 103.493 12.9116 103.597 12.9116C103.73 12.9116 103.846 12.8862 103.946 12.8354C104.045 12.7846 104.128 12.7055 104.195 12.5981C104.263 12.4887 104.314 12.3491 104.347 12.1791C104.38 12.0073 104.397 11.8022 104.397 11.5639ZM108.434 12.853V13.2983H105.642V12.9086L107.039 11.353C107.211 11.1616 107.344 10.9995 107.438 10.8666C107.533 10.7319 107.6 10.6118 107.637 10.5063C107.676 10.3989 107.696 10.2895 107.696 10.1782C107.696 10.0375 107.666 9.91059 107.608 9.7973C107.551 9.68207 107.467 9.59027 107.356 9.52191C107.244 9.45355 107.11 9.41937 106.951 9.41937C106.762 9.41937 106.604 9.45648 106.477 9.5307C106.352 9.60297 106.258 9.70453 106.196 9.83539C106.133 9.96625 106.102 10.1166 106.102 10.2866H105.56C105.56 10.0463 105.613 9.8266 105.718 9.62738C105.824 9.42816 105.98 9.26996 106.187 9.15277C106.394 9.03363 106.649 8.97406 106.951 8.97406C107.221 8.97406 107.451 9.02191 107.643 9.11762C107.834 9.21137 107.981 9.34418 108.082 9.51605C108.186 9.68598 108.238 9.88519 108.238 10.1137C108.238 10.2387 108.216 10.3657 108.173 10.4946C108.132 10.6215 108.075 10.7485 108 10.8754C107.928 11.0024 107.843 11.1274 107.745 11.2504C107.65 11.3735 107.547 11.4946 107.438 11.6137L106.295 12.853H108.434ZM111.809 12.853V13.2983H109.017V12.9086L110.414 11.353C110.586 11.1616 110.719 10.9995 110.813 10.8666C110.908 10.7319 110.975 10.6118 111.012 10.5063C111.051 10.3989 111.071 10.2895 111.071 10.1782C111.071 10.0375 111.041 9.91059 110.983 9.7973C110.926 9.68207 110.842 9.59027 110.731 9.52191C110.619 9.45355 110.485 9.41937 110.326 9.41937C110.137 9.41937 109.979 9.45648 109.852 9.5307C109.727 9.60297 109.633 9.70453 109.571 9.83539C109.508 9.96625 109.477 10.1166 109.477 10.2866H108.935C108.935 10.0463 108.988 9.8266 109.093 9.62738C109.199 9.42816 109.355 9.26996 109.562 9.15277C109.769 9.03363 110.024 8.97406 110.326 8.97406C110.596 8.97406 110.826 9.02191 111.018 9.11762C111.209 9.21137 111.356 9.34418 111.457 9.51605C111.561 9.68598 111.613 9.88519 111.613 10.1137C111.613 10.2387 111.591 10.3657 111.548 10.4946C111.507 10.6215 111.45 10.7485 111.375 10.8754C111.303 11.0024 111.218 11.1274 111.12 11.2504C111.025 11.3735 110.922 11.4946 110.813 11.6137L109.67 12.853H111.809Z"
        fill="#DBDEE1"
        fill-opacity="0.5"
    />
    <rect
        x="33"
        y="27"
        width="111.716"
        height="18.194"
        rx="2"
        fill="#1E1F22"
    />
    <path
        d="M132.147 34.1759C132.24 34.0848 132.366 34.0338 132.496 34.0338C132.627 34.0338 132.752 34.0848 132.845 34.1759L135.485 36.8045L138.126 34.1709C138.171 34.1192 138.226 34.0774 138.288 34.048C138.35 34.0187 138.418 34.0024 138.486 34.0002C138.555 33.9981 138.623 34.0101 138.687 34.0356C138.751 34.061 138.808 34.0993 138.857 34.148C138.905 34.1968 138.942 34.255 138.967 34.3189C138.992 34.3828 139.003 34.4511 138.999 34.5195C138.996 34.5879 138.979 34.6549 138.949 34.7164C138.918 34.7778 138.876 34.8323 138.823 34.8765L135.834 37.858C135.741 37.949 135.616 38 135.485 38C135.355 38 135.23 37.949 135.137 37.858L132.147 34.8765C132.101 34.8303 132.064 34.7754 132.038 34.7148C132.013 34.6543 132 34.5893 132 34.5237C132 34.4581 132.013 34.3932 132.038 34.3326C132.064 34.2721 132.101 34.2171 132.147 34.1709V34.1759Z"
        fill="white"
    />
    <path
        d="M40.9375 37.1484H41.9141C41.8828 37.5208 41.7786 37.8529 41.6016 38.1445C41.4245 38.4336 41.1758 38.6615 40.8555 38.8281C40.5352 38.9948 40.1458 39.0781 39.6875 39.0781C39.3359 39.0781 39.0195 39.0156 38.7383 38.8906C38.457 38.763 38.2161 38.5833 38.0156 38.3516C37.8151 38.1172 37.6615 37.8346 37.5547 37.5039C37.4505 37.1732 37.3984 36.8034 37.3984 36.3945V35.9219C37.3984 35.513 37.4518 35.1432 37.5586 34.8125C37.668 34.4818 37.8242 34.1992 38.0273 33.9648C38.2305 33.7279 38.474 33.5469 38.7578 33.4219C39.0443 33.2969 39.3659 33.2344 39.7227 33.2344C40.1758 33.2344 40.5586 33.3177 40.8711 33.4844C41.1836 33.651 41.4258 33.8815 41.5977 34.1758C41.7721 34.4701 41.8789 34.8073 41.918 35.1875H40.9414C40.9154 34.9427 40.8581 34.7331 40.7695 34.5586C40.6836 34.3841 40.556 34.2513 40.3867 34.1602C40.2174 34.0664 39.9961 34.0195 39.7227 34.0195C39.4987 34.0195 39.3034 34.0612 39.1367 34.1445C38.9701 34.2279 38.8307 34.3503 38.7188 34.5117C38.6068 34.6732 38.5221 34.8724 38.4648 35.1094C38.4102 35.3438 38.3828 35.612 38.3828 35.9141V36.3945C38.3828 36.681 38.4076 36.9414 38.457 37.1758C38.5091 37.4076 38.5872 37.6068 38.6914 37.7734C38.7982 37.9401 38.9336 38.069 39.0977 38.1602C39.2617 38.2513 39.4583 38.2969 39.6875 38.2969C39.9661 38.2969 40.1914 38.2526 40.3633 38.1641C40.5378 38.0755 40.6693 37.9466 40.7578 37.7773C40.849 37.6055 40.9089 37.3958 40.9375 37.1484ZM43.6406 33V39H42.7031V33H43.6406ZM43.4766 36.7305L43.1719 36.7266C43.1745 36.4349 43.2148 36.1654 43.293 35.918C43.3737 35.6706 43.4857 35.4557 43.6289 35.2734C43.7747 35.0885 43.9492 34.9466 44.1523 34.8477C44.3555 34.7461 44.5807 34.6953 44.8281 34.6953C45.0365 34.6953 45.224 34.724 45.3906 34.7812C45.5599 34.8385 45.7057 34.931 45.8281 35.0586C45.9505 35.1836 46.043 35.3477 46.1055 35.5508C46.1706 35.7513 46.2031 35.9961 46.2031 36.2852V39H45.2578V36.2773C45.2578 36.0742 45.2279 35.9128 45.168 35.793C45.1107 35.6732 45.026 35.5872 44.9141 35.5352C44.8021 35.4805 44.6654 35.4531 44.5039 35.4531C44.3346 35.4531 44.1849 35.487 44.0547 35.5547C43.9271 35.6224 43.8203 35.7148 43.7344 35.832C43.6484 35.9492 43.5833 36.0846 43.5391 36.2383C43.4974 36.3919 43.4766 36.556 43.4766 36.7305ZM46.9766 36.9336V36.8438C46.9766 36.5391 47.0208 36.2565 47.1094 35.9961C47.1979 35.7331 47.3255 35.5052 47.4922 35.3125C47.6615 35.1172 47.8672 34.9661 48.1094 34.8594C48.3542 34.75 48.6302 34.6953 48.9375 34.6953C49.2474 34.6953 49.5234 34.75 49.7656 34.8594C50.0104 34.9661 50.2174 35.1172 50.3867 35.3125C50.556 35.5052 50.6849 35.7331 50.7734 35.9961C50.862 36.2565 50.9062 36.5391 50.9062 36.8438V36.9336C50.9062 37.2383 50.862 37.5208 50.7734 37.7812C50.6849 38.0417 50.556 38.2695 50.3867 38.4648C50.2174 38.6576 50.0117 38.8086 49.7695 38.918C49.5273 39.0247 49.2526 39.0781 48.9453 39.0781C48.6354 39.0781 48.3581 39.0247 48.1133 38.918C47.8711 38.8086 47.6654 38.6576 47.4961 38.4648C47.3268 38.2695 47.1979 38.0417 47.1094 37.7812C47.0208 37.5208 46.9766 37.2383 46.9766 36.9336ZM47.918 36.8438V36.9336C47.918 37.1237 47.9375 37.3034 47.9766 37.4727C48.0156 37.6419 48.0768 37.7904 48.1602 37.918C48.2435 38.0456 48.3503 38.1458 48.4805 38.2188C48.6107 38.2917 48.7656 38.3281 48.9453 38.3281C49.1198 38.3281 49.2708 38.2917 49.3984 38.2188C49.5286 38.1458 49.6354 38.0456 49.7188 37.918C49.8021 37.7904 49.8633 37.6419 49.9023 37.4727C49.944 37.3034 49.9648 37.1237 49.9648 36.9336V36.8438C49.9648 36.6562 49.944 36.4792 49.9023 36.3125C49.8633 36.1432 49.8008 35.9935 49.7148 35.8633C49.6315 35.7331 49.5247 35.6315 49.3945 35.5586C49.2669 35.4831 49.1146 35.4453 48.9375 35.4453C48.7604 35.4453 48.6068 35.4831 48.4766 35.5586C48.349 35.6315 48.2435 35.7331 48.1602 35.8633C48.0768 35.9935 48.0156 36.1432 47.9766 36.3125C47.9375 36.4792 47.918 36.6562 47.918 36.8438ZM51.5156 36.9336V36.8438C51.5156 36.5391 51.5599 36.2565 51.6484 35.9961C51.737 35.7331 51.8646 35.5052 52.0312 35.3125C52.2005 35.1172 52.4062 34.9661 52.6484 34.8594C52.8932 34.75 53.1693 34.6953 53.4766 34.6953C53.7865 34.6953 54.0625 34.75 54.3047 34.8594C54.5495 34.9661 54.7565 35.1172 54.9258 35.3125C55.0951 35.5052 55.224 35.7331 55.3125 35.9961C55.401 36.2565 55.4453 36.5391 55.4453 36.8438V36.9336C55.4453 37.2383 55.401 37.5208 55.3125 37.7812C55.224 38.0417 55.0951 38.2695 54.9258 38.4648C54.7565 38.6576 54.5508 38.8086 54.3086 38.918C54.0664 39.0247 53.7917 39.0781 53.4844 39.0781C53.1745 39.0781 52.8971 39.0247 52.6523 38.918C52.4102 38.8086 52.2044 38.6576 52.0352 38.4648C51.8659 38.2695 51.737 38.0417 51.6484 37.7812C51.5599 37.5208 51.5156 37.2383 51.5156 36.9336ZM52.457 36.8438V36.9336C52.457 37.1237 52.4766 37.3034 52.5156 37.4727C52.5547 37.6419 52.6159 37.7904 52.6992 37.918C52.7826 38.0456 52.8893 38.1458 53.0195 38.2188C53.1497 38.2917 53.3047 38.3281 53.4844 38.3281C53.6589 38.3281 53.8099 38.2917 53.9375 38.2188C54.0677 38.1458 54.1745 38.0456 54.2578 37.918C54.3411 37.7904 54.4023 37.6419 54.4414 37.4727C54.4831 37.3034 54.5039 37.1237 54.5039 36.9336V36.8438C54.5039 36.6562 54.4831 36.4792 54.4414 36.3125C54.4023 36.1432 54.3398 35.9935 54.2539 35.8633C54.1706 35.7331 54.0638 35.6315 53.9336 35.5586C53.806 35.4831 53.6536 35.4453 53.4766 35.4453C53.2995 35.4453 53.1458 35.4831 53.0156 35.5586C52.888 35.6315 52.7826 35.7331 52.6992 35.8633C52.6159 35.9935 52.5547 36.1432 52.5156 36.3125C52.4766 36.4792 52.457 36.6562 52.457 36.8438ZM58.6055 37.8555C58.6055 37.7617 58.582 37.6771 58.5352 37.6016C58.4883 37.5234 58.3984 37.4531 58.2656 37.3906C58.1354 37.3281 57.9427 37.2708 57.6875 37.2188C57.4635 37.1693 57.2578 37.1107 57.0703 37.043C56.8854 36.9727 56.7266 36.888 56.5938 36.7891C56.4609 36.6901 56.3581 36.5729 56.2852 36.4375C56.2122 36.3021 56.1758 36.1458 56.1758 35.9688C56.1758 35.7969 56.2135 35.6341 56.2891 35.4805C56.3646 35.3268 56.4727 35.1914 56.6133 35.0742C56.7539 34.957 56.9245 34.8646 57.125 34.7969C57.3281 34.7292 57.5547 34.6953 57.8047 34.6953C58.1589 34.6953 58.4622 34.7552 58.7148 34.875C58.9701 34.9922 59.1654 35.1523 59.3008 35.3555C59.4362 35.556 59.5039 35.7826 59.5039 36.0352H58.5625C58.5625 35.9232 58.5339 35.819 58.4766 35.7227C58.4219 35.6237 58.3385 35.5443 58.2266 35.4844C58.1146 35.4219 57.974 35.3906 57.8047 35.3906C57.6432 35.3906 57.5091 35.4167 57.4023 35.4688C57.2982 35.5182 57.2201 35.5833 57.168 35.6641C57.1185 35.7448 57.0938 35.8333 57.0938 35.9297C57.0938 36 57.1068 36.0638 57.1328 36.1211C57.1615 36.1758 57.2083 36.2266 57.2734 36.2734C57.3385 36.3177 57.4271 36.3594 57.5391 36.3984C57.6536 36.4375 57.7969 36.4753 57.9688 36.5117C58.2917 36.5794 58.569 36.6667 58.8008 36.7734C59.0352 36.8776 59.2148 37.013 59.3398 37.1797C59.4648 37.3438 59.5273 37.5521 59.5273 37.8047C59.5273 37.9922 59.487 38.1641 59.4062 38.3203C59.3281 38.474 59.2135 38.6081 59.0625 38.7227C58.9115 38.8346 58.7305 38.9219 58.5195 38.9844C58.3112 39.0469 58.0768 39.0781 57.8164 39.0781C57.4336 39.0781 57.1094 39.0104 56.8438 38.875C56.5781 38.737 56.3763 38.5612 56.2383 38.3477C56.1029 38.1315 56.0352 37.9076 56.0352 37.6758H56.9453C56.9557 37.8503 57.0039 37.9896 57.0898 38.0938C57.1784 38.1953 57.2878 38.2695 57.418 38.3164C57.5508 38.3607 57.6875 38.3828 57.8281 38.3828C57.9974 38.3828 58.1393 38.3607 58.2539 38.3164C58.3685 38.2695 58.4557 38.207 58.5156 38.1289C58.5755 38.0482 58.6055 37.957 58.6055 37.8555ZM62.2148 39.0781C61.9023 39.0781 61.6198 39.0273 61.3672 38.9258C61.1172 38.8216 60.9036 38.6771 60.7266 38.4922C60.5521 38.3073 60.418 38.0898 60.3242 37.8398C60.2305 37.5898 60.1836 37.3203 60.1836 37.0312V36.875C60.1836 36.5443 60.2318 36.2448 60.3281 35.9766C60.4245 35.7083 60.5586 35.4792 60.7305 35.2891C60.9023 35.0964 61.1055 34.9492 61.3398 34.8477C61.5742 34.7461 61.8281 34.6953 62.1016 34.6953C62.4036 34.6953 62.668 34.7461 62.8945 34.8477C63.1211 34.9492 63.3086 35.0924 63.457 35.2773C63.6081 35.4596 63.7201 35.6771 63.793 35.9297C63.8685 36.1823 63.9062 36.4609 63.9062 36.7656V37.168H60.6406V36.4922H62.9766V36.418C62.9714 36.2487 62.9375 36.0898 62.875 35.9414C62.8151 35.793 62.7227 35.6732 62.5977 35.582C62.4727 35.4909 62.306 35.4453 62.0977 35.4453C61.9414 35.4453 61.8021 35.4792 61.6797 35.5469C61.5599 35.612 61.4596 35.707 61.3789 35.832C61.2982 35.957 61.2357 36.1081 61.1914 36.2852C61.1497 36.4596 61.1289 36.6562 61.1289 36.875V37.0312C61.1289 37.2161 61.1536 37.388 61.2031 37.5469C61.2552 37.7031 61.3307 37.8398 61.4297 37.957C61.5286 38.0742 61.6484 38.1667 61.7891 38.2344C61.9297 38.2995 62.0898 38.332 62.2695 38.332C62.4961 38.332 62.6979 38.2865 62.875 38.1953C63.0521 38.1042 63.2057 37.9753 63.3359 37.8086L63.832 38.2891C63.7409 38.4219 63.6224 38.5495 63.4766 38.6719C63.3307 38.7917 63.1523 38.8893 62.9414 38.9648C62.7331 39.0404 62.4909 39.0781 62.2148 39.0781ZM69.0156 38.1523V36.1367C69.0156 35.9857 68.9883 35.8555 68.9336 35.7461C68.8789 35.6367 68.7956 35.5521 68.6836 35.4922C68.5742 35.4323 68.4362 35.4023 68.2695 35.4023C68.1159 35.4023 67.9831 35.4284 67.8711 35.4805C67.7591 35.5326 67.6719 35.6029 67.6094 35.6914C67.5469 35.7799 67.5156 35.8802 67.5156 35.9922H66.5781C66.5781 35.8255 66.6185 35.6641 66.6992 35.5078C66.7799 35.3516 66.8971 35.2122 67.0508 35.0898C67.2044 34.9674 67.388 34.8711 67.6016 34.8008C67.8151 34.7305 68.0547 34.6953 68.3203 34.6953C68.638 34.6953 68.9193 34.7487 69.1641 34.8555C69.4115 34.9622 69.6055 35.1237 69.7461 35.3398C69.8893 35.5534 69.9609 35.8216 69.9609 36.1445V38.0234C69.9609 38.2161 69.974 38.3893 70 38.543C70.0286 38.694 70.069 38.8255 70.1211 38.9375V39H69.1562C69.112 38.8984 69.0768 38.7695 69.0508 38.6133C69.0273 38.4544 69.0156 38.3008 69.0156 38.1523ZM69.1523 36.4297L69.1602 37.0117H68.4844C68.3099 37.0117 68.1562 37.0286 68.0234 37.0625C67.8906 37.0938 67.7799 37.1406 67.6914 37.2031C67.6029 37.2656 67.5365 37.3411 67.4922 37.4297C67.4479 37.5182 67.4258 37.6185 67.4258 37.7305C67.4258 37.8424 67.4518 37.9453 67.5039 38.0391C67.556 38.1302 67.6315 38.2018 67.7305 38.2539C67.832 38.306 67.9544 38.332 68.0977 38.332C68.2904 38.332 68.4583 38.293 68.6016 38.2148C68.7474 38.1341 68.862 38.0365 68.9453 37.9219C69.0286 37.8047 69.0729 37.694 69.0781 37.5898L69.3828 38.0078C69.3516 38.1146 69.2982 38.2292 69.2227 38.3516C69.1471 38.474 69.0482 38.5911 68.9258 38.7031C68.806 38.8125 68.6615 38.9023 68.4922 38.9727C68.3255 39.043 68.1328 39.0781 67.9141 39.0781C67.638 39.0781 67.3919 39.0234 67.1758 38.9141C66.9596 38.8021 66.7904 38.6523 66.668 38.4648C66.5456 38.2747 66.4844 38.0599 66.4844 37.8203C66.4844 37.5964 66.526 37.3984 66.6094 37.2266C66.6953 37.0521 66.8203 36.9062 66.9844 36.7891C67.151 36.6719 67.3542 36.5833 67.5938 36.5234C67.8333 36.4609 68.1068 36.4297 68.4141 36.4297H69.1523ZM74.2109 39H73.2695V34.3672C73.2695 34.0521 73.3281 33.7878 73.4453 33.5742C73.5651 33.3581 73.7357 33.1953 73.957 33.0859C74.1784 32.974 74.4401 32.918 74.7422 32.918C74.8359 32.918 74.9284 32.9245 75.0195 32.9375C75.1107 32.9479 75.1992 32.9648 75.2852 32.9883L75.2617 33.7148C75.2096 33.7018 75.1523 33.6927 75.0898 33.6875C75.0299 33.6823 74.9648 33.6797 74.8945 33.6797C74.7513 33.6797 74.6276 33.707 74.5234 33.7617C74.4219 33.8138 74.3438 33.8906 74.2891 33.9922C74.237 34.0938 74.2109 34.2188 74.2109 34.3672V39ZM75.082 34.7734V35.4609H72.6211V34.7734H75.082ZM75.5859 36.9336V36.8438C75.5859 36.5391 75.6302 36.2565 75.7188 35.9961C75.8073 35.7331 75.9349 35.5052 76.1016 35.3125C76.2708 35.1172 76.4766 34.9661 76.7188 34.8594C76.9635 34.75 77.2396 34.6953 77.5469 34.6953C77.8568 34.6953 78.1328 34.75 78.375 34.8594C78.6198 34.9661 78.8268 35.1172 78.9961 35.3125C79.1654 35.5052 79.2943 35.7331 79.3828 35.9961C79.4714 36.2565 79.5156 36.5391 79.5156 36.8438V36.9336C79.5156 37.2383 79.4714 37.5208 79.3828 37.7812C79.2943 38.0417 79.1654 38.2695 78.9961 38.4648C78.8268 38.6576 78.6211 38.8086 78.3789 38.918C78.1367 39.0247 77.862 39.0781 77.5547 39.0781C77.2448 39.0781 76.9674 39.0247 76.7227 38.918C76.4805 38.8086 76.2747 38.6576 76.1055 38.4648C75.9362 38.2695 75.8073 38.0417 75.7188 37.7812C75.6302 37.5208 75.5859 37.2383 75.5859 36.9336ZM76.5273 36.8438V36.9336C76.5273 37.1237 76.5469 37.3034 76.5859 37.4727C76.625 37.6419 76.6862 37.7904 76.7695 37.918C76.8529 38.0456 76.9596 38.1458 77.0898 38.2188C77.2201 38.2917 77.375 38.3281 77.5547 38.3281C77.7292 38.3281 77.8802 38.2917 78.0078 38.2188C78.138 38.1458 78.2448 38.0456 78.3281 37.918C78.4115 37.7904 78.4727 37.6419 78.5117 37.4727C78.5534 37.3034 78.5742 37.1237 78.5742 36.9336V36.8438C78.5742 36.6562 78.5534 36.4792 78.5117 36.3125C78.4727 36.1432 78.4102 35.9935 78.3242 35.8633C78.2409 35.7331 78.1341 35.6315 78.0039 35.5586C77.8763 35.4831 77.724 35.4453 77.5469 35.4453C77.3698 35.4453 77.2161 35.4831 77.0859 35.5586C76.9583 35.6315 76.8529 35.7331 76.7695 35.8633C76.6862 35.9935 76.625 36.1432 76.5859 36.3125C76.5469 36.4792 76.5273 36.6562 76.5273 36.8438ZM81.25 35.5781V39H80.3086V34.7734H81.207L81.25 35.5781ZM82.543 34.7461L82.5352 35.6211C82.4779 35.6107 82.4154 35.6029 82.3477 35.5977C82.2826 35.5924 82.2174 35.5898 82.1523 35.5898C81.9909 35.5898 81.849 35.6133 81.7266 35.6602C81.6042 35.7044 81.5013 35.7695 81.418 35.8555C81.3372 35.9388 81.2747 36.0404 81.2305 36.1602C81.1862 36.2799 81.1602 36.4141 81.1523 36.5625L80.9375 36.5781C80.9375 36.3125 80.9635 36.0664 81.0156 35.8398C81.0677 35.6133 81.1458 35.4141 81.25 35.2422C81.3568 35.0703 81.4896 34.9362 81.6484 34.8398C81.8099 34.7435 81.9961 34.6953 82.207 34.6953C82.2643 34.6953 82.3255 34.7005 82.3906 34.7109C82.4583 34.7214 82.5091 34.7331 82.543 34.7461ZM84.0742 35.6328V39H83.1328V34.7734H84.0195L84.0742 35.6328ZM83.9219 36.7305L83.6016 36.7266C83.6016 36.4349 83.638 36.1654 83.7109 35.918C83.7839 35.6706 83.8906 35.4557 84.0312 35.2734C84.1719 35.0885 84.3464 34.9466 84.5547 34.8477C84.7656 34.7461 85.0091 34.6953 85.2852 34.6953C85.4779 34.6953 85.6536 34.724 85.8125 34.7812C85.974 34.8359 86.1133 34.9232 86.2305 35.043C86.3503 35.1628 86.4414 35.3164 86.5039 35.5039C86.569 35.6914 86.6016 35.918 86.6016 36.1836V39H85.6602V36.2656C85.6602 36.0599 85.6289 35.8984 85.5664 35.7812C85.5065 35.6641 85.4193 35.5807 85.3047 35.5312C85.1927 35.4792 85.0586 35.4531 84.9023 35.4531C84.7253 35.4531 84.5742 35.487 84.4492 35.5547C84.3268 35.6224 84.2266 35.7148 84.1484 35.832C84.0703 35.9492 84.013 36.0846 83.9766 36.2383C83.9401 36.3919 83.9219 36.556 83.9219 36.7305ZM86.543 36.4805L86.1016 36.5781C86.1016 36.3229 86.1367 36.082 86.207 35.8555C86.2799 35.6263 86.3854 35.4258 86.5234 35.2539C86.6641 35.0794 86.8372 34.9427 87.043 34.8438C87.2487 34.7448 87.4844 34.6953 87.75 34.6953C87.9661 34.6953 88.1589 34.7253 88.3281 34.7852C88.5 34.8424 88.6458 34.9336 88.7656 35.0586C88.8854 35.1836 88.9766 35.3464 89.0391 35.5469C89.1016 35.7448 89.1328 35.9844 89.1328 36.2656V39H88.1875V36.2617C88.1875 36.0482 88.1562 35.8828 88.0938 35.7656C88.0339 35.6484 87.9479 35.5677 87.8359 35.5234C87.724 35.4766 87.5898 35.4531 87.4336 35.4531C87.2878 35.4531 87.1589 35.4805 87.0469 35.5352C86.9375 35.5872 86.8451 35.6615 86.7695 35.7578C86.694 35.8516 86.6367 35.9596 86.5977 36.082C86.5612 36.2044 86.543 36.3372 86.543 36.4805ZM94.0312 34.7734V35.4609H91.6484V34.7734H94.0312ZM92.3359 33.7383H93.2773V37.832C93.2773 37.9622 93.2956 38.0625 93.332 38.1328C93.3711 38.2005 93.4245 38.2461 93.4922 38.2695C93.5599 38.293 93.6393 38.3047 93.7305 38.3047C93.7956 38.3047 93.8581 38.3008 93.918 38.293C93.9779 38.2852 94.026 38.2773 94.0625 38.2695L94.0664 38.9883C93.9883 39.0117 93.8971 39.0326 93.793 39.0508C93.6914 39.069 93.5742 39.0781 93.4414 39.0781C93.2253 39.0781 93.0339 39.0404 92.8672 38.9648C92.7005 38.8867 92.5703 38.7604 92.4766 38.5859C92.3828 38.4115 92.3359 38.1797 92.3359 37.8906V33.7383ZM94.4844 36.9336V36.8438C94.4844 36.5391 94.5286 36.2565 94.6172 35.9961C94.7057 35.7331 94.8333 35.5052 95 35.3125C95.1693 35.1172 95.375 34.9661 95.6172 34.8594C95.862 34.75 96.138 34.6953 96.4453 34.6953C96.7552 34.6953 97.0312 34.75 97.2734 34.8594C97.5182 34.9661 97.7253 35.1172 97.8945 35.3125C98.0638 35.5052 98.1927 35.7331 98.2812 35.9961C98.3698 36.2565 98.4141 36.5391 98.4141 36.8438V36.9336C98.4141 37.2383 98.3698 37.5208 98.2812 37.7812C98.1927 38.0417 98.0638 38.2695 97.8945 38.4648C97.7253 38.6576 97.5195 38.8086 97.2773 38.918C97.0352 39.0247 96.7604 39.0781 96.4531 39.0781C96.1432 39.0781 95.8659 39.0247 95.6211 38.918C95.3789 38.8086 95.1732 38.6576 95.0039 38.4648C94.8346 38.2695 94.7057 38.0417 94.6172 37.7812C94.5286 37.5208 94.4844 37.2383 94.4844 36.9336ZM95.4258 36.8438V36.9336C95.4258 37.1237 95.4453 37.3034 95.4844 37.4727C95.5234 37.6419 95.5846 37.7904 95.668 37.918C95.7513 38.0456 95.8581 38.1458 95.9883 38.2188C96.1185 38.2917 96.2734 38.3281 96.4531 38.3281C96.6276 38.3281 96.7786 38.2917 96.9062 38.2188C97.0365 38.1458 97.1432 38.0456 97.2266 37.918C97.3099 37.7904 97.3711 37.6419 97.4102 37.4727C97.4518 37.3034 97.4727 37.1237 97.4727 36.9336V36.8438C97.4727 36.6562 97.4518 36.4792 97.4102 36.3125C97.3711 36.1432 97.3086 35.9935 97.2227 35.8633C97.1393 35.7331 97.0326 35.6315 96.9023 35.5586C96.7747 35.4831 96.6224 35.4453 96.4453 35.4453C96.2682 35.4453 96.1146 35.4831 95.9844 35.5586C95.8568 35.6315 95.7513 35.7331 95.668 35.8633C95.5846 35.9935 95.5234 36.1432 95.4844 36.3125C95.4453 36.4792 95.4258 36.6562 95.4258 36.8438ZM102.406 39H101.461V34.5C101.461 34.1589 101.529 33.8711 101.664 33.6367C101.802 33.4023 101.999 33.224 102.254 33.1016C102.512 32.9792 102.818 32.918 103.172 32.918C103.38 32.918 103.581 32.9401 103.773 32.9844C103.969 33.0286 104.171 33.0846 104.379 33.1523L104.234 33.918C104.102 33.8737 103.954 33.832 103.793 33.793C103.632 33.7513 103.445 33.7305 103.234 33.7305C102.951 33.7305 102.741 33.7956 102.605 33.9258C102.473 34.0534 102.406 34.2448 102.406 34.5V39ZM103.254 34.7734V35.4609H100.812V34.7734H103.254ZM104.824 34.7734V39H103.883V34.7734H104.824ZM106.883 33V39H105.938V33H106.883ZM108.922 33V39H107.977V33H108.922ZM111.766 36.9336V36.8438C111.766 36.5391 111.81 36.2565 111.898 35.9961C111.987 35.7331 112.115 35.5052 112.281 35.3125C112.451 35.1172 112.656 34.9661 112.898 34.8594C113.143 34.75 113.419 34.6953 113.727 34.6953C114.036 34.6953 114.312 34.75 114.555 34.8594C114.799 34.9661 115.007 35.1172 115.176 35.3125C115.345 35.5052 115.474 35.7331 115.562 35.9961C115.651 36.2565 115.695 36.5391 115.695 36.8438V36.9336C115.695 37.2383 115.651 37.5208 115.562 37.7812C115.474 38.0417 115.345 38.2695 115.176 38.4648C115.007 38.6576 114.801 38.8086 114.559 38.918C114.316 39.0247 114.042 39.0781 113.734 39.0781C113.424 39.0781 113.147 39.0247 112.902 38.918C112.66 38.8086 112.454 38.6576 112.285 38.4648C112.116 38.2695 111.987 38.0417 111.898 37.7812C111.81 37.5208 111.766 37.2383 111.766 36.9336ZM112.707 36.8438V36.9336C112.707 37.1237 112.727 37.3034 112.766 37.4727C112.805 37.6419 112.866 37.7904 112.949 37.918C113.033 38.0456 113.139 38.1458 113.27 38.2188C113.4 38.2917 113.555 38.3281 113.734 38.3281C113.909 38.3281 114.06 38.2917 114.188 38.2188C114.318 38.1458 114.424 38.0456 114.508 37.918C114.591 37.7904 114.652 37.6419 114.691 37.4727C114.733 37.3034 114.754 37.1237 114.754 36.9336V36.8438C114.754 36.6562 114.733 36.4792 114.691 36.3125C114.652 36.1432 114.59 35.9935 114.504 35.8633C114.421 35.7331 114.314 35.6315 114.184 35.5586C114.056 35.4831 113.904 35.4453 113.727 35.4453C113.549 35.4453 113.396 35.4831 113.266 35.5586C113.138 35.6315 113.033 35.7331 112.949 35.8633C112.866 35.9935 112.805 36.1432 112.766 36.3125C112.727 36.4792 112.707 36.6562 112.707 36.8438ZM119.027 38.0039V34.7734H119.973V39H119.082L119.027 38.0039ZM119.16 37.125L119.477 37.1172C119.477 37.401 119.445 37.6628 119.383 37.9023C119.32 38.1393 119.224 38.3464 119.094 38.5234C118.964 38.6979 118.797 38.8346 118.594 38.9336C118.391 39.0299 118.147 39.0781 117.863 39.0781C117.658 39.0781 117.469 39.0482 117.297 38.9883C117.125 38.9284 116.977 38.8359 116.852 38.7109C116.729 38.5859 116.634 38.4232 116.566 38.2227C116.499 38.0221 116.465 37.7826 116.465 37.5039V34.7734H117.406V37.5117C117.406 37.6654 117.424 37.7943 117.461 37.8984C117.497 38 117.547 38.082 117.609 38.1445C117.672 38.207 117.745 38.2513 117.828 38.2773C117.911 38.3034 118 38.3164 118.094 38.3164C118.362 38.3164 118.573 38.2643 118.727 38.1602C118.883 38.0534 118.993 37.9102 119.059 37.7305C119.126 37.5508 119.16 37.349 119.16 37.125ZM122.875 34.7734V35.4609H120.492V34.7734H122.875ZM121.18 33.7383H122.121V37.832C122.121 37.9622 122.139 38.0625 122.176 38.1328C122.215 38.2005 122.268 38.2461 122.336 38.2695C122.404 38.293 122.483 38.3047 122.574 38.3047C122.639 38.3047 122.702 38.3008 122.762 38.293C122.822 38.2852 122.87 38.2773 122.906 38.2695L122.91 38.9883C122.832 39.0117 122.741 39.0326 122.637 39.0508C122.535 39.069 122.418 39.0781 122.285 39.0781C122.069 39.0781 121.878 39.0404 121.711 38.9648C121.544 38.8867 121.414 38.7604 121.32 38.5859C121.227 38.4115 121.18 38.1797 121.18 37.8906V33.7383Z"
        fill="#949BA4"
    />
    <path
        d="M35.7578 21.7695H34.2383V21.1562H35.7578C36.0521 21.1562 36.2904 21.1094 36.4727 21.0156C36.6549 20.9219 36.7878 20.7917 36.8711 20.625C36.957 20.4583 37 20.2682 37 20.0547C37 19.8594 36.957 19.6758 36.8711 19.5039C36.7878 19.332 36.6549 19.194 36.4727 19.0898C36.2904 18.9831 36.0521 18.9297 35.7578 18.9297H34.4141V24H33.6602V18.3125H35.7578C36.1875 18.3125 36.5508 18.3867 36.8477 18.5352C37.1445 18.6836 37.3698 18.8893 37.5234 19.1523C37.6771 19.4128 37.7539 19.7109 37.7539 20.0469C37.7539 20.4115 37.6771 20.7227 37.5234 20.9805C37.3698 21.2383 37.1445 21.4349 36.8477 21.5703C36.5508 21.7031 36.1875 21.7695 35.7578 21.7695ZM39.3828 18V24H38.6562V18H39.3828ZM42.2969 24.0781C42.0026 24.0781 41.7357 24.0286 41.4961 23.9297C41.2591 23.8281 41.0547 23.6862 40.8828 23.5039C40.7135 23.3216 40.5833 23.1055 40.4922 22.8555C40.401 22.6055 40.3555 22.332 40.3555 22.0352V21.8711C40.3555 21.5273 40.4062 21.2214 40.5078 20.9531C40.6094 20.6823 40.7474 20.4531 40.9219 20.2656C41.0964 20.0781 41.2943 19.9362 41.5156 19.8398C41.737 19.7435 41.9661 19.6953 42.2031 19.6953C42.5052 19.6953 42.7656 19.7474 42.9844 19.8516C43.2057 19.9557 43.3867 20.1016 43.5273 20.2891C43.668 20.474 43.7721 20.6927 43.8398 20.9453C43.9076 21.1953 43.9414 21.4688 43.9414 21.7656V22.0898H40.7852V21.5H43.2188V21.4453C43.2083 21.2578 43.1693 21.0755 43.1016 20.8984C43.0365 20.7214 42.9323 20.5755 42.7891 20.4609C42.6458 20.3464 42.4505 20.2891 42.2031 20.2891C42.0391 20.2891 41.888 20.3242 41.75 20.3945C41.612 20.4622 41.4935 20.5638 41.3945 20.6992C41.2956 20.8346 41.2188 21 41.1641 21.1953C41.1094 21.3906 41.082 21.6159 41.082 21.8711V22.0352C41.082 22.2357 41.1094 22.4245 41.1641 22.6016C41.2214 22.776 41.3034 22.9297 41.4102 23.0625C41.5195 23.1953 41.651 23.2995 41.8047 23.375C41.9609 23.4505 42.138 23.4883 42.3359 23.4883C42.5911 23.4883 42.8073 23.4362 42.9844 23.332C43.1615 23.2279 43.3164 23.0885 43.4492 22.9141L43.8867 23.2617C43.7956 23.3997 43.6797 23.5312 43.5391 23.6562C43.3984 23.7812 43.2253 23.8828 43.0195 23.9609C42.8164 24.0391 42.5755 24.0781 42.2969 24.0781ZM47.2773 23.2773V21.1016C47.2773 20.9349 47.2435 20.7904 47.1758 20.668C47.1107 20.543 47.0117 20.4466 46.8789 20.3789C46.7461 20.3112 46.582 20.2773 46.3867 20.2773C46.2044 20.2773 46.0443 20.3086 45.9062 20.3711C45.7708 20.4336 45.6641 20.5156 45.5859 20.6172C45.5104 20.7188 45.4727 20.8281 45.4727 20.9453H44.75C44.75 20.7943 44.7891 20.6445 44.8672 20.4961C44.9453 20.3477 45.0573 20.2135 45.2031 20.0938C45.3516 19.9714 45.5286 19.875 45.7344 19.8047C45.9427 19.7318 46.1745 19.6953 46.4297 19.6953C46.737 19.6953 47.0078 19.7474 47.2422 19.8516C47.4792 19.9557 47.6641 20.1133 47.7969 20.3242C47.9323 20.5326 48 20.7943 48 21.1094V23.0781C48 23.2188 48.0117 23.3685 48.0352 23.5273C48.0612 23.6862 48.099 23.8229 48.1484 23.9375V24H47.3945C47.3581 23.9167 47.3294 23.806 47.3086 23.668C47.2878 23.5273 47.2773 23.3971 47.2773 23.2773ZM47.4023 21.4375L47.4102 21.9453H46.6797C46.474 21.9453 46.2904 21.9622 46.1289 21.9961C45.9674 22.0273 45.832 22.0755 45.7227 22.1406C45.6133 22.2057 45.5299 22.2878 45.4727 22.3867C45.4154 22.4831 45.3867 22.5964 45.3867 22.7266C45.3867 22.8594 45.4167 22.9805 45.4766 23.0898C45.5365 23.1992 45.6263 23.2865 45.7461 23.3516C45.8685 23.4141 46.0182 23.4453 46.1953 23.4453C46.4167 23.4453 46.612 23.3984 46.7812 23.3047C46.9505 23.2109 47.0846 23.0964 47.1836 22.9609C47.2852 22.8255 47.3398 22.694 47.3477 22.5664L47.6562 22.9141C47.638 23.0234 47.5885 23.1445 47.5078 23.2773C47.4271 23.4102 47.319 23.5378 47.1836 23.6602C47.0508 23.7799 46.8919 23.8802 46.707 23.9609C46.5247 24.0391 46.319 24.0781 46.0898 24.0781C45.8034 24.0781 45.5521 24.0221 45.3359 23.9102C45.1224 23.7982 44.9557 23.6484 44.8359 23.4609C44.7188 23.2708 44.6602 23.0586 44.6602 22.8242C44.6602 22.5977 44.7044 22.3984 44.793 22.2266C44.8815 22.0521 45.0091 21.9076 45.1758 21.793C45.3424 21.6758 45.543 21.5872 45.7773 21.5273C46.0117 21.4674 46.2734 21.4375 46.5625 21.4375H47.4023ZM51.5977 22.8789C51.5977 22.7747 51.5742 22.6784 51.5273 22.5898C51.4831 22.4987 51.3906 22.4167 51.25 22.3438C51.112 22.2682 50.9036 22.2031 50.625 22.1484C50.3906 22.099 50.1784 22.0404 49.9883 21.9727C49.8008 21.9049 49.6406 21.8229 49.5078 21.7266C49.3776 21.6302 49.2773 21.5169 49.207 21.3867C49.1367 21.2565 49.1016 21.1042 49.1016 20.9297C49.1016 20.763 49.138 20.6055 49.2109 20.457C49.2865 20.3086 49.3919 20.1771 49.5273 20.0625C49.6654 19.9479 49.8307 19.8581 50.0234 19.793C50.2161 19.7279 50.431 19.6953 50.668 19.6953C51.0065 19.6953 51.2956 19.7552 51.5352 19.875C51.7747 19.9948 51.9583 20.1549 52.0859 20.3555C52.2135 20.5534 52.2773 20.7734 52.2773 21.0156H51.5547C51.5547 20.8984 51.5195 20.7852 51.4492 20.6758C51.3815 20.5638 51.2812 20.4714 51.1484 20.3984C51.0182 20.3255 50.8581 20.2891 50.668 20.2891C50.4674 20.2891 50.3047 20.3203 50.1797 20.3828C50.0573 20.4427 49.9674 20.5195 49.9102 20.6133C49.8555 20.707 49.8281 20.806 49.8281 20.9102C49.8281 20.9883 49.8411 21.0586 49.8672 21.1211C49.8958 21.181 49.9453 21.237 50.0156 21.2891C50.0859 21.3385 50.1849 21.3854 50.3125 21.4297C50.4401 21.474 50.6029 21.5182 50.8008 21.5625C51.1471 21.6406 51.4323 21.7344 51.6562 21.8438C51.8802 21.9531 52.0469 22.0872 52.1562 22.2461C52.2656 22.4049 52.3203 22.5977 52.3203 22.8242C52.3203 23.0091 52.2812 23.1784 52.2031 23.332C52.1276 23.4857 52.0169 23.6185 51.8711 23.7305C51.7279 23.8398 51.556 23.9258 51.3555 23.9883C51.1576 24.0482 50.9349 24.0781 50.6875 24.0781C50.3151 24.0781 50 24.0117 49.7422 23.8789C49.4844 23.7461 49.2891 23.5742 49.1562 23.3633C49.0234 23.1523 48.957 22.9297 48.957 22.6953H49.6836C49.694 22.8932 49.7513 23.0508 49.8555 23.168C49.9596 23.2826 50.0872 23.3646 50.2383 23.4141C50.3893 23.4609 50.5391 23.4844 50.6875 23.4844C50.8854 23.4844 51.0508 23.4583 51.1836 23.4062C51.319 23.3542 51.4219 23.2826 51.4922 23.1914C51.5625 23.1003 51.5977 22.9961 51.5977 22.8789ZM55.0234 24.0781C54.7292 24.0781 54.4622 24.0286 54.2227 23.9297C53.9857 23.8281 53.7812 23.6862 53.6094 23.5039C53.4401 23.3216 53.3099 23.1055 53.2188 22.8555C53.1276 22.6055 53.082 22.332 53.082 22.0352V21.8711C53.082 21.5273 53.1328 21.2214 53.2344 20.9531C53.3359 20.6823 53.474 20.4531 53.6484 20.2656C53.8229 20.0781 54.0208 19.9362 54.2422 19.8398C54.4635 19.7435 54.6927 19.6953 54.9297 19.6953C55.2318 19.6953 55.4922 19.7474 55.7109 19.8516C55.9323 19.9557 56.1133 20.1016 56.2539 20.2891C56.3945 20.474 56.4987 20.6927 56.5664 20.9453C56.6341 21.1953 56.668 21.4688 56.668 21.7656V22.0898H53.5117V21.5H55.9453V21.4453C55.9349 21.2578 55.8958 21.0755 55.8281 20.8984C55.763 20.7214 55.6589 20.5755 55.5156 20.4609C55.3724 20.3464 55.1771 20.2891 54.9297 20.2891C54.7656 20.2891 54.6146 20.3242 54.4766 20.3945C54.3385 20.4622 54.2201 20.5638 54.1211 20.6992C54.0221 20.8346 53.9453 21 53.8906 21.1953C53.8359 21.3906 53.8086 21.6159 53.8086 21.8711V22.0352C53.8086 22.2357 53.8359 22.4245 53.8906 22.6016C53.9479 22.776 54.0299 22.9297 54.1367 23.0625C54.2461 23.1953 54.3776 23.2995 54.5312 23.375C54.6875 23.4505 54.8646 23.4883 55.0625 23.4883C55.3177 23.4883 55.5339 23.4362 55.7109 23.332C55.888 23.2279 56.043 23.0885 56.1758 22.9141L56.6133 23.2617C56.5221 23.3997 56.4062 23.5312 56.2656 23.6562C56.125 23.7812 55.9518 23.8828 55.7461 23.9609C55.543 24.0391 55.3021 24.0781 55.0234 24.0781ZM60.4609 24H59.7383V19.4062C59.7383 19.0859 59.8008 18.8151 59.9258 18.5938C60.0508 18.3724 60.2292 18.2044 60.4609 18.0898C60.6927 17.9753 60.9674 17.918 61.2852 17.918C61.4727 17.918 61.6562 17.9414 61.8359 17.9883C62.0156 18.0326 62.2005 18.0885 62.3906 18.1562L62.2695 18.7656C62.1497 18.7188 62.0104 18.6745 61.8516 18.6328C61.6953 18.5885 61.5234 18.5664 61.3359 18.5664C61.026 18.5664 60.8021 18.6367 60.6641 18.7773C60.5286 18.9154 60.4609 19.125 60.4609 19.4062V24ZM61.3242 19.7734V20.3281H59.0703V19.7734H61.3242ZM62.7461 19.7734V24H62.0234V19.7734H62.7461ZM64.7188 18V24H63.9922V18H64.7188ZM66.6641 18V24H65.9375V18H66.6641ZM69.6172 21.9336V21.8438C69.6172 21.5391 69.6615 21.2565 69.75 20.9961C69.8385 20.7331 69.9661 20.5052 70.1328 20.3125C70.2995 20.1172 70.5013 19.9661 70.7383 19.8594C70.9753 19.75 71.2409 19.6953 71.5352 19.6953C71.832 19.6953 72.099 19.75 72.3359 19.8594C72.5755 19.9661 72.7786 20.1172 72.9453 20.3125C73.1146 20.5052 73.2435 20.7331 73.332 20.9961C73.4206 21.2565 73.4648 21.5391 73.4648 21.8438V21.9336C73.4648 22.2383 73.4206 22.5208 73.332 22.7812C73.2435 23.0417 73.1146 23.2695 72.9453 23.4648C72.7786 23.6576 72.5768 23.8086 72.3398 23.918C72.1055 24.0247 71.8398 24.0781 71.543 24.0781C71.2461 24.0781 70.9792 24.0247 70.7422 23.918C70.5052 23.8086 70.3021 23.6576 70.1328 23.4648C69.9661 23.2695 69.8385 23.0417 69.75 22.7812C69.6615 22.5208 69.6172 22.2383 69.6172 21.9336ZM70.3398 21.8438V21.9336C70.3398 22.1445 70.3646 22.3438 70.4141 22.5312C70.4635 22.7161 70.5378 22.8802 70.6367 23.0234C70.7383 23.1667 70.8646 23.2799 71.0156 23.3633C71.1667 23.444 71.3424 23.4844 71.543 23.4844C71.7409 23.4844 71.9141 23.444 72.0625 23.3633C72.2135 23.2799 72.3385 23.1667 72.4375 23.0234C72.5365 22.8802 72.6107 22.7161 72.6602 22.5312C72.7122 22.3438 72.7383 22.1445 72.7383 21.9336V21.8438C72.7383 21.6354 72.7122 21.4388 72.6602 21.2539C72.6107 21.0664 72.5352 20.901 72.4336 20.7578C72.3346 20.612 72.2096 20.4974 72.0586 20.4141C71.9102 20.3307 71.7357 20.2891 71.5352 20.2891C71.3372 20.2891 71.1628 20.3307 71.0117 20.4141C70.8633 20.4974 70.7383 20.612 70.6367 20.7578C70.5378 20.901 70.4635 21.0664 70.4141 21.2539C70.3646 21.4388 70.3398 21.6354 70.3398 21.8438ZM76.957 23.0234V19.7734H77.6836V24H76.9922L76.957 23.0234ZM77.0938 22.1328L77.3945 22.125C77.3945 22.4062 77.3646 22.6667 77.3047 22.9062C77.2474 23.1432 77.1536 23.349 77.0234 23.5234C76.8932 23.6979 76.7227 23.8346 76.5117 23.9336C76.3008 24.0299 76.0443 24.0781 75.7422 24.0781C75.5365 24.0781 75.3477 24.0482 75.1758 23.9883C75.0065 23.9284 74.8607 23.8359 74.7383 23.7109C74.6159 23.5859 74.5208 23.4232 74.4531 23.2227C74.388 23.0221 74.3555 22.7812 74.3555 22.5V19.7734H75.0781V22.5078C75.0781 22.6979 75.099 22.8555 75.1406 22.9805C75.1849 23.1029 75.2435 23.2005 75.3164 23.2734C75.3919 23.3438 75.4753 23.3932 75.5664 23.4219C75.6602 23.4505 75.7565 23.4648 75.8555 23.4648C76.1628 23.4648 76.4062 23.4062 76.5859 23.2891C76.7656 23.1693 76.8945 23.0091 76.9727 22.8086C77.0534 22.6055 77.0938 22.3802 77.0938 22.1328ZM80.5547 19.7734V20.3281H78.2695V19.7734H80.5547ZM79.043 18.7461H79.7656V22.9531C79.7656 23.0964 79.7878 23.2044 79.832 23.2773C79.8763 23.3503 79.9336 23.3984 80.0039 23.4219C80.0742 23.4453 80.1497 23.457 80.2305 23.457C80.2904 23.457 80.3529 23.4518 80.418 23.4414C80.4857 23.4284 80.5365 23.418 80.5703 23.4102L80.5742 24C80.5169 24.0182 80.4414 24.0352 80.3477 24.0508C80.2565 24.069 80.1458 24.0781 80.0156 24.0781C79.8385 24.0781 79.6758 24.043 79.5273 23.9727C79.3789 23.9023 79.2604 23.7852 79.1719 23.6211C79.0859 23.4544 79.043 23.2305 79.043 22.9492V18.7461ZM85.1562 19.7734V20.3281H82.8711V19.7734H85.1562ZM83.6445 18.7461H84.3672V22.9531C84.3672 23.0964 84.3893 23.2044 84.4336 23.2773C84.4779 23.3503 84.5352 23.3984 84.6055 23.4219C84.6758 23.4453 84.7513 23.457 84.832 23.457C84.8919 23.457 84.9544 23.4518 85.0195 23.4414C85.0872 23.4284 85.138 23.418 85.1719 23.4102L85.1758 24C85.1185 24.0182 85.043 24.0352 84.9492 24.0508C84.8581 24.069 84.7474 24.0781 84.6172 24.0781C84.4401 24.0781 84.2773 24.043 84.1289 23.9727C83.9805 23.9023 83.862 23.7852 83.7734 23.6211C83.6875 23.4544 83.6445 23.2305 83.6445 22.9492V18.7461ZM86.7266 18V24H86.0039V18H86.7266ZM86.5547 21.7266L86.2539 21.7148C86.2565 21.4258 86.2995 21.1589 86.3828 20.9141C86.4661 20.6667 86.5833 20.4518 86.7344 20.2695C86.8854 20.0872 87.0651 19.9466 87.2734 19.8477C87.4844 19.7461 87.7174 19.6953 87.9727 19.6953C88.181 19.6953 88.3685 19.724 88.5352 19.7812C88.7018 19.8359 88.8438 19.9245 88.9609 20.0469C89.0807 20.1693 89.1719 20.3281 89.2344 20.5234C89.2969 20.7161 89.3281 20.9518 89.3281 21.2305V24H88.6016V21.2227C88.6016 21.0013 88.569 20.8242 88.5039 20.6914C88.4388 20.556 88.3438 20.4583 88.2188 20.3984C88.0938 20.3359 87.9401 20.3047 87.7578 20.3047C87.5781 20.3047 87.4141 20.3424 87.2656 20.418C87.1198 20.4935 86.9935 20.5977 86.8867 20.7305C86.7826 20.8633 86.7005 21.0156 86.6406 21.1875C86.5833 21.3568 86.5547 21.5365 86.5547 21.7266ZM92.1641 24.0781C91.8698 24.0781 91.6029 24.0286 91.3633 23.9297C91.1263 23.8281 90.9219 23.6862 90.75 23.5039C90.5807 23.3216 90.4505 23.1055 90.3594 22.8555C90.2682 22.6055 90.2227 22.332 90.2227 22.0352V21.8711C90.2227 21.5273 90.2734 21.2214 90.375 20.9531C90.4766 20.6823 90.6146 20.4531 90.7891 20.2656C90.9635 20.0781 91.1615 19.9362 91.3828 19.8398C91.6042 19.7435 91.8333 19.6953 92.0703 19.6953C92.3724 19.6953 92.6328 19.7474 92.8516 19.8516C93.0729 19.9557 93.2539 20.1016 93.3945 20.2891C93.5352 20.474 93.6393 20.6927 93.707 20.9453C93.7747 21.1953 93.8086 21.4688 93.8086 21.7656V22.0898H90.6523V21.5H93.0859V21.4453C93.0755 21.2578 93.0365 21.0755 92.9688 20.8984C92.9036 20.7214 92.7995 20.5755 92.6562 20.4609C92.513 20.3464 92.3177 20.2891 92.0703 20.2891C91.9062 20.2891 91.7552 20.3242 91.6172 20.3945C91.4792 20.4622 91.3607 20.5638 91.2617 20.6992C91.1628 20.8346 91.0859 21 91.0312 21.1953C90.9766 21.3906 90.9492 21.6159 90.9492 21.8711V22.0352C90.9492 22.2357 90.9766 22.4245 91.0312 22.6016C91.0885 22.776 91.1706 22.9297 91.2773 23.0625C91.3867 23.1953 91.5182 23.2995 91.6719 23.375C91.8281 23.4505 92.0052 23.4883 92.2031 23.4883C92.4583 23.4883 92.6745 23.4362 92.8516 23.332C93.0286 23.2279 93.1836 23.0885 93.3164 22.9141L93.7539 23.2617C93.6628 23.3997 93.5469 23.5312 93.4062 23.6562C93.2656 23.7812 93.0924 23.8828 92.8867 23.9609C92.6836 24.0391 92.4427 24.0781 92.1641 24.0781ZM97.7148 24H96.9922V19.3281C96.9922 19.0234 97.0469 18.7669 97.1562 18.5586C97.2682 18.3477 97.4284 18.1888 97.6367 18.082C97.8451 17.9727 98.0924 17.918 98.3789 17.918C98.4622 17.918 98.5456 17.9232 98.6289 17.9336C98.7148 17.944 98.7982 17.9596 98.8789 17.9805L98.8398 18.5703C98.7852 18.5573 98.7227 18.5482 98.6523 18.543C98.5846 18.5378 98.5169 18.5352 98.4492 18.5352C98.2956 18.5352 98.1628 18.5664 98.0508 18.6289C97.9414 18.6888 97.8581 18.7773 97.8008 18.8945C97.7435 19.0117 97.7148 19.1562 97.7148 19.3281V24ZM98.6133 19.7734V20.3281H96.3242V19.7734H98.6133ZM99.2266 21.9336V21.8438C99.2266 21.5391 99.2708 21.2565 99.3594 20.9961C99.4479 20.7331 99.5755 20.5052 99.7422 20.3125C99.9089 20.1172 100.111 19.9661 100.348 19.8594C100.585 19.75 100.85 19.6953 101.145 19.6953C101.441 19.6953 101.708 19.75 101.945 19.8594C102.185 19.9661 102.388 20.1172 102.555 20.3125C102.724 20.5052 102.853 20.7331 102.941 20.9961C103.03 21.2565 103.074 21.5391 103.074 21.8438V21.9336C103.074 22.2383 103.03 22.5208 102.941 22.7812C102.853 23.0417 102.724 23.2695 102.555 23.4648C102.388 23.6576 102.186 23.8086 101.949 23.918C101.715 24.0247 101.449 24.0781 101.152 24.0781C100.855 24.0781 100.589 24.0247 100.352 23.918C100.115 23.8086 99.9115 23.6576 99.7422 23.4648C99.5755 23.2695 99.4479 23.0417 99.3594 22.7812C99.2708 22.5208 99.2266 22.2383 99.2266 21.9336ZM99.9492 21.8438V21.9336C99.9492 22.1445 99.974 22.3438 100.023 22.5312C100.073 22.7161 100.147 22.8802 100.246 23.0234C100.348 23.1667 100.474 23.2799 100.625 23.3633C100.776 23.444 100.952 23.4844 101.152 23.4844C101.35 23.4844 101.523 23.444 101.672 23.3633C101.823 23.2799 101.948 23.1667 102.047 23.0234C102.146 22.8802 102.22 22.7161 102.27 22.5312C102.322 22.3438 102.348 22.1445 102.348 21.9336V21.8438C102.348 21.6354 102.322 21.4388 102.27 21.2539C102.22 21.0664 102.145 20.901 102.043 20.7578C101.944 20.612 101.819 20.4974 101.668 20.4141C101.52 20.3307 101.345 20.2891 101.145 20.2891C100.947 20.2891 100.772 20.3307 100.621 20.4141C100.473 20.4974 100.348 20.612 100.246 20.7578C100.147 20.901 100.073 21.0664 100.023 21.2539C99.974 21.4388 99.9492 21.6354 99.9492 21.8438ZM104.703 20.4375V24H103.98V19.7734H104.684L104.703 20.4375ZM106.023 19.75L106.02 20.4219C105.96 20.4089 105.902 20.401 105.848 20.3984C105.796 20.3932 105.736 20.3906 105.668 20.3906C105.501 20.3906 105.354 20.4167 105.227 20.4688C105.099 20.5208 104.991 20.5938 104.902 20.6875C104.814 20.7812 104.743 20.8932 104.691 21.0234C104.642 21.151 104.609 21.2917 104.594 21.4453L104.391 21.5625C104.391 21.3073 104.415 21.0677 104.465 20.8438C104.517 20.6198 104.596 20.4219 104.703 20.25C104.81 20.0755 104.945 19.9401 105.109 19.8438C105.276 19.7448 105.474 19.6953 105.703 19.6953C105.755 19.6953 105.815 19.7018 105.883 19.7148C105.951 19.7253 105.997 19.737 106.023 19.75ZM107.41 20.6133V24H106.684V19.7734H107.371L107.41 20.6133ZM107.262 21.7266L106.926 21.7148C106.928 21.4258 106.966 21.1589 107.039 20.9141C107.112 20.6667 107.22 20.4518 107.363 20.2695C107.507 20.0872 107.685 19.9466 107.898 19.8477C108.112 19.7461 108.359 19.6953 108.641 19.6953C108.839 19.6953 109.021 19.724 109.188 19.7812C109.354 19.8359 109.499 19.9232 109.621 20.043C109.743 20.1628 109.839 20.3164 109.906 20.5039C109.974 20.6914 110.008 20.918 110.008 21.1836V24H109.285V21.2188C109.285 20.9974 109.247 20.8203 109.172 20.6875C109.099 20.5547 108.995 20.4583 108.859 20.3984C108.724 20.3359 108.565 20.3047 108.383 20.3047C108.169 20.3047 107.991 20.3424 107.848 20.418C107.704 20.4935 107.59 20.5977 107.504 20.7305C107.418 20.8633 107.355 21.0156 107.316 21.1875C107.28 21.3568 107.262 21.5365 107.262 21.7266ZM110 21.3281L109.516 21.4766C109.518 21.2448 109.556 21.0221 109.629 20.8086C109.704 20.5951 109.812 20.4049 109.953 20.2383C110.096 20.0716 110.272 19.9401 110.48 19.8438C110.689 19.7448 110.927 19.6953 111.195 19.6953C111.422 19.6953 111.622 19.7253 111.797 19.7852C111.974 19.8451 112.122 19.9375 112.242 20.0625C112.365 20.1849 112.457 20.3424 112.52 20.5352C112.582 20.7279 112.613 20.957 112.613 21.2227V24H111.887V21.2148C111.887 20.9779 111.849 20.7943 111.773 20.6641C111.701 20.5312 111.596 20.4388 111.461 20.3867C111.328 20.332 111.169 20.3047 110.984 20.3047C110.826 20.3047 110.685 20.332 110.562 20.3867C110.44 20.4414 110.337 20.5169 110.254 20.6133C110.171 20.707 110.107 20.8151 110.062 20.9375C110.021 21.0599 110 21.1901 110 21.3281ZM116.168 22.8789C116.168 22.7747 116.145 22.6784 116.098 22.5898C116.053 22.4987 115.961 22.4167 115.82 22.3438C115.682 22.2682 115.474 22.2031 115.195 22.1484C114.961 22.099 114.749 22.0404 114.559 21.9727C114.371 21.9049 114.211 21.8229 114.078 21.7266C113.948 21.6302 113.848 21.5169 113.777 21.3867C113.707 21.2565 113.672 21.1042 113.672 20.9297C113.672 20.763 113.708 20.6055 113.781 20.457C113.857 20.3086 113.962 20.1771 114.098 20.0625C114.236 19.9479 114.401 19.8581 114.594 19.793C114.786 19.7279 115.001 19.6953 115.238 19.6953C115.577 19.6953 115.866 19.7552 116.105 19.875C116.345 19.9948 116.529 20.1549 116.656 20.3555C116.784 20.5534 116.848 20.7734 116.848 21.0156H116.125C116.125 20.8984 116.09 20.7852 116.02 20.6758C115.952 20.5638 115.852 20.4714 115.719 20.3984C115.589 20.3255 115.428 20.2891 115.238 20.2891C115.038 20.2891 114.875 20.3203 114.75 20.3828C114.628 20.4427 114.538 20.5195 114.48 20.6133C114.426 20.707 114.398 20.806 114.398 20.9102C114.398 20.9883 114.411 21.0586 114.438 21.1211C114.466 21.181 114.516 21.237 114.586 21.2891C114.656 21.3385 114.755 21.3854 114.883 21.4297C115.01 21.474 115.173 21.5182 115.371 21.5625C115.717 21.6406 116.003 21.7344 116.227 21.8438C116.451 21.9531 116.617 22.0872 116.727 22.2461C116.836 22.4049 116.891 22.5977 116.891 22.8242C116.891 23.0091 116.852 23.1784 116.773 23.332C116.698 23.4857 116.587 23.6185 116.441 23.7305C116.298 23.8398 116.126 23.9258 115.926 23.9883C115.728 24.0482 115.505 24.0781 115.258 24.0781C114.885 24.0781 114.57 24.0117 114.312 23.8789C114.055 23.7461 113.859 23.5742 113.727 23.3633C113.594 23.1523 113.527 22.9297 113.527 22.6953H114.254C114.264 22.8932 114.322 23.0508 114.426 23.168C114.53 23.2826 114.658 23.3646 114.809 23.4141C114.96 23.4609 115.109 23.4844 115.258 23.4844C115.456 23.4844 115.621 23.4583 115.754 23.4062C115.889 23.3542 115.992 23.2826 116.062 23.1914C116.133 23.1003 116.168 22.9961 116.168 22.8789ZM119.82 18H120.547V23.1797L120.484 24H119.82V18ZM123.402 21.8516V21.9336C123.402 22.2409 123.366 22.526 123.293 22.7891C123.22 23.0495 123.113 23.276 122.973 23.4688C122.832 23.6615 122.66 23.8112 122.457 23.918C122.254 24.0247 122.021 24.0781 121.758 24.0781C121.49 24.0781 121.254 24.0326 121.051 23.9414C120.85 23.8477 120.681 23.7135 120.543 23.5391C120.405 23.3646 120.294 23.1536 120.211 22.9062C120.13 22.6589 120.074 22.3802 120.043 22.0703V21.7109C120.074 21.3984 120.13 21.1185 120.211 20.8711C120.294 20.6237 120.405 20.4128 120.543 20.2383C120.681 20.0612 120.85 19.9271 121.051 19.8359C121.251 19.7422 121.484 19.6953 121.75 19.6953C122.016 19.6953 122.251 19.7474 122.457 19.8516C122.663 19.9531 122.835 20.099 122.973 20.2891C123.113 20.4792 123.22 20.707 123.293 20.9727C123.366 21.2357 123.402 21.5286 123.402 21.8516ZM122.676 21.9336V21.8516C122.676 21.6406 122.656 21.4427 122.617 21.2578C122.578 21.0703 122.516 20.9062 122.43 20.7656C122.344 20.6224 122.23 20.5104 122.09 20.4297C121.949 20.3464 121.776 20.3047 121.57 20.3047C121.388 20.3047 121.229 20.3359 121.094 20.3984C120.961 20.4609 120.848 20.5456 120.754 20.6523C120.66 20.7565 120.583 20.8763 120.523 21.0117C120.466 21.1445 120.423 21.2826 120.395 21.4258V22.3672C120.436 22.5495 120.504 22.7253 120.598 22.8945C120.694 23.0612 120.822 23.1979 120.98 23.3047C121.142 23.4115 121.341 23.4648 121.578 23.4648C121.773 23.4648 121.94 23.4258 122.078 23.3477C122.219 23.2669 122.332 23.1562 122.418 23.0156C122.507 22.875 122.572 22.7122 122.613 22.5273C122.655 22.3424 122.676 22.1445 122.676 21.9336ZM126.07 24.0781C125.776 24.0781 125.509 24.0286 125.27 23.9297C125.033 23.8281 124.828 23.6862 124.656 23.5039C124.487 23.3216 124.357 23.1055 124.266 22.8555C124.174 22.6055 124.129 22.332 124.129 22.0352V21.8711C124.129 21.5273 124.18 21.2214 124.281 20.9531C124.383 20.6823 124.521 20.4531 124.695 20.2656C124.87 20.0781 125.068 19.9362 125.289 19.8398C125.51 19.7435 125.74 19.6953 125.977 19.6953C126.279 19.6953 126.539 19.7474 126.758 19.8516C126.979 19.9557 127.16 20.1016 127.301 20.2891C127.441 20.474 127.546 20.6927 127.613 20.9453C127.681 21.1953 127.715 21.4688 127.715 21.7656V22.0898H124.559V21.5H126.992V21.4453C126.982 21.2578 126.943 21.0755 126.875 20.8984C126.81 20.7214 126.706 20.5755 126.562 20.4609C126.419 20.3464 126.224 20.2891 125.977 20.2891C125.812 20.2891 125.661 20.3242 125.523 20.3945C125.385 20.4622 125.267 20.5638 125.168 20.6992C125.069 20.8346 124.992 21 124.938 21.1953C124.883 21.3906 124.855 21.6159 124.855 21.8711V22.0352C124.855 22.2357 124.883 22.4245 124.938 22.6016C124.995 22.776 125.077 22.9297 125.184 23.0625C125.293 23.1953 125.424 23.2995 125.578 23.375C125.734 23.4505 125.911 23.4883 126.109 23.4883C126.365 23.4883 126.581 23.4362 126.758 23.332C126.935 23.2279 127.09 23.0885 127.223 22.9141L127.66 23.2617C127.569 23.3997 127.453 23.5312 127.312 23.6562C127.172 23.7812 126.999 23.8828 126.793 23.9609C126.59 24.0391 126.349 24.0781 126.07 24.0781ZM129.344 18V24H128.617V18H129.344ZM130.312 21.9336V21.8438C130.312 21.5391 130.357 21.2565 130.445 20.9961C130.534 20.7331 130.661 20.5052 130.828 20.3125C130.995 20.1172 131.197 19.9661 131.434 19.8594C131.671 19.75 131.936 19.6953 132.23 19.6953C132.527 19.6953 132.794 19.75 133.031 19.8594C133.271 19.9661 133.474 20.1172 133.641 20.3125C133.81 20.5052 133.939 20.7331 134.027 20.9961C134.116 21.2565 134.16 21.5391 134.16 21.8438V21.9336C134.16 22.2383 134.116 22.5208 134.027 22.7812C133.939 23.0417 133.81 23.2695 133.641 23.4648C133.474 23.6576 133.272 23.8086 133.035 23.918C132.801 24.0247 132.535 24.0781 132.238 24.0781C131.941 24.0781 131.674 24.0247 131.438 23.918C131.201 23.8086 130.997 23.6576 130.828 23.4648C130.661 23.2695 130.534 23.0417 130.445 22.7812C130.357 22.5208 130.312 22.2383 130.312 21.9336ZM131.035 21.8438V21.9336C131.035 22.1445 131.06 22.3438 131.109 22.5312C131.159 22.7161 131.233 22.8802 131.332 23.0234C131.434 23.1667 131.56 23.2799 131.711 23.3633C131.862 23.444 132.038 23.4844 132.238 23.4844C132.436 23.4844 132.609 23.444 132.758 23.3633C132.909 23.2799 133.034 23.1667 133.133 23.0234C133.232 22.8802 133.306 22.7161 133.355 22.5312C133.408 22.3438 133.434 22.1445 133.434 21.9336V21.8438C133.434 21.6354 133.408 21.4388 133.355 21.2539C133.306 21.0664 133.23 20.901 133.129 20.7578C133.03 20.612 132.905 20.4974 132.754 20.4141C132.605 20.3307 132.431 20.2891 132.23 20.2891C132.033 20.2891 131.858 20.3307 131.707 20.4141C131.559 20.4974 131.434 20.612 131.332 20.7578C131.233 20.901 131.159 21.0664 131.109 21.2539C131.06 21.4388 131.035 21.6354 131.035 21.8438ZM136.137 23.25L137.223 19.7734H137.699L137.605 20.4648L136.5 24H136.035L136.137 23.25ZM135.406 19.7734L136.332 23.2891L136.398 24H135.91L134.684 19.7734H135.406ZM138.738 23.2617L139.621 19.7734H140.34L139.113 24H138.629L138.738 23.2617ZM137.805 19.7734L138.867 23.1914L138.988 24H138.527L137.391 20.457L137.297 19.7734H137.805ZM141.941 18.3125L141.891 22.3945H141.238L141.184 18.3125H141.941ZM141.16 23.6367C141.16 23.5195 141.195 23.4206 141.266 23.3398C141.339 23.2591 141.445 23.2188 141.586 23.2188C141.724 23.2188 141.829 23.2591 141.902 23.3398C141.978 23.4206 142.016 23.5195 142.016 23.6367C142.016 23.7487 141.978 23.8451 141.902 23.9258C141.829 24.0065 141.724 24.0469 141.586 24.0469C141.445 24.0469 141.339 24.0065 141.266 23.9258C141.195 23.8451 141.16 23.7487 141.16 23.6367Z"
        fill="#DBDEE1"
        fill-opacity="0.8"
    />
</svg>